0
SECTION
2
HEADER
9
$INSUNITS
70
1
0
ENDSEC
0
SECTION
2
TABLES
0
TABLE
2
LAYER
0
ENDTAB
0
ENDSEC
0
SECTION
2
ENTITIES
0
LINE
8
front_outsideCutPath
10
0
20
43
11
0
21
32
0
LINE
8
front_outsideCutPath
10
0
20
32
11
3
21
32
0
LINE
8
front_outsideCutPath
10
3
20
32
11
3
21
14
0
LINE
8
front_outsideCutPath
10
3
20
14
11
0
21
14
0
LINE
8
front_outsideCutPath
10
0
20
14
11
0
21
3
0
LINE
8
front_outsideCutPath
10
0
20
3
11
26
21
3
0
LINE
8
front_outsideCutPath
10
26
20
3
11
26
21
6
0
LINE
8
front_outsideCutPath
10
26
20
6
11
44
21
6
0
LINE
8
front_outsideCutPath
10
44
20
6
11
44
21
3
0
LINE
8
front_outsideCutPath
10
44
20
3
11
62
21
3
0
LINE
8
front_outsideCutPath
10
62
20
3
11
62
21
6
0
LINE
8
front_outsideCutPath
10
62
20
6
11
80
21
6
0
LINE
8
front_outsideCutPath
10
80
20
6
11
80
21
3
0
LINE
8
front_outsideCutPath
10
80
20
3
11
98
21
3
0
LINE
8
front_outsideCutPath
10
98
20
3
11
98
21
6
0
LINE
8
front_outsideCutPath
10
98
20
6
11
116
21
6
0
LINE
8
front_outsideCutPath
10
116
20
6
11
116
21
3
0
LINE
8
front_outsideCutPath
10
116
20
3
11
134
21
3
0
LINE
8
front_outsideCutPath
10
134
20
3
11
134
21
6
0
LINE
8
front_outsideCutPath
10
134
20
6
11
152
21
6
0
LINE
8
front_outsideCutPath
10
152
20
6
11
152
21
3
0
LINE
8
front_outsideCutPath
10
152
20
3
11
170
21
3
0
LINE
8
front_outsideCutPath
10
170
20
3
11
170
21
6
0
LINE
8
front_outsideCutPath
10
170
20
6
11
188
21
6
0
LINE
8
front_outsideCutPath
10
188
20
6
11
188
21
3
0
LINE
8
front_outsideCutPath
10
188
20
3
11
206
21
3
0
LINE
8
front_outsideCutPath
10
206
20
3
11
214
21
3
0
LINE
8
front_outsideCutPath
10
214
20
3
11
214
21
14
0
LINE
8
front_outsideCutPath
10
214
20
14
11
211
21
14
0
LINE
8
front_outsideCutPath
10
211
20
14
11
211
21
32
0
LINE
8
front_outsideCutPath
10
211
20
32
11
214
21
32
0
LINE
8
front_outsideCutPath
10
214
20
32
11
214
21
43
0
LINE
8
front_outsideCutPath
10
214
20
43
11
0
21
43
0
LINE
8
left_outsideCutPath
10
220
20
43
11
220
21
32
0
LINE
8
left_outsideCutPath
10
220
20
32
11
217
21
32
0
LINE
8
left_outsideCutPath
10
217
20
32
11
217
21
14
0
LINE
8
left_outsideCutPath
10
217
20
14
11
220
21
14
0
LINE
8
left_outsideCutPath
10
220
20
14
11
220
21
3
0
LINE
8
left_outsideCutPath
10
220
20
3
11
244
21
3
0
LINE
8
left_outsideCutPath
10
244
20
3
11
244
21
6
0
LINE
8
left_outsideCutPath
10
244
20
6
11
262
21
6
0
LINE
8
left_outsideCutPath
10
262
20
6
11
262
21
3
0
LINE
8
left_outsideCutPath
10
262
20
3
11
280
21
3
0
LINE
8
left_outsideCutPath
10
280
20
3
11
280
21
6
0
LINE
8
left_outsideCutPath
10
280
20
6
11
298
21
6
0
LINE
8
left_outsideCutPath
10
298
20
6
11
298
21
3
0
LINE
8
left_outsideCutPath
10
298
20
3
11
316
21
3
0
LINE
8
left_outsideCutPath
10
316
20
3
11
322
21
3
0
LINE
8
left_outsideCutPath
10
322
20
3
11
322
21
14
0
LINE
8
left_outsideCutPath
10
322
20
14
11
325
21
14
0
LINE
8
left_outsideCutPath
10
325
20
14
11
325
21
32
0
LINE
8
left_outsideCutPath
10
325
20
32
11
322
21
32
0
LINE
8
left_outsideCutPath
10
322
20
32
11
322
21
43
0
LINE
8
left_outsideCutPath
10
322
20
43
11
220
21
43
0
LINE
8
back_outsideCutPath
10
0
20
86
11
0
21
75
0
LINE
8
back_outsideCutPath
10
0
20
75
11
3
21
75
0
LINE
8
back_outsideCutPath
10
3
20
75
11
3
21
57
0
LINE
8
back_outsideCutPath
10
3
20
57
11
0
21
57
0
LINE
8
back_outsideCutPath
10
0
20
57
11
0
21
46
0
LINE
8
back_outsideCutPath
10
0
20
46
11
26
21
46
0
LINE
8
back_outsideCutPath
10
26
20
46
11
26
21
49
0
LINE
8
back_outsideCutPath
10
26
20
49
11
44
21
49
0
LINE
8
back_outsideCutPath
10
44
20
49
11
44
21
46
0
LINE
8
back_outsideCutPath
10
44
20
46
11
62
21
46
0
LINE
8
back_outsideCutPath
10
62
20
46
11
62
21
49
0
LINE
8
back_outsideCutPath
10
62
20
49
11
80
21
49
0
LINE
8
back_outsideCutPath
10
80
20
49
11
80
21
46
0
LINE
8
back_outsideCutPath
10
80
20
46
11
98
21
46
0
LINE
8
back_outsideCutPath
10
98
20
46
11
98
21
49
0
LINE
8
back_outsideCutPath
10
98
20
49
11
116
21
49
0
LINE
8
back_outsideCutPath
10
116
20
49
11
116
21
46
0
LINE
8
back_outsideCutPath
10
116
20
46
11
134
21
46
0
LINE
8
back_outsideCutPath
10
134
20
46
11
134
21
49
0
LINE
8
back_outsideCutPath
10
134
20
49
11
152
21
49
0
LINE
8
back_outsideCutPath
10
152
20
49
11
152
21
46
0
LINE
8
back_outsideCutPath
10
152
20
46
11
170
21
46
0
LINE
8
back_outsideCutPath
10
170
20
46
11
170
21
49
0
LINE
8
back_outsideCutPath
10
170
20
49
11
188
21
49
0
LINE
8
back_outsideCutPath
10
188
20
49
11
188
21
46
0
LINE
8
back_outsideCutPath
10
188
20
46
11
206
21
46
0
LINE
8
back_outsideCutPath
10
206
20
46
11
214
21
46
0
LINE
8
back_outsideCutPath
10
214
20
46
11
214
21
57
0
LINE
8
back_outsideCutPath
10
214
20
57
11
211
21
57
0
LINE
8
back_outsideCutPath
10
211
20
57
11
211
21
75
0
LINE
8
back_outsideCutPath
10
211
20
75
11
214
21
75
0
LINE
8
back_outsideCutPath
10
214
20
75
11
214
21
86
0
LINE
8
back_outsideCutPath
10
214
20
86
11
0
21
86
0
LINE
8
right_outsideCutPath
10
220
20
86
11
220
21
75
0
LINE
8
right_outsideCutPath
10
220
20
75
11
217
21
75
0
LINE
8
right_outsideCutPath
10
217
20
75
11
217
21
57
0
LINE
8
right_outsideCutPath
10
217
20
57
11
220
21
57
0
LINE
8
right_outsideCutPath
10
220
20
57
11
220
21
46
0
LINE
8
right_outsideCutPath
10
220
20
46
11
244
21
46
0
LINE
8
right_outsideCutPath
10
244
20
46
11
244
21
49
0
LINE
8
right_outsideCutPath
10
244
20
49
11
262
21
49
0
LINE
8
right_outsideCutPath
10
262
20
49
11
262
21
46
0
LINE
8
right_outsideCutPath
10
262
20
46
11
280
21
46
0
LINE
8
right_outsideCutPath
10
280
20
46
11
280
21
49
0
LINE
8
right_outsideCutPath
10
280
20
49
11
298
21
49
0
LINE
8
right_outsideCutPath
10
298
20
49
11
298
21
46
0
LINE
8
right_outsideCutPath
10
298
20
46
11
316
21
46
0
LINE
8
right_outsideCutPath
10
316
20
46
11
322
21
46
0
LINE
8
right_outsideCutPath
10
322
20
46
11
322
21
57
0
LINE
8
right_outsideCutPath
10
322
20
57
11
325
21
57
0
LINE
8
right_outsideCutPath
10
325
20
57
11
325
21
75
0
LINE
8
right_outsideCutPath
10
325
20
75
11
322
21
75
0
LINE
8
right_outsideCutPath
10
322
20
75
11
322
21
86
0
LINE
8
right_outsideCutPath
10
322
20
86
11
220
21
86
0
LINE
8
bottom_outsideCutPath
10
331
20
108
11
331
21
84
0
LINE
8
bottom_outsideCutPath
10
331
20
84
11
328
21
84
0
LINE
8
bottom_outsideCutPath
10
328
20
84
11
328
21
66
0
LINE
8
bottom_outsideCutPath
10
328
20
66
11
331
21
66
0
LINE
8
bottom_outsideCutPath
10
331
20
66
11
331
21
48
0
LINE
8
bottom_outsideCutPath
10
331
20
48
11
328
21
48
0
LINE
8
bottom_outsideCutPath
10
328
20
48
11
328
21
30
0
LINE
8
bottom_outsideCutPath
10
328
20
30
11
331
21
30
0
LINE
8
bottom_outsideCutPath
10
331
20
30
11
331
21
12
0
LINE
8
bottom_outsideCutPath
10
331
20
12
11
331
21
6
0
LINE
8
bottom_outsideCutPath
10
331
20
6
11
354
21
6
0
LINE
8
bottom_outsideCutPath
10
354
20
6
11
354
21
3
0
LINE
8
bottom_outsideCutPath
10
354
20
3
11
372
21
3
0
LINE
8
bottom_outsideCutPath
10
372
20
3
11
372
21
6
0
LINE
8
bottom_outsideCutPath
10
372
20
6
11
390
21
6
0
LINE
8
bottom_outsideCutPath
10
390
20
6
11
390
21
3
0
LINE
8
bottom_outsideCutPath
10
390
20
3
11
408
21
3
0
LINE
8
bottom_outsideCutPath
10
408
20
3
11
408
21
6
0
LINE
8
bottom_outsideCutPath
10
408
20
6
11
426
21
6
0
LINE
8
bottom_outsideCutPath
10
426
20
6
11
426
21
3
0
LINE
8
bottom_outsideCutPath
10
426
20
3
11
444
21
3
0
LINE
8
bottom_outsideCutPath
10
444
20
3
11
444
21
6
0
LINE
8
bottom_outsideCutPath
10
444
20
6
11
462
21
6
0
LINE
8
bottom_outsideCutPath
10
462
20
6
11
462
21
3
0
LINE
8
bottom_outsideCutPath
10
462
20
3
11
480
21
3
0
LINE
8
bottom_outsideCutPath
10
480
20
3
11
480
21
6
0
LINE
8
bottom_outsideCutPath
10
480
20
6
11
498
21
6
0
LINE
8
bottom_outsideCutPath
10
498
20
6
11
498
21
3
0
LINE
8
bottom_outsideCutPath
10
498
20
3
11
516
21
3
0
LINE
8
bottom_outsideCutPath
10
516
20
3
11
516
21
6
0
LINE
8
bottom_outsideCutPath
10
516
20
6
11
534
21
6
0
LINE
8
bottom_outsideCutPath
10
534
20
6
11
539
21
6
0
LINE
8
bottom_outsideCutPath
10
539
20
6
11
539
21
30
0
LINE
8
bottom_outsideCutPath
10
539
20
30
11
542
21
30
0
LINE
8
bottom_outsideCutPath
10
542
20
30
11
542
21
48
0
LINE
8
bottom_outsideCutPath
10
542
20
48
11
539
21
48
0
LINE
8
bottom_outsideCutPath
10
539
20
48
11
539
21
66
0
LINE
8
bottom_outsideCutPath
10
539
20
66
11
542
21
66
0
LINE
8
bottom_outsideCutPath
10
542
20
66
11
542
21
84
0
LINE
8
bottom_outsideCutPath
10
542
20
84
11
539
21
84
0
LINE
8
bottom_outsideCutPath
10
539
20
84
11
539
21
102
0
LINE
8
bottom_outsideCutPath
10
539
20
102
11
539
21
108
0
LINE
8
bottom_outsideCutPath
10
539
20
108
11
516
21
108
0
LINE
8
bottom_outsideCutPath
10
516
20
108
11
516
21
111
0
LINE
8
bottom_outsideCutPath
10
516
20
111
11
498
21
111
0
LINE
8
bottom_outsideCutPath
10
498
20
111
11
498
21
108
0
LINE
8
bottom_outsideCutPath
10
498
20
108
11
480
21
108
0
LINE
8
bottom_outsideCutPath
10
480
20
108
11
480
21
111
0
LINE
8
bottom_outsideCutPath
10
480
20
111
11
462
21
111
0
LINE
8
bottom_outsideCutPath
10
462
20
111
11
462
21
108
0
LINE
8
bottom_outsideCutPath
10
462
20
108
11
444
21
108
0
LINE
8
bottom_outsideCutPath
10
444
20
108
11
444
21
111
0
LINE
8
bottom_outsideCutPath
10
444
20
111
11
426
21
111
0
LINE
8
bottom_outsideCutPath
10
426
20
111
11
426
21
108
0
LINE
8
bottom_outsideCutPath
10
426
20
108
11
408
21
108
0
LINE
8
bottom_outsideCutPath
10
408
20
108
11
408
21
111
0
LINE
8
bottom_outsideCutPath
10
408
20
111
11
390
21
111
0
LINE
8
bottom_outsideCutPath
10
390
20
111
11
390
21
108
0
LINE
8
bottom_outsideCutPath
10
390
20
108
11
372
21
108
0
LINE
8
bottom_outsideCutPath
10
372
20
108
11
372
21
111
0
LINE
8
bottom_outsideCutPath
10
372
20
111
11
354
21
111
0
LINE
8
bottom_outsideCutPath
10
354
20
111
11
354
21
108
0
LINE
8
bottom_outsideCutPath
10
354
20
108
11
336
21
108
0
LINE
8
bottom_outsideCutPath
10
336
20
108
11
331
21
108
0
ENDSEC
0
EOF