999
dxfrw 0.6.3
  0
SECTION
  2
HEADER
  9
$ACADVER
  1
AC1021
  9
$DWGCODEPAGE
  3
ANSI_1252
  9
$INSBASE
 10
0
 20
0
 30
0
  9
$EXTMIN
 10
0
 20
0
 30
0
  9
$EXTMAX
 10
910
 20
605
 30
0
  9
$LIMMIN
 10
0
 20
0
  9
$LIMMAX
 10
420
 20
297
  9
$ORTHOMODE
 70
    0
  9
$REGENMODE
 70
    1
  9
$FILLMODE
 70
    1
  9
$QTEXTMODE
 70
    0
  9
$MIRRTEXT
 70
    0
  9
$LTSCALE
 40
1
  9
$ATTMODE
 70
    0
  9
$TEXTSIZE
 40
2.5
  9
$TRACEWID
 40
15.68
  9
$TEXTSTYLE
  7
STANDARD
  9
$CLAYER
  8
0
  9
$CELTYPE
  6
BYLAYER
  9
$CECOLOR
 62
  256
  9
$CELTSCALE
 40
1
  9
$DISPSILH
 70
    0
  9
$DIMSCALE
 40
1
  9
$DIMASZ
 40
2.5
  9
$DIMEXO
 40
0.625
  9
$DIMDLI
 40
3.75
  9
$DIMRND
 40
0
  9
$DIMDLE
 40
0
  9
$DIMEXE
 40
1.25
  9
$DIMTP
 40
0
  9
$DIMTM
 40
0
  9
$DIMTXT
 40
2.5
  9
$DIMCEN
 40
2.5
  9
$DIMTSZ
 40
0
  9
$DIMTOL
 70
    0
  9
$DIMLIM
 70
    0
  9
$DIMTIH
 70
    0
  9
$DIMTOH
 70
    0
  9
$DIMSE1
 70
    0
  9
$DIMSE2
 70
    0
  9
$DIMTAD
 70
    1
  9
$DIMZIN
 70
    1
  9
$DIMBLK
  1

  9
$DIMASO
 70
    1
  9
$DIMSHO
 70
    1
  9
$DIMPOST
  1

  9
$DIMAPOST
  1

  9
$DIMALT
 70
    0
  9
$DIMALTD
 70
    3
  9
$DIMALTF
 40
0.03937
  9
$DIMLFAC
 40
1
  9
$DIMTOFL
 70
    1
  9
$DIMTVP
 40
0
  9
$DIMTIX
 70
    0
  9
$DIMSOXD
 70
    0
  9
$DIMSAH
 70
    0
  9
$DIMBLK1
  1

  9
$DIMBLK2
  1

  9
$DIMSTYLE
  2
Standard
  9
$DIMCLRD
 70
    0
  9
$DIMCLRE
 70
    0
  9
$DIMCLRT
 70
    0
  9
$DIMTFAC
 40
1
  9
$DIMGAP
 40
0.625
  9
$DIMJUST
 70
    0
  9
$DIMSD1
 70
    0
  9
$DIMSD2
 70
    0
  9
$DIMTOLJ
 70
    0
  9
$DIMTZIN
 70
    8
  9
$DIMALTZ
 70
    0
  9
$DIMALTTZ
 70
    0
  9
$DIMUPT
 70
    0
  9
$DIMDEC
 70
    4
  9
$DIMTDEC
 70
    2
  9
$DIMALTU
 70
    2
  9
$DIMALTTD
 70
    3
  9
$DIMTXSTY
  7
standard
  9
$DIMAUNIT
 70
    0
  9
$DIMADEC
 70
    2
  9
$DIMALTRND
 40
0
  9
$DIMAZIN
 70
    0
  9
$DIMDSEP
 70
    0
  9
$DIMATFIT
 70
    3
  9
$DIMFRAC
 70
    0
  9
$DIMLDRBLK
  1
STANDARD
  9
$DIMLUNIT
 70
    2
  9
$DIMLWD
 70
   -2
  9
$DIMLWE
 70
   -2
  9
$DIMTMOVE
 70
    0
  9
$DIMFXL
 40
0.04
  9
$DIMFXLON
 70
    0
  9
$DIMJOGANG
 40
0.7854
  9
$DIMTFILL
 70
    0
  9
$DIMTFILLCLR
 70
    0
  9
$DIMARCSYM
 70
    0
  9
$DIMLTYPE
  6

  9
$DIMLTEX1
  6

  9
$DIMLTEX2
  6

  9
$LUNITS
 70
    2
  9
$LUPREC
 70
    4
  9
$SKETCHINC
 40
1
  9
$FILLETRAD
 40
0
  9
$AUNITS
 70
    0
  9
$AUPREC
 70
    2
  9
$MENU
  1
.
  9
$ELEVATION
 40
0
  9
$PELEVATION
 40
0
  9
$THICKNESS
 40
0
  9
$LIMCHECK
 70
    0
  9
$CHAMFERA
 40
0
  9
$CHAMFERB
 40
0
  9
$CHAMFERC
 40
0
  9
$CHAMFERD
 40
0
  9
$SKPOLY
 70
    0
  9
$USRTIMER
 70
    1
  9
$ANGBASE
 50
0
  9
$ANGDIR
 70
    0
  9
$PDMODE
 70
   34
  9
$PDSIZE
 40
0
  9
$PLINEWID
 40
0
  9
$SPLFRAME
 70
    0
  9
$SPLINETYPE
 70
    2
  9
$SPLINESEGS
 70
    8
  9
$HANDSEED
  5
20000
  9
$SURFTAB1
 70
    6
  9
$SURFTAB2
 70
    6
  9
$SURFTYPE
 70
    6
  9
$SURFU
 70
    6
  9
$SURFV
 70
    6
  9
$UCSBASE
  2

  9
$UCSNAME
  2

  9
$UCSORG
 10
0
 20
0
 30
0
  9
$UCSXDIR
 10
1
 20
0
 30
0
  9
$UCSYDIR
 10
0
 20
1
 30
0
  9
$UCSORTHOREF
  2

  9
$UCSORTHOVIEW
 70
    0
  9
$UCSORGTOP
 10
0
 20
0
 30
0
  9
$UCSORGBOTTOM
 10
0
 20
0
 30
0
  9
$UCSORGLEFT
 10
0
 20
0
 30
0
  9
$UCSORGRIGHT
 10
0
 20
0
 30
0
  9
$UCSORGFRONT
 10
0
 20
0
 30
0
  9
$UCSORGBACK
 10
0
 20
0
 30
0
  9
$PUCSBASE
  2

  9
$PUCSNAME
  2

  9
$PUCSORG
 10
0
 20
0
 30
0
  9
$PUCSXDIR
 10
1
 20
0
 30
0
  9
$PUCSYDIR
 10
0
 20
1
 30
0
  9
$PUCSORTHOREF
  2

  9
$PUCSORTHOVIEW
 70
    0
  9
$PUCSORGTOP
 10
0
 20
0
 30
0
  9
$PUCSORGBOTTOM
 10
0
 20
0
 30
0
  9
$PUCSORGLEFT
 10
0
 20
0
 30
0
  9
$PUCSORGRIGHT
 10
0
 20
0
 30
0
  9
$PUCSORGFRONT
 10
0
 20
0
 30
0
  9
$PUCSORGBACK
 10
0
 20
0
 30
0
  9
$USERI1
 70
    0
  9
$USERI2
 70
    0
  9
$USERI3
 70
    0
  9
$USERI4
 70
    0
  9
$USERI5
 70
    0
  9
$USERR1
 40
0
  9
$USERR2
 40
0
  9
$USERR3
 40
0
  9
$USERR4
 40
0
  9
$USERR5
 40
0
  9
$WORLDVIEW
 70
    1
  9
$SHADEDGE
 70
    3
  9
$SHADEDIF
 70
   70
  9
$TILEMODE
 70
    1
  9
$MAXACTVP
 70
   64
  9
$PINSBASE
 10
0
 20
0
 30
0
  9
$PLIMCHECK
 70
    0
  9
$PEXTMIN
 10
0
 20
0
 30
0
  9
$PEXTMAX
 10
0
 20
0
 30
0
  9
$GRIDMODE
 70
    1
  9
$SNAPSTYLE
 70
    0
  9
$GRIDUNIT
 10
0
 20
0
  9
$PLIMMIN
 10
0
 20
0
  9
$PLIMMAX
 10
3.7239e-06
 20
7.4478e-06
  9
$UNITMODE
 70
    0
  9
$VISRETAIN
 70
    1
  9
$PLINEGEN
 70
    0
  9
$PSLTSCALE
 70
    1
  9
$TREEDEPTH
 70
 3020
  9
$CMLSTYLE
  2
Standard
  9
$CMLJUST
 70
    0
  9
$CMLSCALE
 40
20
  9
$PROXYGRAPHICS
 70
    1
  9
$MEASUREMENT
 70
    1
  9
$CELWEIGHT
370
   -1
  9
$ENDCAPS
280
    0
  9
$JOINSTYLE
280
    0
  9
$LWDISPLAY
290
    0
  9
$INSUNITS
 70
    4
  9
$HYPERLINKBASE
  1

  9
$STYLESHEET
  1

  9
$XEDIT
290
    1
  9
$CEPSNTYPE
380
    0
  9
$PSTYLEMODE
290
    1
  9
$EXTNAMES
290
    1
  9
$PSVPSCALE
 40
1
  9
$OLESTARTUP
290
    0
  9
$SORTENTS
280
  127
  9
$INDEXCTL
280
    0
  9
$HIDETEXT
280
    1
  9
$XCLIPFRAME
290
    0
  9
$HALOGAP
280
    0
  9
$OBSCOLOR
 70
  257
  9
$OBSLTYPE
280
    0
  9
$INTERSECTIONDISPLAY
280
    0
  9
$INTERSECTIONCOLOR
 70
  257
  9
$DIMASSOC
280
    1
  9
$PROJECTNAME
  1

  9
$CAMERADISPLAY
290
    0
  9
$LENSLENGTH
 40
50
  9
$CAMERAHEIGHT
 40
0
  9
$STEPSPERSEC
 40
2
  9
$STEPSIZE
 40
50
  9
$3DDWFPREC
 40
2
  9
$PSOLWIDTH
 40
5
  9
$PSOLHEIGHT
 40
80
  9
$LOFTANG1
 40
1.570796326794897
  9
$LOFTANG2
 40
1.570796326794897
  9
$LOFTMAG1
 40
0
  9
$LOFTMAG2
 40
0
  9
$LOFTPARAM
 70
    7
  9
$LOFTNORMALS
280
    1
  9
$LATITUDE
 40
1
  9
$LONGITUDE
 40
1
  9
$NORTHDIRECTION
 40
0
  9
$TIMEZONE
 70
-8000
  9
$LIGHTGLYPHDISPLAY
280
    1
  9
$TILEMODELIGHTSYNCH
280
    1
  9
$SOLIDHIST
280
    1
  9
$SHOWHIST
280
    1
  9
$DWFFRAME
280
    2
  9
$DGNFRAME
280
    0
  9
$REALWORLDSCALE
290
    1
  9
$INTERFERECOLOR
 62
    1
  9
$CSHADOW
280
    0
  9
$SHADOWPLANELOCATION
 40
0
  0
ENDSEC
  0
SECTION
  2
CLASSES
  0
ENDSEC
  0
SECTION
  2
TABLES
  0
TABLE
  2
VPORT
  5
8
330
0
100
AcDbSymbolTable
 70
    1
  0
VPORT
  5
31
330
2
100
AcDbSymbolTableRecord
100
AcDbViewportTableRecord
  2
*ACTIVE
 70
    0
 10
0
 20
0
 11
1
 21
1
 12
846.0025051090863
 22
578.4894119595417
 13
0
 23
0
 14
10
 24
10
 15
10
 25
10
 16
0
 26
0
 36
1
 17
0
 27
0
 37
0
 40
1447.141767060695
 41
1.847715736040609
 42
50
 43
0
 44
0
 50
0
 51
0
 71
    0
 72
  100
 73
    1
 74
    3
 75
    0
 76
    1
 77
    0
 78
    0
281
    0
 65
    1
110
0
120
0
130
0
111
1
121
0
131
0
112
0
122
1
132
0
 79
    0
146
0
348
10020
 60
    7
 61
    5
292
1
282
    1
141
0
142
0
 63
  250
421
3358443
  0
ENDTAB
  0
TABLE
  2
LTYPE
  5
5
330
0
100
AcDbSymbolTable
 70
    4
  0
LTYPE
  5
14
330
5
100
AcDbSymbolTableRecord
100
AcDbLinetypeTableRecord
  2
ByBlock
 70
    0
  3

 72
   65
 73
    0
 40
0
  0
LTYPE
  5
15
330
5
100
AcDbSymbolTableRecord
100
AcDbLinetypeTableRecord
  2
ByLayer
 70
    0
  3

 72
   65
 73
    0
 40
0
  0
LTYPE
  5
16
330
5
100
AcDbSymbolTableRecord
100
AcDbLinetypeTableRecord
  2
Continuous
 70
    0
  3
Solid line
 72
   65
 73
    0
 40
0
  0
LTYPE
  5
32
330
5
100
AcDbSymbolTableRecord
100
AcDbLinetypeTableRecord
  2
DOT
 70
    0
  3
Dot . . . . . . . . . . . . . . . . . . . . . .
 72
   65
 73
    2
 40
6.35
 49
0
 74
    0
 49
-6.35
 74
    0
  0
LTYPE
  5
33
330
5
100
AcDbSymbolTableRecord
100
AcDbLinetypeTableRecord
  2
DOTTINY
 70
    0
  3
Dot (.15x) .....................................
 72
   65
 73
    2
 40
0.9525
 49
0
 74
    0
 49
-0.9525
 74
    0
  0
LTYPE
  5
34
330
5
100
AcDbSymbolTableRecord
100
AcDbLinetypeTableRecord
  2
DOT2
 70
    0
  3
Dot (.5x) .....................................
 72
   65
 73
    2
 40
3.175
 49
0
 74
    0
 49
-3.175
 74
    0
  0
LTYPE
  5
35
330
5
100
AcDbSymbolTableRecord
100
AcDbLinetypeTableRecord
  2
DOTX2
 70
    0
  3
Dot (2x) .  .  .  .  .  .  .  .  .  .  .  .  .
 72
   65
 73
    2
 40
12.7
 49
0
 74
    0
 49
-12.7
 74
    0
  0
LTYPE
  5
36
330
5
100
AcDbSymbolTableRecord
100
AcDbLinetypeTableRecord
  2
DASHED
 70
    0
  3
Dashed _ _ _ _ _ _ _ _ _ _ _ _ _ _ _ _ _
 72
   65
 73
    2
 40
19.05
 49
12.7
 74
    0
 49
-6.35
 74
    0
  0
LTYPE
  5
37
330
5
100
AcDbSymbolTableRecord
100
AcDbLinetypeTableRecord
  2
DASHEDTINY
 70
    0
  3
Dashed (.15x) _ _ _ _ _ _ _ _ _ _ _ _ _ _ _ _ _
 72
   65
 73
    2
 40
2.8575
 49
1.905
 74
    0
 49
-0.9525
 74
    0
  0
LTYPE
  5
38
330
5
100
AcDbSymbolTableRecord
100
AcDbLinetypeTableRecord
  2
DASHED2
 70
    0
  3
Dashed (.5x) _ _ _ _ _ _ _ _ _ _ _ _ _ _ _ _ _
 72
   65
 73
    2
 40
9.524999999999999
 49
6.35
 74
    0
 49
-3.175
 74
    0
  0
LTYPE
  5
39
330
5
100
AcDbSymbolTableRecord
100
AcDbLinetypeTableRecord
  2
DASHEDX2
 70
    0
  3
Dashed (2x) ____  ____  ____  ____  ____  ___
 72
   65
 73
    2
 40
38.09999999999999
 49
25.4
 74
    0
 49
-12.7
 74
    0
  0
LTYPE
  5
3A
330
5
100
AcDbSymbolTableRecord
100
AcDbLinetypeTableRecord
  2
DASHDOT
 70
    0
  3
Dash dot __ . __ . __ . __ . __ . __ . __ . __
 72
   65
 73
    4
 40
25.4
 49
12.7
 74
    0
 49
-6.35
 74
    0
 49
0
 74
    0
 49
-6.35
 74
    0
  0
LTYPE
  5
3B
330
5
100
AcDbSymbolTableRecord
100
AcDbLinetypeTableRecord
  2
DASHDOTTINY
 70
    0
  3
Dash dot (.15x) _._._._._._._._._._._._._._._.
 72
   65
 73
    4
 40
3.81
 49
1.905
 74
    0
 49
-0.9525
 74
    0
 49
0
 74
    0
 49
-0.9525
 74
    0
  0
LTYPE
  5
3C
330
5
100
AcDbSymbolTableRecord
100
AcDbLinetypeTableRecord
  2
DASHDOT2
 70
    0
  3
Dash dot (.5x) _._._._._._._._._._._._._._._.
 72
   65
 73
    4
 40
12.7
 49
6.35
 74
    0
 49
-3.175
 74
    0
 49
0
 74
    0
 49
-3.175
 74
    0
  0
LTYPE
  5
3D
330
5
100
AcDbSymbolTableRecord
100
AcDbLinetypeTableRecord
  2
DASHDOTX2
 70
    0
  3
Dash dot (2x) ____  .  ____  .  ____  .  ___
 72
   65
 73
    4
 40
50.8
 49
25.4
 74
    0
 49
-12.7
 74
    0
 49
0
 74
    0
 49
-12.7
 74
    0
  0
LTYPE
  5
3E
330
5
100
AcDbSymbolTableRecord
100
AcDbLinetypeTableRecord
  2
DIVIDE
 70
    0
  3
Divide ____ . . ____ . . ____ . . ____ . . ____
 72
   65
 73
    6
 40
31.75
 49
12.7
 74
    0
 49
-6.35
 74
    0
 49
0
 74
    0
 49
-6.35
 74
    0
 49
0
 74
    0
 49
-6.35
 74
    0
  0
LTYPE
  5
3F
330
5
100
AcDbSymbolTableRecord
100
AcDbLinetypeTableRecord
  2
DIVIDETINY
 70
    0
  3
Divide (.15x) __..__..__..__..__..__..__..__.._
 72
   65
 73
    6
 40
4.7625
 49
1.905
 74
    0
 49
-0.9525
 74
    0
 49
0
 74
    0
 49
-0.9525
 74
    0
 49
0
 74
    0
 49
-0.9525
 74
    0
  0
LTYPE
  5
40
330
5
100
AcDbSymbolTableRecord
100
AcDbLinetypeTableRecord
  2
DIVIDE2
 70
    0
  3
Divide (.5x) __..__..__..__..__..__..__..__.._
 72
   65
 73
    6
 40
15.875
 49
6.35
 74
    0
 49
-3.175
 74
    0
 49
0
 74
    0
 49
-3.175
 74
    0
 49
0
 74
    0
 49
-3.175
 74
    0
  0
LTYPE
  5
41
330
5
100
AcDbSymbolTableRecord
100
AcDbLinetypeTableRecord
  2
DIVIDEX2
 70
    0
  3
Divide (2x) ________  .  .  ________  .  .  _
 72
   65
 73
    6
 40
63.5
 49
25.4
 74
    0
 49
-12.7
 74
    0
 49
0
 74
    0
 49
-12.7
 74
    0
 49
0
 74
    0
 49
-12.7
 74
    0
  0
LTYPE
  5
42
330
5
100
AcDbSymbolTableRecord
100
AcDbLinetypeTableRecord
  2
BORDER
 70
    0
  3
Border __ __ . __ __ . __ __ . __ __ . __ __ .
 72
   65
 73
    6
 40
44.45
 49
12.7
 74
    0
 49
-6.35
 74
    0
 49
12.7
 74
    0
 49
-6.35
 74
    0
 49
0
 74
    0
 49
-6.35
 74
    0
  0
LTYPE
  5
43
330
5
100
AcDbSymbolTableRecord
100
AcDbLinetypeTableRecord
  2
BORDERTINY
 70
    0
  3
Border (.15x) __.__.__.__.__.__.__.__.__.__.__.
 72
   65
 73
    6
 40
6.6675
 49
1.905
 74
    0
 49
-0.9525
 74
    0
 49
1.905
 74
    0
 49
-0.9525
 74
    0
 49
0
 74
    0
 49
-0.9525
 74
    0
  0
LTYPE
  5
44
330
5
100
AcDbSymbolTableRecord
100
AcDbLinetypeTableRecord
  2
BORDER2
 70
    0
  3
Border (.5x) __.__.__.__.__.__.__.__.__.__.__.
 72
   65
 73
    6
 40
22.225
 49
6.35
 74
    0
 49
-3.175
 74
    0
 49
6.35
 74
    0
 49
-3.175
 74
    0
 49
0
 74
    0
 49
-3.175
 74
    0
  0
LTYPE
  5
45
330
5
100
AcDbSymbolTableRecord
100
AcDbLinetypeTableRecord
  2
BORDERX2
 70
    0
  3
Border (2x) ____  ____  .  ____  ____  .  ___
 72
   65
 73
    6
 40
88.89999999999999
 49
25.4
 74
    0
 49
-12.7
 74
    0
 49
25.4
 74
    0
 49
-12.7
 74
    0
 49
0
 74
    0
 49
-12.7
 74
    0
  0
LTYPE
  5
46
330
5
100
AcDbSymbolTableRecord
100
AcDbLinetypeTableRecord
  2
CENTER
 70
    0
  3
Center ____ _ ____ _ ____ _ ____ _ ____ _ ____
 72
   65
 73
    4
 40
50.8
 49
31.75
 74
    0
 49
-6.35
 74
    0
 49
6.35
 74
    0
 49
-6.35
 74
    0
  0
LTYPE
  5
47
330
5
100
AcDbSymbolTableRecord
100
AcDbLinetypeTableRecord
  2
CENTERTINY
 70
    0
  3
Center (.15x) ___ _ ___ _ ___ _ ___ _ ___ _ ___
 72
   65
 73
    4
 40
7.619999999999999
 49
4.7625
 74
    0
 49
-0.9525
 74
    0
 49
0.9525
 74
    0
 49
-0.9525
 74
    0
  0
LTYPE
  5
48
330
5
100
AcDbSymbolTableRecord
100
AcDbLinetypeTableRecord
  2
CENTER2
 70
    0
  3
Center (.5x) ___ _ ___ _ ___ _ ___ _ ___ _ ___
 72
   65
 73
    4
 40
28.575
 49
19.05
 74
    0
 49
-3.175
 74
    0
 49
3.175
 74
    0
 49
-3.175
 74
    0
  0
LTYPE
  5
49
330
5
100
AcDbSymbolTableRecord
100
AcDbLinetypeTableRecord
  2
CENTERX2
 70
    0
  3
Center (2x) ________  __  ________  __  _____
 72
   65
 73
    4
 40
101.6
 49
63.5
 74
    0
 49
-12.7
 74
    0
 49
12.7
 74
    0
 49
-12.7
 74
    0
  0
ENDTAB
  0
TABLE
  2
LAYER
  5
2
330
0
100
AcDbSymbolTable
 70
    1
  0
LAYER
  5
10
330
2
100
AcDbSymbolTableRecord
100
AcDbLayerTableRecord
  2
0
 70
    0
 62
    7
  6
CONTINUOUS
370
    0
390
F
  0
LAYER
  5
4A
330
2
100
AcDbSymbolTableRecord
100
AcDbLayerTableRecord
  2
dim bounding box
 70
    0
 62
    1
  6
CONTINUOUS
370
    0
390
F
  0
ENDTAB
  0
TABLE
  2
STYLE
  5
3
330
0
100
AcDbSymbolTable
 70
    3
  0
STYLE
  5
4B
330
2
100
AcDbSymbolTableRecord
100
AcDbTextStyleTableRecord
  2
Standard
 70
    0
 40
0
 41
1
 50
0
 71
    0
 42
1
  3
txt
  4

  0
ENDTAB
  0
TABLE
  2
VIEW
  5
6
330
0
100
AcDbSymbolTable
 70
    0
  0
ENDTAB
  0
TABLE
  2
UCS
  5
7
330
0
100
AcDbSymbolTable
 70
    0
  0
ENDTAB
  0
TABLE
  2
APPID
  5
9
330
0
100
AcDbSymbolTable
 70
    1
  0
APPID
  5
12
330
9
100
AcDbSymbolTableRecord
100
AcDbRegAppTableRecord
  2
ACAD
 70
    0
  0
APPID
  5
4C
330
9
100
AcDbSymbolTableRecord
100
AcDbRegAppTableRecord
  2
LibreCad
 70
    0
  0
ENDTAB
  0
TABLE
  2
DIMSTYLE
  5
A
330
0
100
AcDbSymbolTable
 70
    1
100
AcDbDimStyleTable
 71
    1
  0
DIMSTYLE
105
4D
330
A
100
AcDbSymbolTableRecord
100
AcDbDimStyleTableRecord
  2
Standard
 70
    0
 40
1
 41
2.5
 42
0.625
 43
0.38
 44
1.25
 45
0
 46
0
 47
0
 48
0
 49
0.04
140
2.5
141
0.09
142
0
143
25.4
144
1
145
0
146
1
147
0.625
148
0
 71
    0
 72
    0
 73
    0
 74
    1
 75
    0
 76
    0
 77
    0
 78
    1
 79
    0
170
    0
171
    2
172
    0
173
    0
174
    0
175
    0
176
    0
177
    0
178
    0
179
    2
271
    4
272
    4
273
    2
274
    2
275
    0
276
    0
277
    2
278
    0
279
    0
280
    0
281
    0
282
    0
283
    1
284
    0
285
    0
286
    0
288
    0
289
    3
340
standard
341

371
   -2
372
   -2
  0
ENDTAB
  0
TABLE
  2
BLOCK_RECORD
  5
1
330
0
100
AcDbSymbolTable
 70
    2
  0
BLOCK_RECORD
  5
1F
330
1
100
AcDbSymbolTableRecord
100
AcDbBlockTableRecord
  2
*Model_Space
 70
    0
280
    1
281
    0
  0
BLOCK_RECORD
  5
1E
330
1
100
AcDbSymbolTableRecord
100
AcDbBlockTableRecord
  2
*Paper_Space
 70
    0
280
    1
281
    0
  0
ENDTAB
  0
ENDSEC
  0
SECTION
  2
BLOCKS
  0
BLOCK
  5
20
330
1F
100
AcDbEntity
  8
0
100
AcDbBlockBegin
  2
*Model_Space
 70
    0
 10
0
 20
0
 30
0
  3
*Model_Space
  1

  0
ENDBLK
  5
21
330
1F
100
AcDbEntity
  8
0
100
AcDbBlockEnd
  0
BLOCK
  5
1C
330
1B
100
AcDbEntity
  8
0
100
AcDbBlockBegin
  2
*Paper_Space
 70
    0
 10
0
 20
0
 30
0
  3
*Paper_Space
  1

  0
ENDBLK
  5
1D
330
1F
100
AcDbEntity
  8
0
100
AcDbBlockEnd
  0
ENDSEC
  0
SECTION
  2
ENTITIES
  0
LWPOLYLINE
  5
4E
100
AcDbEntity
  8
dim bounding box
  6
ByLayer
 62
  256
370
   -1
100
AcDbPolyline
 90
    4
 70
    1
 43
0
 10
0
 20
0
 10
910
 20
0
 10
910
 20
605
 10
0
 20
605
  0
LINE
  5
4F
100
AcDbEntity
  8
0
  6
ByLayer
 62
  256
370
   -1
100
AcDbLine
 10
306
 20
3
 11
306
 21
29
  0
LINE
  5
50
100
AcDbEntity
  8
0
  6
ByLayer
 62
  256
370
   -1
100
AcDbLine
 10
306
 20
29
 11
303
 21
29
  0
LINE
  5
51
100
AcDbEntity
  8
0
  6
ByLayer
 62
  256
370
   -1
100
AcDbLine
 10
303
 20
29
 11
303
 21
47
  0
LINE
  5
52
100
AcDbEntity
  8
0
  6
ByLayer
 62
  256
370
   -1
100
AcDbLine
 10
303
 20
47
 11
306
 21
47
  0
LINE
  5
53
100
AcDbEntity
  8
0
  6
ByLayer
 62
  256
370
   -1
100
AcDbLine
 10
306
 20
47
 11
306
 21
65
  0
LINE
  5
54
100
AcDbEntity
  8
0
  6
ByLayer
 62
  256
370
   -1
100
AcDbLine
 10
306
 20
65
 11
303
 21
65
  0
LINE
  5
55
100
AcDbEntity
  8
0
  6
ByLayer
 62
  256
370
   -1
100
AcDbLine
 10
303
 20
65
 11
303
 21
83
  0
LINE
  5
56
100
AcDbEntity
  8
0
  6
ByLayer
 62
  256
370
   -1
100
AcDbLine
 10
303
 20
83
 11
306
 21
83
  0
LINE
  5
57
100
AcDbEntity
  8
0
  6
ByLayer
 62
  256
370
   -1
100
AcDbLine
 10
306
 20
83
 11
306
 21
101
  0
LINE
  5
58
100
AcDbEntity
  8
0
  6
ByLayer
 62
  256
370
   -1
100
AcDbLine
 10
306
 20
101
 11
303
 21
101
  0
LINE
  5
59
100
AcDbEntity
  8
0
  6
ByLayer
 62
  256
370
   -1
100
AcDbLine
 10
303
 20
101
 11
303
 21
119
  0
LINE
  5
5A
100
AcDbEntity
  8
0
  6
ByLayer
 62
  256
370
   -1
100
AcDbLine
 10
303
 20
119
 11
306
 21
119
  0
LINE
  5
5B
100
AcDbEntity
  8
0
  6
ByLayer
 62
  256
370
   -1
100
AcDbLine
 10
306
 20
119
 11
306
 21
137
  0
LINE
  5
5C
100
AcDbEntity
  8
0
  6
ByLayer
 62
  256
370
   -1
100
AcDbLine
 10
306
 20
137
 11
303
 21
137
  0
LINE
  5
5D
100
AcDbEntity
  8
0
  6
ByLayer
 62
  256
370
   -1
100
AcDbLine
 10
303
 20
137
 11
303
 21
155
  0
LINE
  5
5E
100
AcDbEntity
  8
0
  6
ByLayer
 62
  256
370
   -1
100
AcDbLine
 10
303
 20
155
 11
306
 21
155
  0
LINE
  5
5F
100
AcDbEntity
  8
0
  6
ByLayer
 62
  256
370
   -1
100
AcDbLine
 10
306
 20
155
 11
306
 21
173
  0
LINE
  5
60
100
AcDbEntity
  8
0
  6
ByLayer
 62
  256
370
   -1
100
AcDbLine
 10
306
 20
173
 11
303
 21
173
  0
LINE
  5
61
100
AcDbEntity
  8
0
  6
ByLayer
 62
  256
370
   -1
100
AcDbLine
 10
303
 20
173
 11
303
 21
191
  0
LINE
  5
62
100
AcDbEntity
  8
0
  6
ByLayer
 62
  256
370
   -1
100
AcDbLine
 10
303
 20
191
 11
306
 21
191
  0
LINE
  5
63
100
AcDbEntity
  8
0
  6
ByLayer
 62
  256
370
   -1
100
AcDbLine
 10
306
 20
191
 11
306
 21
209
  0
LINE
  5
64
100
AcDbEntity
  8
0
  6
ByLayer
 62
  256
370
   -1
100
AcDbLine
 10
306
 20
209
 11
306
 21
217
  0
LINE
  5
65
100
AcDbEntity
  8
0
  6
ByLayer
 62
  256
370
   -1
100
AcDbLine
 10
266
 20
217
 11
266
 21
3.000000000000003
  0
LINE
  5
66
100
AcDbEntity
  8
0
  6
ByLayer
 62
  256
370
   -1
100
AcDbLine
 10
266
 20
223
 11
277
 21
223
  0
LINE
  5
67
100
AcDbEntity
  8
0
  6
ByLayer
 62
  256
370
   -1
100
AcDbLine
 10
277
 20
223
 11
277
 21
220
  0
LINE
  5
68
100
AcDbEntity
  8
0
  6
ByLayer
 62
  256
370
   -1
100
AcDbLine
 10
277
 20
220
 11
295
 21
220
  0
LINE
  5
69
100
AcDbEntity
  8
0
  6
ByLayer
 62
  256
370
   -1
100
AcDbLine
 10
295
 20
220
 11
295
 21
223
  0
LINE
  5
6A
100
AcDbEntity
  8
0
  6
ByLayer
 62
  256
370
   -1
100
AcDbLine
 10
295
 20
223
 11
306
 21
223
  0
LINE
  5
6B
100
AcDbEntity
  8
0
  6
ByLayer
 62
  256
370
   -1
100
AcDbLine
 10
306
 20
223
 11
306
 21
247
  0
LINE
  5
6C
100
AcDbEntity
  8
0
  6
ByLayer
 62
  256
370
   -1
100
AcDbLine
 10
306
 20
247
 11
303
 21
247
  0
LINE
  5
6D
100
AcDbEntity
  8
0
  6
ByLayer
 62
  256
370
   -1
100
AcDbLine
 10
303
 20
247
 11
303
 21
265
  0
LINE
  5
6E
100
AcDbEntity
  8
0
  6
ByLayer
 62
  256
370
   -1
100
AcDbLine
 10
303
 20
265
 11
306
 21
265
  0
LINE
  5
6F
100
AcDbEntity
  8
0
  6
ByLayer
 62
  256
370
   -1
100
AcDbLine
 10
306
 20
265
 11
306
 21
283
  0
LINE
  5
70
100
AcDbEntity
  8
0
  6
ByLayer
 62
  256
370
   -1
100
AcDbLine
 10
306
 20
283
 11
303
 21
283
  0
LINE
  5
71
100
AcDbEntity
  8
0
  6
ByLayer
 62
  256
370
   -1
100
AcDbLine
 10
303
 20
283
 11
303
 21
301
  0
LINE
  5
72
100
AcDbEntity
  8
0
  6
ByLayer
 62
  256
370
   -1
100
AcDbLine
 10
303
 20
301
 11
306
 21
301
  0
LINE
  5
73
100
AcDbEntity
  8
0
  6
ByLayer
 62
  256
370
   -1
100
AcDbLine
 10
306
 20
301
 11
306
 21
319
  0
LINE
  5
74
100
AcDbEntity
  8
0
  6
ByLayer
 62
  256
370
   -1
100
AcDbLine
 10
306
 20
319
 11
306
 21
325
  0
LINE
  5
75
100
AcDbEntity
  8
0
  6
ByLayer
 62
  256
370
   -1
100
AcDbLine
 10
306
 20
325
 11
295
 21
325
  0
LINE
  5
76
100
AcDbEntity
  8
0
  6
ByLayer
 62
  256
370
   -1
100
AcDbLine
 10
295
 20
325
 11
295
 21
328
  0
LINE
  5
77
100
AcDbEntity
  8
0
  6
ByLayer
 62
  256
370
   -1
100
AcDbLine
 10
295
 20
328
 11
277
 21
328
  0
LINE
  5
78
100
AcDbEntity
  8
0
  6
ByLayer
 62
  256
370
   -1
100
AcDbLine
 10
277
 20
328
 11
277
 21
325
  0
LINE
  5
79
100
AcDbEntity
  8
0
  6
ByLayer
 62
  256
370
   -1
100
AcDbLine
 10
277
 20
325
 11
266
 21
325
  0
LINE
  5
7A
100
AcDbEntity
  8
0
  6
ByLayer
 62
  256
370
   -1
100
AcDbLine
 10
266
 20
325
 11
266
 21
223
  0
LINE
  5
7B
100
AcDbEntity
  8
0
  6
ByLayer
 62
  256
370
   -1
100
AcDbLine
 10
263
 20
3.000000000000003
 11
263
 21
29
  0
LINE
  5
7C
100
AcDbEntity
  8
0
  6
ByLayer
 62
  256
370
   -1
100
AcDbLine
 10
263
 20
29
 11
260
 21
29
  0
LINE
  5
7D
100
AcDbEntity
  8
0
  6
ByLayer
 62
  256
370
   -1
100
AcDbLine
 10
260
 20
29
 11
260
 21
47
  0
LINE
  5
7E
100
AcDbEntity
  8
0
  6
ByLayer
 62
  256
370
   -1
100
AcDbLine
 10
260
 20
47
 11
263
 21
47
  0
LINE
  5
7F
100
AcDbEntity
  8
0
  6
ByLayer
 62
  256
370
   -1
100
AcDbLine
 10
263
 20
47
 11
263
 21
65
  0
LINE
  5
80
100
AcDbEntity
  8
0
  6
ByLayer
 62
  256
370
   -1
100
AcDbLine
 10
263
 20
65
 11
260
 21
65
  0
LINE
  5
81
100
AcDbEntity
  8
0
  6
ByLayer
 62
  256
370
   -1
100
AcDbLine
 10
260
 20
65
 11
260
 21
83
  0
LINE
  5
82
100
AcDbEntity
  8
0
  6
ByLayer
 62
  256
370
   -1
100
AcDbLine
 10
260
 20
83
 11
263
 21
83
  0
LINE
  5
83
100
AcDbEntity
  8
0
  6
ByLayer
 62
  256
370
   -1
100
AcDbLine
 10
263
 20
83
 11
263
 21
101
  0
LINE
  5
84
100
AcDbEntity
  8
0
  6
ByLayer
 62
  256
370
   -1
100
AcDbLine
 10
263
 20
101
 11
260
 21
101
  0
LINE
  5
85
100
AcDbEntity
  8
0
  6
ByLayer
 62
  256
370
   -1
100
AcDbLine
 10
260
 20
101
 11
260
 21
119
  0
LINE
  5
86
100
AcDbEntity
  8
0
  6
ByLayer
 62
  256
370
   -1
100
AcDbLine
 10
260
 20
119
 11
263
 21
119
  0
LINE
  5
87
100
AcDbEntity
  8
0
  6
ByLayer
 62
  256
370
   -1
100
AcDbLine
 10
263
 20
119
 11
263
 21
137
  0
LINE
  5
88
100
AcDbEntity
  8
0
  6
ByLayer
 62
  256
370
   -1
100
AcDbLine
 10
263
 20
137
 11
260
 21
137
  0
LINE
  5
89
100
AcDbEntity
  8
0
  6
ByLayer
 62
  256
370
   -1
100
AcDbLine
 10
260
 20
137
 11
260
 21
155
  0
LINE
  5
8A
100
AcDbEntity
  8
0
  6
ByLayer
 62
  256
370
   -1
100
AcDbLine
 10
260
 20
155
 11
263
 21
155
  0
LINE
  5
8B
100
AcDbEntity
  8
0
  6
ByLayer
 62
  256
370
   -1
100
AcDbLine
 10
263
 20
155
 11
263
 21
173
  0
LINE
  5
8C
100
AcDbEntity
  8
0
  6
ByLayer
 62
  256
370
   -1
100
AcDbLine
 10
263
 20
173
 11
260
 21
173
  0
LINE
  5
8D
100
AcDbEntity
  8
0
  6
ByLayer
 62
  256
370
   -1
100
AcDbLine
 10
260
 20
173
 11
260
 21
191
  0
LINE
  5
8E
100
AcDbEntity
  8
0
  6
ByLayer
 62
  256
370
   -1
100
AcDbLine
 10
260
 20
191
 11
263
 21
191
  0
LINE
  5
8F
100
AcDbEntity
  8
0
  6
ByLayer
 62
  256
370
   -1
100
AcDbLine
 10
263
 20
191
 11
263
 21
209
  0
LINE
  5
90
100
AcDbEntity
  8
0
  6
ByLayer
 62
  256
370
   -1
100
AcDbLine
 10
263
 20
209
 11
263
 21
217
  0
LINE
  5
91
100
AcDbEntity
  8
0
  6
ByLayer
 62
  256
370
   -1
100
AcDbLine
 10
223
 20
223
 11
234
 21
223
  0
LINE
  5
92
100
AcDbEntity
  8
0
  6
ByLayer
 62
  256
370
   -1
100
AcDbLine
 10
234
 20
223
 11
234
 21
220
  0
LINE
  5
93
100
AcDbEntity
  8
0
  6
ByLayer
 62
  256
370
   -1
100
AcDbLine
 10
234
 20
220
 11
252
 21
220
  0
LINE
  5
94
100
AcDbEntity
  8
0
  6
ByLayer
 62
  256
370
   -1
100
AcDbLine
 10
252
 20
220
 11
252
 21
223
  0
LINE
  5
95
100
AcDbEntity
  8
0
  6
ByLayer
 62
  256
370
   -1
100
AcDbLine
 10
252
 20
223
 11
263
 21
223
  0
LINE
  5
96
100
AcDbEntity
  8
0
  6
ByLayer
 62
  256
370
   -1
100
AcDbLine
 10
263
 20
223
 11
263
 21
247
  0
LINE
  5
97
100
AcDbEntity
  8
0
  6
ByLayer
 62
  256
370
   -1
100
AcDbLine
 10
263
 20
247
 11
260
 21
247
  0
LINE
  5
98
100
AcDbEntity
  8
0
  6
ByLayer
 62
  256
370
   -1
100
AcDbLine
 10
260
 20
247
 11
260
 21
265
  0
LINE
  5
99
100
AcDbEntity
  8
0
  6
ByLayer
 62
  256
370
   -1
100
AcDbLine
 10
260
 20
265
 11
263
 21
265
  0
LINE
  5
9A
100
AcDbEntity
  8
0
  6
ByLayer
 62
  256
370
   -1
100
AcDbLine
 10
263
 20
265
 11
263
 21
283
  0
LINE
  5
9B
100
AcDbEntity
  8
0
  6
ByLayer
 62
  256
370
   -1
100
AcDbLine
 10
263
 20
283
 11
260
 21
283
  0
LINE
  5
9C
100
AcDbEntity
  8
0
  6
ByLayer
 62
  256
370
   -1
100
AcDbLine
 10
260
 20
283
 11
260
 21
301
  0
LINE
  5
9D
100
AcDbEntity
  8
0
  6
ByLayer
 62
  256
370
   -1
100
AcDbLine
 10
260
 20
301
 11
263
 21
301
  0
LINE
  5
9E
100
AcDbEntity
  8
0
  6
ByLayer
 62
  256
370
   -1
100
AcDbLine
 10
263
 20
301
 11
263
 21
319
  0
LINE
  5
9F
100
AcDbEntity
  8
0
  6
ByLayer
 62
  256
370
   -1
100
AcDbLine
 10
263
 20
319
 11
263
 21
325
  0
LINE
  5
A0
100
AcDbEntity
  8
0
  6
ByLayer
 62
  256
370
   -1
100
AcDbLine
 10
263
 20
325
 11
252
 21
325
  0
LINE
  5
A1
100
AcDbEntity
  8
0
  6
ByLayer
 62
  256
370
   -1
100
AcDbLine
 10
252
 20
325
 11
252
 21
328
  0
LINE
  5
A2
100
AcDbEntity
  8
0
  6
ByLayer
 62
  256
370
   -1
100
AcDbLine
 10
252
 20
328
 11
234
 21
328
  0
LINE
  5
A3
100
AcDbEntity
  8
0
  6
ByLayer
 62
  256
370
   -1
100
AcDbLine
 10
234
 20
328
 11
234
 21
325
  0
LINE
  5
A4
100
AcDbEntity
  8
0
  6
ByLayer
 62
  256
370
   -1
100
AcDbLine
 10
234
 20
325
 11
223
 21
325
  0
LINE
  5
A5
100
AcDbEntity
  8
0
  6
ByLayer
 62
  256
370
   -1
100
AcDbLine
 10
223
 20
325
 11
223
 21
223
  0
LWPOLYLINE
  5
A6
100
AcDbEntity
  8
0
  6
ByLayer
 62
  256
370
   -1
100
AcDbPolyline
 90
    4
 70
    1
 43
0
 10
220
 20
3.000000000000005
 10
220
 20
217
 10
112
 20
217
 10
112
 20
3.000000000000012
  0
LWPOLYLINE
  5
A7
100
AcDbEntity
  8
0
  6
ByLayer
 62
  256
370
   -1
100
AcDbPolyline
 90
    4
 70
    1
 43
0
 10
220
 20
220
 10
220
 20
322
 10
12
 20
322
 10
12
 20
220
  0
LINE
  5
A8
100
AcDbEntity
  8
0
  6
ByLayer
 62
  256
370
   -1
100
AcDbLine
 10
100.1759197499998
 20
6.283058499999691
 11
106.1759197499998
 21
6.283058499999691
  0
LINE
  5
A9
100
AcDbEntity
  8
0
  6
ByLayer
 62
  256
370
   -1
100
AcDbLine
 10
106.1759197499998
 20
209.2830584999997
 11
106.1759197499998
 21
214.2830584999997
  0
LINE
  5
AA
100
AcDbEntity
  8
0
  6
ByLayer
 62
  256
370
   -1
100
AcDbLine
 10
10.17591974999982
 20
214.2830584999997
 11
4.175919749999821
 21
214.2830584999997
  0
LINE
  5
AB
100
AcDbEntity
  8
0
  6
ByLayer
 62
  256
370
   -1
100
AcDbLine
 10
4.175919749999821
 20
11.2830584999997
 11
4.175919749999821
 21
6.283058499999697
  0
LINE
  5
AC
100
AcDbEntity
  8
0
  6
ByLayer
 62
  256
370
   -1
100
AcDbLine
 10
223
 20
100.0000000000002
 11
223
 21
3.000000000000005
  0
LINE
  5
AD
100
AcDbEntity
  8
0
  6
ByLayer
 62
  256
370
   -1
100
AcDbLine
 10
223
 20
217
 11
223
 21
120.0000000000003
  0
ARC
  5
AE
100
AcDbEntity
  8
0
  6
ByLayer
 62
  256
370
   -1
100
AcDbCircle
 10
223
 20
110
 40
10
100
AcDbArc
 50
270
 51
90.0000000000001
  0
LINE
  5
AF
100
AcDbEntity
  8
0
  6
ByLayer
 62
  256
370
   -1
100
AcDbLine
 10
109.1759197499998
 20
47.5330584999997
 11
106.1759197499998
 21
47.5330584999997
  0
LINE
  5
B0
100
AcDbEntity
  8
0
  6
ByLayer
 62
  256
370
   -1
100
AcDbLine
 10
109.1759197499998
 20
83.5330584999997
 11
106.1759197499998
 21
83.5330584999997
  0
LINE
  5
B1
100
AcDbEntity
  8
0
  6
ByLayer
 62
  256
370
   -1
100
AcDbLine
 10
109.1759197499998
 20
119.5330584999997
 11
106.1759197499998
 21
119.5330584999997
  0
LINE
  5
B2
100
AcDbEntity
  8
0
  6
ByLayer
 62
  256
370
   -1
100
AcDbLine
 10
109.1759197499998
 20
155.5330584999997
 11
106.1759197499998
 21
155.5330584999997
  0
LINE
  5
B3
100
AcDbEntity
  8
0
  6
ByLayer
 62
  256
370
   -1
100
AcDbLine
 10
109.1759197499998
 20
191.5330584999997
 11
106.1759197499998
 21
191.5330584999997
  0
LINE
  5
B4
100
AcDbEntity
  8
0
  6
ByLayer
 62
  256
370
   -1
100
AcDbLine
 10
4.175919749999821
 20
191.5330584999997
 11
1.175919749999821
 21
191.5330584999997
  0
LINE
  5
B5
100
AcDbEntity
  8
0
  6
ByLayer
 62
  256
370
   -1
100
AcDbLine
 10
4.175919749999821
 20
155.5330584999997
 11
1.175919749999821
 21
155.5330584999997
  0
LINE
  5
B6
100
AcDbEntity
  8
0
  6
ByLayer
 62
  256
370
   -1
100
AcDbLine
 10
4.175919749999821
 20
119.5330584999997
 11
1.175919749999821
 21
119.5330584999997
  0
LINE
  5
B7
100
AcDbEntity
  8
0
  6
ByLayer
 62
  256
370
   -1
100
AcDbLine
 10
4.175919749999821
 20
83.5330584999997
 11
1.175919749999821
 21
83.5330584999997
  0
LINE
  5
B8
100
AcDbEntity
  8
0
  6
ByLayer
 62
  256
370
   -1
100
AcDbLine
 10
4.175919749999821
 20
47.5330584999997
 11
1.175919749999821
 21
47.5330584999997
  0
LINE
  5
B9
100
AcDbEntity
  8
0
  6
ByLayer
 62
  256
370
   -1
100
AcDbLine
 10
106.1759197499998
 20
29.03305849999969
 11
109.1759197499998
 21
29.03305849999969
  0
LINE
  5
BA
100
AcDbEntity
  8
0
  6
ByLayer
 62
  256
370
   -1
100
AcDbLine
 10
106.1759197499998
 20
65.0330584999997
 11
109.1759197499998
 21
65.0330584999997
  0
LINE
  5
BB
100
AcDbEntity
  8
0
  6
ByLayer
 62
  256
370
   -1
100
AcDbLine
 10
106.1759197499998
 20
101.0330584999997
 11
109.1759197499998
 21
101.0330584999997
  0
LINE
  5
BC
100
AcDbEntity
  8
0
  6
ByLayer
 62
  256
370
   -1
100
AcDbLine
 10
106.1759197499998
 20
137.0330584999997
 11
109.1759197499998
 21
137.0330584999997
  0
LINE
  5
BD
100
AcDbEntity
  8
0
  6
ByLayer
 62
  256
370
   -1
100
AcDbLine
 10
106.1759197499998
 20
173.0330584999997
 11
109.1759197499998
 21
173.0330584999997
  0
LINE
  5
BE
100
AcDbEntity
  8
0
  6
ByLayer
 62
  256
370
   -1
100
AcDbLine
 10
1.175919749999821
 20
173.0330584999997
 11
4.175919749999821
 21
173.0330584999997
  0
LINE
  5
BF
100
AcDbEntity
  8
0
  6
ByLayer
 62
  256
370
   -1
100
AcDbLine
 10
1.175919749999821
 20
137.0330584999997
 11
4.175919749999821
 21
137.0330584999997
  0
LINE
  5
C0
100
AcDbEntity
  8
0
  6
ByLayer
 62
  256
370
   -1
100
AcDbLine
 10
1.175919749999821
 20
101.0330584999997
 11
4.175919749999821
 21
101.0330584999997
  0
LINE
  5
C1
100
AcDbEntity
  8
0
  6
ByLayer
 62
  256
370
   -1
100
AcDbLine
 10
1.175919749999821
 20
65.0330584999997
 11
4.175919749999821
 21
65.0330584999997
  0
LINE
  5
C2
100
AcDbEntity
  8
0
  6
ByLayer
 62
  256
370
   -1
100
AcDbLine
 10
1.175919749999821
 20
29.0330584999997
 11
4.175919749999821
 21
29.0330584999997
  0
LINE
  5
C3
100
AcDbEntity
  8
0
  6
ByLayer
 62
  256
370
   -1
100
AcDbLine
 10
4.175919749999821
 20
29.0330584999997
 11
4.175919749999821
 21
11.0330584999997
  0
LINE
  5
C4
100
AcDbEntity
  8
0
  6
ByLayer
 62
  256
370
   -1
100
AcDbLine
 10
1.175919749999821
 20
47.5330584999997
 11
1.175919749999821
 21
29.0330584999997
  0
LINE
  5
C5
100
AcDbEntity
  8
0
  6
ByLayer
 62
  256
370
   -1
100
AcDbLine
 10
4.175919749999821
 20
65.0330584999997
 11
4.175919749999821
 21
47.5330584999997
  0
LINE
  5
C6
100
AcDbEntity
  8
0
  6
ByLayer
 62
  256
370
   -1
100
AcDbLine
 10
1.175919749999821
 20
83.5330584999997
 11
1.175919749999821
 21
65.0330584999997
  0
LINE
  5
C7
100
AcDbEntity
  8
0
  6
ByLayer
 62
  256
370
   -1
100
AcDbLine
 10
4.175919749999821
 20
101.0330584999997
 11
4.175919749999821
 21
83.5330584999997
  0
LINE
  5
C8
100
AcDbEntity
  8
0
  6
ByLayer
 62
  256
370
   -1
100
AcDbLine
 10
1.175919749999821
 20
119.5330584999997
 11
1.175919749999821
 21
101.0330584999997
  0
LINE
  5
C9
100
AcDbEntity
  8
0
  6
ByLayer
 62
  256
370
   -1
100
AcDbLine
 10
4.175919749999821
 20
137.0330584999997
 11
4.175919749999821
 21
119.5330584999997
  0
LINE
  5
CA
100
AcDbEntity
  8
0
  6
ByLayer
 62
  256
370
   -1
100
AcDbLine
 10
1.175919749999821
 20
155.5330584999997
 11
1.175919749999821
 21
137.0330584999997
  0
LINE
  5
CB
100
AcDbEntity
  8
0
  6
ByLayer
 62
  256
370
   -1
100
AcDbLine
 10
4.175919749999821
 20
173.0330584999997
 11
4.175919749999821
 21
155.5330584999997
  0
LINE
  5
CC
100
AcDbEntity
  8
0
  6
ByLayer
 62
  256
370
   -1
100
AcDbLine
 10
1.175919749999821
 20
191.5330584999997
 11
1.175919749999821
 21
173.0330584999997
  0
LINE
  5
CD
100
AcDbEntity
  8
0
  6
ByLayer
 62
  256
370
   -1
100
AcDbLine
 10
4.175919749999821
 20
214.2830584999997
 11
4.175919749999821
 21
191.5330584999997
  0
LINE
  5
CE
100
AcDbEntity
  8
0
  6
ByLayer
 62
  256
370
   -1
100
AcDbLine
 10
106.1759197499998
 20
6.283058499999691
 11
106.1759197499998
 21
29.03305849999969
  0
LINE
  5
CF
100
AcDbEntity
  8
0
  6
ByLayer
 62
  256
370
   -1
100
AcDbLine
 10
109.1759197499998
 20
29.03305849999969
 11
109.1759197499998
 21
47.5330584999997
  0
LINE
  5
D0
100
AcDbEntity
  8
0
  6
ByLayer
 62
  256
370
   -1
100
AcDbLine
 10
106.1759197499998
 20
47.5330584999997
 11
106.1759197499998
 21
65.0330584999997
  0
LINE
  5
D1
100
AcDbEntity
  8
0
  6
ByLayer
 62
  256
370
   -1
100
AcDbLine
 10
109.1759197499998
 20
65.0330584999997
 11
109.1759197499998
 21
83.5330584999997
  0
LINE
  5
D2
100
AcDbEntity
  8
0
  6
ByLayer
 62
  256
370
   -1
100
AcDbLine
 10
106.1759197499998
 20
83.5330584999997
 11
106.1759197499998
 21
101.0330584999997
  0
LINE
  5
D3
100
AcDbEntity
  8
0
  6
ByLayer
 62
  256
370
   -1
100
AcDbLine
 10
109.1759197499998
 20
101.0330584999997
 11
109.1759197499998
 21
119.5330584999997
  0
LINE
  5
D4
100
AcDbEntity
  8
0
  6
ByLayer
 62
  256
370
   -1
100
AcDbLine
 10
106.1759197499998
 20
119.5330584999997
 11
106.1759197499998
 21
137.0330584999997
  0
LINE
  5
D5
100
AcDbEntity
  8
0
  6
ByLayer
 62
  256
370
   -1
100
AcDbLine
 10
109.1759197499998
 20
137.0330584999997
 11
109.1759197499998
 21
155.5330584999997
  0
LINE
  5
D6
100
AcDbEntity
  8
0
  6
ByLayer
 62
  256
370
   -1
100
AcDbLine
 10
106.1759197499998
 20
155.5330584999997
 11
106.1759197499998
 21
173.0330584999997
  0
LINE
  5
D7
100
AcDbEntity
  8
0
  6
ByLayer
 62
  256
370
   -1
100
AcDbLine
 10
109.1759197499998
 20
173.0330584999997
 11
109.1759197499998
 21
191.5330584999997
  0
LINE
  5
D8
100
AcDbEntity
  8
0
  6
ByLayer
 62
  256
370
   -1
100
AcDbLine
 10
106.1759197499998
 20
191.5330584999997
 11
106.1759197499998
 21
209.2830584999997
  0
LINE
  5
D9
100
AcDbEntity
  8
0
  6
ByLayer
 62
  256
370
   -1
100
AcDbLine
 10
46.42591974999982
 20
3.283058499999696
 11
46.42591974999982
 21
6.283058499999695
  0
LINE
  5
DA
100
AcDbEntity
  8
0
  6
ByLayer
 62
  256
370
   -1
100
AcDbLine
 10
82.42591974999982
 20
3.283058499999694
 11
82.42591974999982
 21
6.283058499999693
  0
LINE
  5
DB
100
AcDbEntity
  8
0
  6
ByLayer
 62
  256
370
   -1
100
AcDbLine
 10
82.42591974999982
 20
214.2830584999997
 11
82.42591974999982
 21
217.2830584999997
  0
LINE
  5
DC
100
AcDbEntity
  8
0
  6
ByLayer
 62
  256
370
   -1
100
AcDbLine
 10
46.42591974999982
 20
214.2830584999997
 11
46.42591974999982
 21
217.2830584999997
  0
LINE
  5
DD
100
AcDbEntity
  8
0
  6
ByLayer
 62
  256
370
   -1
100
AcDbLine
 10
27.92591974999982
 20
6.283058499999695
 11
27.92591974999982
 21
3.283058499999697
  0
LINE
  5
DE
100
AcDbEntity
  8
0
  6
ByLayer
 62
  256
370
   -1
100
AcDbLine
 10
63.92591974999982
 20
6.283058499999694
 11
63.92591974999982
 21
3.283058499999695
  0
LINE
  5
DF
100
AcDbEntity
  8
0
  6
ByLayer
 62
  256
370
   -1
100
AcDbLine
 10
63.92591974999982
 20
217.2830584999997
 11
63.92591974999982
 21
214.2830584999997
  0
LINE
  5
E0
100
AcDbEntity
  8
0
  6
ByLayer
 62
  256
370
   -1
100
AcDbLine
 10
27.92591974999982
 20
217.2830584999997
 11
27.92591974999982
 21
214.2830584999997
  0
LINE
  5
E1
100
AcDbEntity
  8
0
  6
ByLayer
 62
  256
370
   -1
100
AcDbLine
 10
27.92591974999982
 20
214.2830584999997
 11
9.925919749999821
 21
214.2830584999997
  0
LINE
  5
E2
100
AcDbEntity
  8
0
  6
ByLayer
 62
  256
370
   -1
100
AcDbLine
 10
82.42591974999982
 20
6.283058499999693
 11
100.1759197499998
 21
6.283058499999691
  0
LINE
  5
E3
100
AcDbEntity
  8
0
  6
ByLayer
 62
  256
370
   -1
100
AcDbLine
 10
63.92591974999982
 20
3.283058499999695
 11
82.42591974999982
 21
3.283058499999694
  0
LINE
  5
E4
100
AcDbEntity
  8
0
  6
ByLayer
 62
  256
370
   -1
100
AcDbLine
 10
46.42591974999982
 20
6.283058499999695
 11
63.92591974999982
 21
6.283058499999694
  0
LINE
  5
E5
100
AcDbEntity
  8
0
  6
ByLayer
 62
  256
370
   -1
100
AcDbLine
 10
27.92591974999982
 20
3.283058499999697
 11
46.42591974999982
 21
3.283058499999696
  0
LINE
  5
E6
100
AcDbEntity
  8
0
  6
ByLayer
 62
  256
370
   -1
100
AcDbLine
 10
4.175919749999821
 20
6.283058499999697
 11
27.92591974999982
 21
6.283058499999695
  0
LINE
  5
E7
100
AcDbEntity
  8
0
  6
ByLayer
 62
  256
370
   -1
100
AcDbLine
 10
46.42591974999982
 20
217.2830584999997
 11
27.92591974999982
 21
217.2830584999997
  0
LINE
  5
E8
100
AcDbEntity
  8
0
  6
ByLayer
 62
  256
370
   -1
100
AcDbLine
 10
63.92591974999982
 20
214.2830584999997
 11
46.42591974999982
 21
214.2830584999997
  0
LINE
  5
E9
100
AcDbEntity
  8
0
  6
ByLayer
 62
  256
370
   -1
100
AcDbLine
 10
82.42591974999982
 20
217.2830584999997
 11
63.92591974999982
 21
217.2830584999997
  0
LINE
  5
EA
100
AcDbEntity
  8
0
  6
ByLayer
 62
  256
370
   -1
100
AcDbLine
 10
106.1759197499998
 20
214.2830584999997
 11
82.42591974999982
 21
214.2830584999997
  0
LINE
  5
EB
100
AcDbEntity
  8
0
  6
ByLayer
 62
  256
370
   -1
100
AcDbLine
 10
277.25
 20
3.000000000000002
 11
277.25
 21
6.000000000000002
  0
LINE
  5
EC
100
AcDbEntity
  8
0
  6
ByLayer
 62
  256
370
   -1
100
AcDbLine
 10
277.25
 20
214
 11
277.25
 21
217
  0
LINE
  5
ED
100
AcDbEntity
  8
0
  6
ByLayer
 62
  256
370
   -1
100
AcDbLine
 10
234.25
 20
3.000000000000004
 11
234.25
 21
6.000000000000004
  0
LINE
  5
EE
100
AcDbEntity
  8
0
  6
ByLayer
 62
  256
370
   -1
100
AcDbLine
 10
234.25
 20
214
 11
234.25
 21
217
  0
LINE
  5
EF
100
AcDbEntity
  8
0
  6
ByLayer
 62
  256
370
   -1
100
AcDbLine
 10
294.75
 20
6.000000000000001
 11
294.75
 21
3.000000000000001
  0
LINE
  5
F0
100
AcDbEntity
  8
0
  6
ByLayer
 62
  256
370
   -1
100
AcDbLine
 10
294.75
 20
217
 11
294.75
 21
214
  0
LINE
  5
F1
100
AcDbEntity
  8
0
  6
ByLayer
 62
  256
370
   -1
100
AcDbLine
 10
251.75
 20
6.000000000000004
 11
251.75
 21
3.000000000000004
  0
LINE
  5
F2
100
AcDbEntity
  8
0
  6
ByLayer
 62
  256
370
   -1
100
AcDbLine
 10
251.75
 20
217
 11
251.75
 21
214
  0
LINE
  5
F3
100
AcDbEntity
  8
0
  6
ByLayer
 62
  256
370
   -1
100
AcDbLine
 10
234.25
 20
6.000000000000004
 11
251.75
 21
6.000000000000004
  0
LINE
  5
F4
100
AcDbEntity
  8
0
  6
ByLayer
 62
  256
370
   -1
100
AcDbLine
 10
251.75
 20
3.000000000000004
 11
263
 21
3.000000000000003
  0
LINE
  5
F5
100
AcDbEntity
  8
0
  6
ByLayer
 62
  256
370
   -1
100
AcDbLine
 10
223
 20
3.000000000000005
 11
234.25
 21
3.000000000000004
  0
LINE
  5
F6
100
AcDbEntity
  8
0
  6
ByLayer
 62
  256
370
   -1
100
AcDbLine
 10
266
 20
3.000000000000003
 11
277.25
 21
3.000000000000002
  0
LINE
  5
F7
100
AcDbEntity
  8
0
  6
ByLayer
 62
  256
370
   -1
100
AcDbLine
 10
277.25
 20
6.000000000000002
 11
294.75
 21
6.000000000000001
  0
LINE
  5
F8
100
AcDbEntity
  8
0
  6
ByLayer
 62
  256
370
   -1
100
AcDbLine
 10
294.75
 20
3.000000000000001
 11
306
 21
3
  0
LINE
  5
F9
100
AcDbEntity
  8
0
  6
ByLayer
 62
  256
370
   -1
100
AcDbLine
 10
306
 20
217
 11
294.75
 21
217
  0
LINE
  5
FA
100
AcDbEntity
  8
0
  6
ByLayer
 62
  256
370
   -1
100
AcDbLine
 10
294.75
 20
214
 11
277.25
 21
214
  0
LINE
  5
FB
100
AcDbEntity
  8
0
  6
ByLayer
 62
  256
370
   -1
100
AcDbLine
 10
277.25
 20
217
 11
266
 21
217
  0
LINE
  5
FC
100
AcDbEntity
  8
0
  6
ByLayer
 62
  256
370
   -1
100
AcDbLine
 10
263
 20
217
 11
251.75
 21
217
  0
LINE
  5
FD
100
AcDbEntity
  8
0
  6
ByLayer
 62
  256
370
   -1
100
AcDbLine
 10
234.25
 20
217
 11
223
 21
217
  0
LINE
  5
FE
100
AcDbEntity
  8
0
  6
ByLayer
 62
  256
370
   -1
100
AcDbLine
 10
251.75
 20
214
 11
234.25
 21
214
  0
LINE
  5
FF
100
AcDbEntity
  8
0
  6
ByLayer
 62
  256
370
   -1
100
AcDbLine
 10
615.9055100436185
 20
3
 11
615.9055100436185
 21
29
  0
LINE
  5
100
100
AcDbEntity
  8
0
  6
ByLayer
 62
  256
370
   -1
100
AcDbLine
 10
615.9055100436185
 20
29
 11
612.9055100436185
 21
29
  0
LINE
  5
101
100
AcDbEntity
  8
0
  6
ByLayer
 62
  256
370
   -1
100
AcDbLine
 10
612.9055100436185
 20
29
 11
612.9055100436185
 21
47
  0
LINE
  5
102
100
AcDbEntity
  8
0
  6
ByLayer
 62
  256
370
   -1
100
AcDbLine
 10
612.9055100436185
 20
47
 11
615.9055100436185
 21
47
  0
LINE
  5
103
100
AcDbEntity
  8
0
  6
ByLayer
 62
  256
370
   -1
100
AcDbLine
 10
615.9055100436185
 20
47
 11
615.9055100436185
 21
65
  0
LINE
  5
104
100
AcDbEntity
  8
0
  6
ByLayer
 62
  256
370
   -1
100
AcDbLine
 10
615.9055100436185
 20
65
 11
612.9055100436185
 21
65
  0
LINE
  5
105
100
AcDbEntity
  8
0
  6
ByLayer
 62
  256
370
   -1
100
AcDbLine
 10
612.9055100436185
 20
65
 11
612.9055100436185
 21
83
  0
LINE
  5
106
100
AcDbEntity
  8
0
  6
ByLayer
 62
  256
370
   -1
100
AcDbLine
 10
612.9055100436185
 20
83
 11
615.9055100436185
 21
83
  0
LINE
  5
107
100
AcDbEntity
  8
0
  6
ByLayer
 62
  256
370
   -1
100
AcDbLine
 10
615.9055100436185
 20
83
 11
615.9055100436185
 21
101
  0
LINE
  5
108
100
AcDbEntity
  8
0
  6
ByLayer
 62
  256
370
   -1
100
AcDbLine
 10
615.9055100436185
 20
101
 11
612.9055100436185
 21
101
  0
LINE
  5
109
100
AcDbEntity
  8
0
  6
ByLayer
 62
  256
370
   -1
100
AcDbLine
 10
612.9055100436185
 20
101
 11
612.9055100436185
 21
119
  0
LINE
  5
10A
100
AcDbEntity
  8
0
  6
ByLayer
 62
  256
370
   -1
100
AcDbLine
 10
612.9055100436185
 20
119
 11
615.9055100436185
 21
119
  0
LINE
  5
10B
100
AcDbEntity
  8
0
  6
ByLayer
 62
  256
370
   -1
100
AcDbLine
 10
615.9055100436185
 20
119
 11
615.9055100436185
 21
137
  0
LINE
  5
10C
100
AcDbEntity
  8
0
  6
ByLayer
 62
  256
370
   -1
100
AcDbLine
 10
615.9055100436185
 20
137
 11
612.9055100436185
 21
137
  0
LINE
  5
10D
100
AcDbEntity
  8
0
  6
ByLayer
 62
  256
370
   -1
100
AcDbLine
 10
612.9055100436185
 20
137
 11
612.9055100436185
 21
155
  0
LINE
  5
10E
100
AcDbEntity
  8
0
  6
ByLayer
 62
  256
370
   -1
100
AcDbLine
 10
612.9055100436185
 20
155
 11
615.9055100436185
 21
155
  0
LINE
  5
10F
100
AcDbEntity
  8
0
  6
ByLayer
 62
  256
370
   -1
100
AcDbLine
 10
615.9055100436185
 20
155
 11
615.9055100436185
 21
173
  0
LINE
  5
110
100
AcDbEntity
  8
0
  6
ByLayer
 62
  256
370
   -1
100
AcDbLine
 10
615.9055100436185
 20
173
 11
612.9055100436185
 21
173
  0
LINE
  5
111
100
AcDbEntity
  8
0
  6
ByLayer
 62
  256
370
   -1
100
AcDbLine
 10
612.9055100436185
 20
173
 11
612.9055100436185
 21
191
  0
LINE
  5
112
100
AcDbEntity
  8
0
  6
ByLayer
 62
  256
370
   -1
100
AcDbLine
 10
612.9055100436185
 20
191
 11
615.9055100436185
 21
191
  0
LINE
  5
113
100
AcDbEntity
  8
0
  6
ByLayer
 62
  256
370
   -1
100
AcDbLine
 10
615.9055100436185
 20
191
 11
615.9055100436185
 21
209
  0
LINE
  5
114
100
AcDbEntity
  8
0
  6
ByLayer
 62
  256
370
   -1
100
AcDbLine
 10
615.9055100436185
 20
209
 11
615.9055100436185
 21
217
  0
LINE
  5
115
100
AcDbEntity
  8
0
  6
ByLayer
 62
  256
370
   -1
100
AcDbLine
 10
575.9055100436185
 20
217
 11
575.9055100436185
 21
3.000000000000003
  0
LINE
  5
116
100
AcDbEntity
  8
0
  6
ByLayer
 62
  256
370
   -1
100
AcDbLine
 10
575.9055100436185
 20
223
 11
586.9055100436185
 21
223
  0
LINE
  5
117
100
AcDbEntity
  8
0
  6
ByLayer
 62
  256
370
   -1
100
AcDbLine
 10
586.9055100436185
 20
223
 11
586.9055100436185
 21
220
  0
LINE
  5
118
100
AcDbEntity
  8
0
  6
ByLayer
 62
  256
370
   -1
100
AcDbLine
 10
586.9055100436185
 20
220
 11
604.9055100436185
 21
220
  0
LINE
  5
119
100
AcDbEntity
  8
0
  6
ByLayer
 62
  256
370
   -1
100
AcDbLine
 10
604.9055100436185
 20
220
 11
604.9055100436185
 21
223
  0
LINE
  5
11A
100
AcDbEntity
  8
0
  6
ByLayer
 62
  256
370
   -1
100
AcDbLine
 10
604.9055100436185
 20
223
 11
615.9055100436185
 21
223
  0
LINE
  5
11B
100
AcDbEntity
  8
0
  6
ByLayer
 62
  256
370
   -1
100
AcDbLine
 10
615.9055100436185
 20
223
 11
615.9055100436185
 21
247
  0
LINE
  5
11C
100
AcDbEntity
  8
0
  6
ByLayer
 62
  256
370
   -1
100
AcDbLine
 10
615.9055100436185
 20
247
 11
612.9055100436185
 21
247
  0
LINE
  5
11D
100
AcDbEntity
  8
0
  6
ByLayer
 62
  256
370
   -1
100
AcDbLine
 10
612.9055100436185
 20
247
 11
612.9055100436185
 21
265
  0
LINE
  5
11E
100
AcDbEntity
  8
0
  6
ByLayer
 62
  256
370
   -1
100
AcDbLine
 10
612.9055100436185
 20
265
 11
615.9055100436185
 21
265
  0
LINE
  5
11F
100
AcDbEntity
  8
0
  6
ByLayer
 62
  256
370
   -1
100
AcDbLine
 10
615.9055100436185
 20
265
 11
615.9055100436185
 21
283
  0
LINE
  5
120
100
AcDbEntity
  8
0
  6
ByLayer
 62
  256
370
   -1
100
AcDbLine
 10
615.9055100436185
 20
283
 11
612.9055100436185
 21
283
  0
LINE
  5
121
100
AcDbEntity
  8
0
  6
ByLayer
 62
  256
370
   -1
100
AcDbLine
 10
612.9055100436185
 20
283
 11
612.9055100436185
 21
301
  0
LINE
  5
122
100
AcDbEntity
  8
0
  6
ByLayer
 62
  256
370
   -1
100
AcDbLine
 10
612.9055100436185
 20
301
 11
615.9055100436185
 21
301
  0
LINE
  5
123
100
AcDbEntity
  8
0
  6
ByLayer
 62
  256
370
   -1
100
AcDbLine
 10
615.9055100436185
 20
301
 11
615.9055100436185
 21
319
  0
LINE
  5
124
100
AcDbEntity
  8
0
  6
ByLayer
 62
  256
370
   -1
100
AcDbLine
 10
615.9055100436185
 20
319
 11
615.9055100436185
 21
325
  0
LINE
  5
125
100
AcDbEntity
  8
0
  6
ByLayer
 62
  256
370
   -1
100
AcDbLine
 10
615.9055100436185
 20
325
 11
604.9055100436185
 21
325
  0
LINE
  5
126
100
AcDbEntity
  8
0
  6
ByLayer
 62
  256
370
   -1
100
AcDbLine
 10
604.9055100436185
 20
325
 11
604.9055100436185
 21
328
  0
LINE
  5
127
100
AcDbEntity
  8
0
  6
ByLayer
 62
  256
370
   -1
100
AcDbLine
 10
604.9055100436185
 20
328
 11
586.9055100436185
 21
328
  0
LINE
  5
128
100
AcDbEntity
  8
0
  6
ByLayer
 62
  256
370
   -1
100
AcDbLine
 10
586.9055100436185
 20
328
 11
586.9055100436185
 21
325
  0
LINE
  5
129
100
AcDbEntity
  8
0
  6
ByLayer
 62
  256
370
   -1
100
AcDbLine
 10
586.9055100436185
 20
325
 11
575.9055100436185
 21
325
  0
LINE
  5
12A
100
AcDbEntity
  8
0
  6
ByLayer
 62
  256
370
   -1
100
AcDbLine
 10
575.9055100436185
 20
325
 11
575.9055100436185
 21
223
  0
LINE
  5
12B
100
AcDbEntity
  8
0
  6
ByLayer
 62
  256
370
   -1
100
AcDbLine
 10
572.9055100436185
 20
3.000000000000003
 11
572.9055100436185
 21
29
  0
LINE
  5
12C
100
AcDbEntity
  8
0
  6
ByLayer
 62
  256
370
   -1
100
AcDbLine
 10
572.9055100436185
 20
29
 11
569.9055100436185
 21
29
  0
LINE
  5
12D
100
AcDbEntity
  8
0
  6
ByLayer
 62
  256
370
   -1
100
AcDbLine
 10
569.9055100436185
 20
29
 11
569.9055100436185
 21
47
  0
LINE
  5
12E
100
AcDbEntity
  8
0
  6
ByLayer
 62
  256
370
   -1
100
AcDbLine
 10
569.9055100436185
 20
47
 11
572.9055100436185
 21
47
  0
LINE
  5
12F
100
AcDbEntity
  8
0
  6
ByLayer
 62
  256
370
   -1
100
AcDbLine
 10
572.9055100436185
 20
47
 11
572.9055100436185
 21
65
  0
LINE
  5
130
100
AcDbEntity
  8
0
  6
ByLayer
 62
  256
370
   -1
100
AcDbLine
 10
572.9055100436185
 20
65
 11
569.9055100436185
 21
65
  0
LINE
  5
131
100
AcDbEntity
  8
0
  6
ByLayer
 62
  256
370
   -1
100
AcDbLine
 10
569.9055100436185
 20
65
 11
569.9055100436185
 21
83
  0
LINE
  5
132
100
AcDbEntity
  8
0
  6
ByLayer
 62
  256
370
   -1
100
AcDbLine
 10
569.9055100436185
 20
83
 11
572.9055100436185
 21
83
  0
LINE
  5
133
100
AcDbEntity
  8
0
  6
ByLayer
 62
  256
370
   -1
100
AcDbLine
 10
572.9055100436185
 20
83
 11
572.9055100436185
 21
101
  0
LINE
  5
134
100
AcDbEntity
  8
0
  6
ByLayer
 62
  256
370
   -1
100
AcDbLine
 10
572.9055100436185
 20
101
 11
569.9055100436185
 21
101
  0
LINE
  5
135
100
AcDbEntity
  8
0
  6
ByLayer
 62
  256
370
   -1
100
AcDbLine
 10
569.9055100436185
 20
101
 11
569.9055100436185
 21
119
  0
LINE
  5
136
100
AcDbEntity
  8
0
  6
ByLayer
 62
  256
370
   -1
100
AcDbLine
 10
569.9055100436185
 20
119
 11
572.9055100436185
 21
119
  0
LINE
  5
137
100
AcDbEntity
  8
0
  6
ByLayer
 62
  256
370
   -1
100
AcDbLine
 10
572.9055100436185
 20
119
 11
572.9055100436185
 21
137
  0
LINE
  5
138
100
AcDbEntity
  8
0
  6
ByLayer
 62
  256
370
   -1
100
AcDbLine
 10
572.9055100436185
 20
137
 11
569.9055100436185
 21
137
  0
LINE
  5
139
100
AcDbEntity
  8
0
  6
ByLayer
 62
  256
370
   -1
100
AcDbLine
 10
569.9055100436185
 20
137
 11
569.9055100436185
 21
155
  0
LINE
  5
13A
100
AcDbEntity
  8
0
  6
ByLayer
 62
  256
370
   -1
100
AcDbLine
 10
569.9055100436185
 20
155
 11
572.9055100436185
 21
155
  0
LINE
  5
13B
100
AcDbEntity
  8
0
  6
ByLayer
 62
  256
370
   -1
100
AcDbLine
 10
572.9055100436185
 20
155
 11
572.9055100436185
 21
173
  0
LINE
  5
13C
100
AcDbEntity
  8
0
  6
ByLayer
 62
  256
370
   -1
100
AcDbLine
 10
572.9055100436185
 20
173
 11
569.9055100436185
 21
173
  0
LINE
  5
13D
100
AcDbEntity
  8
0
  6
ByLayer
 62
  256
370
   -1
100
AcDbLine
 10
569.9055100436185
 20
173
 11
569.9055100436185
 21
191
  0
LINE
  5
13E
100
AcDbEntity
  8
0
  6
ByLayer
 62
  256
370
   -1
100
AcDbLine
 10
569.9055100436185
 20
191
 11
572.9055100436185
 21
191
  0
LINE
  5
13F
100
AcDbEntity
  8
0
  6
ByLayer
 62
  256
370
   -1
100
AcDbLine
 10
572.9055100436185
 20
191
 11
572.9055100436185
 21
209
  0
LINE
  5
140
100
AcDbEntity
  8
0
  6
ByLayer
 62
  256
370
   -1
100
AcDbLine
 10
572.9055100436185
 20
209
 11
572.9055100436185
 21
217
  0
LINE
  5
141
100
AcDbEntity
  8
0
  6
ByLayer
 62
  256
370
   -1
100
AcDbLine
 10
532.9055100436185
 20
223
 11
543.9055100436185
 21
223
  0
LINE
  5
142
100
AcDbEntity
  8
0
  6
ByLayer
 62
  256
370
   -1
100
AcDbLine
 10
543.9055100436185
 20
223
 11
543.9055100436185
 21
220
  0
LINE
  5
143
100
AcDbEntity
  8
0
  6
ByLayer
 62
  256
370
   -1
100
AcDbLine
 10
543.9055100436185
 20
220
 11
561.9055100436185
 21
220
  0
LINE
  5
144
100
AcDbEntity
  8
0
  6
ByLayer
 62
  256
370
   -1
100
AcDbLine
 10
561.9055100436185
 20
220
 11
561.9055100436185
 21
223
  0
LINE
  5
145
100
AcDbEntity
  8
0
  6
ByLayer
 62
  256
370
   -1
100
AcDbLine
 10
561.9055100436185
 20
223
 11
572.9055100436185
 21
223
  0
LINE
  5
146
100
AcDbEntity
  8
0
  6
ByLayer
 62
  256
370
   -1
100
AcDbLine
 10
572.9055100436185
 20
223
 11
572.9055100436185
 21
247
  0
LINE
  5
147
100
AcDbEntity
  8
0
  6
ByLayer
 62
  256
370
   -1
100
AcDbLine
 10
572.9055100436185
 20
247
 11
569.9055100436185
 21
247
  0
LINE
  5
148
100
AcDbEntity
  8
0
  6
ByLayer
 62
  256
370
   -1
100
AcDbLine
 10
569.9055100436185
 20
247
 11
569.9055100436185
 21
265
  0
LINE
  5
149
100
AcDbEntity
  8
0
  6
ByLayer
 62
  256
370
   -1
100
AcDbLine
 10
569.9055100436185
 20
265
 11
572.9055100436185
 21
265
  0
LINE
  5
14A
100
AcDbEntity
  8
0
  6
ByLayer
 62
  256
370
   -1
100
AcDbLine
 10
572.9055100436185
 20
265
 11
572.9055100436185
 21
283
  0
LINE
  5
14B
100
AcDbEntity
  8
0
  6
ByLayer
 62
  256
370
   -1
100
AcDbLine
 10
572.9055100436185
 20
283
 11
569.9055100436185
 21
283
  0
LINE
  5
14C
100
AcDbEntity
  8
0
  6
ByLayer
 62
  256
370
   -1
100
AcDbLine
 10
569.9055100436185
 20
283
 11
569.9055100436185
 21
301
  0
LINE
  5
14D
100
AcDbEntity
  8
0
  6
ByLayer
 62
  256
370
   -1
100
AcDbLine
 10
569.9055100436185
 20
301
 11
572.9055100436185
 21
301
  0
LINE
  5
14E
100
AcDbEntity
  8
0
  6
ByLayer
 62
  256
370
   -1
100
AcDbLine
 10
572.9055100436185
 20
301
 11
572.9055100436185
 21
319
  0
LINE
  5
14F
100
AcDbEntity
  8
0
  6
ByLayer
 62
  256
370
   -1
100
AcDbLine
 10
572.9055100436185
 20
319
 11
572.9055100436185
 21
325
  0
LINE
  5
150
100
AcDbEntity
  8
0
  6
ByLayer
 62
  256
370
   -1
100
AcDbLine
 10
572.9055100436185
 20
325
 11
561.9055100436185
 21
325
  0
LINE
  5
151
100
AcDbEntity
  8
0
  6
ByLayer
 62
  256
370
   -1
100
AcDbLine
 10
561.9055100436185
 20
325
 11
561.9055100436185
 21
328
  0
LINE
  5
152
100
AcDbEntity
  8
0
  6
ByLayer
 62
  256
370
   -1
100
AcDbLine
 10
561.9055100436185
 20
328
 11
543.9055100436185
 21
328
  0
LINE
  5
153
100
AcDbEntity
  8
0
  6
ByLayer
 62
  256
370
   -1
100
AcDbLine
 10
543.9055100436185
 20
328
 11
543.9055100436185
 21
325
  0
LINE
  5
154
100
AcDbEntity
  8
0
  6
ByLayer
 62
  256
370
   -1
100
AcDbLine
 10
543.9055100436185
 20
325
 11
532.9055100436185
 21
325
  0
LINE
  5
155
100
AcDbEntity
  8
0
  6
ByLayer
 62
  256
370
   -1
100
AcDbLine
 10
532.9055100436185
 20
325
 11
532.9055100436185
 21
223
  0
LWPOLYLINE
  5
156
100
AcDbEntity
  8
0
  6
ByLayer
 62
  256
370
   -1
100
AcDbPolyline
 90
    4
 70
    1
 43
0
 10
529.9055100436185
 20
3.000000000000005
 10
529.9055100436185
 20
217
 10
421.9055100436186
 20
217
 10
421.9055100436186
 20
3.000000000000012
  0
LWPOLYLINE
  5
157
100
AcDbEntity
  8
0
  6
ByLayer
 62
  256
370
   -1
100
AcDbPolyline
 90
    4
 70
    1
 43
0
 10
529.9055100436185
 20
220
 10
529.9055100436185
 20
322
 10
321.9055100436186
 20
322
 10
321.9055100436186
 20
220
  0
LINE
  5
158
100
AcDbEntity
  8
0
  6
ByLayer
 62
  256
370
   -1
100
AcDbLine
 10
410.0814297936184
 20
6.283058499999691
 11
416.0814297936184
 21
6.283058499999691
  0
LINE
  5
159
100
AcDbEntity
  8
0
  6
ByLayer
 62
  256
370
   -1
100
AcDbLine
 10
416.0814297936184
 20
209.2830584999997
 11
416.0814297936184
 21
214.2830584999997
  0
LINE
  5
15A
100
AcDbEntity
  8
0
  6
ByLayer
 62
  256
370
   -1
100
AcDbLine
 10
320.0814297936184
 20
214.2830584999997
 11
314.0814297936184
 21
214.2830584999997
  0
LINE
  5
15B
100
AcDbEntity
  8
0
  6
ByLayer
 62
  256
370
   -1
100
AcDbLine
 10
314.0814297936184
 20
11.2830584999997
 11
314.0814297936184
 21
6.283058499999697
  0
LINE
  5
15C
100
AcDbEntity
  8
0
  6
ByLayer
 62
  256
370
   -1
100
AcDbLine
 10
532.9055100436185
 20
100.0000000000002
 11
532.9055100436185
 21
3.000000000000005
  0
LINE
  5
15D
100
AcDbEntity
  8
0
  6
ByLayer
 62
  256
370
   -1
100
AcDbLine
 10
532.9055100436185
 20
217
 11
532.9055100436185
 21
120.0000000000003
  0
ARC
  5
15E
100
AcDbEntity
  8
0
  6
ByLayer
 62
  256
370
   -1
100
AcDbCircle
 10
532.9055100436185
 20
110
 40
10
100
AcDbArc
 50
270
 51
90.0000000000001
  0
LINE
  5
15F
100
AcDbEntity
  8
0
  6
ByLayer
 62
  256
370
   -1
100
AcDbLine
 10
419.0814297936184
 20
47.5330584999997
 11
416.0814297936184
 21
47.5330584999997
  0
LINE
  5
160
100
AcDbEntity
  8
0
  6
ByLayer
 62
  256
370
   -1
100
AcDbLine
 10
419.0814297936184
 20
83.5330584999997
 11
416.0814297936184
 21
83.5330584999997
  0
LINE
  5
161
100
AcDbEntity
  8
0
  6
ByLayer
 62
  256
370
   -1
100
AcDbLine
 10
419.0814297936184
 20
119.5330584999997
 11
416.0814297936184
 21
119.5330584999997
  0
LINE
  5
162
100
AcDbEntity
  8
0
  6
ByLayer
 62
  256
370
   -1
100
AcDbLine
 10
419.0814297936184
 20
155.5330584999997
 11
416.0814297936184
 21
155.5330584999997
  0
LINE
  5
163
100
AcDbEntity
  8
0
  6
ByLayer
 62
  256
370
   -1
100
AcDbLine
 10
419.0814297936184
 20
191.5330584999997
 11
416.0814297936184
 21
191.5330584999997
  0
LINE
  5
164
100
AcDbEntity
  8
0
  6
ByLayer
 62
  256
370
   -1
100
AcDbLine
 10
314.0814297936184
 20
191.5330584999997
 11
311.0814297936184
 21
191.5330584999997
  0
LINE
  5
165
100
AcDbEntity
  8
0
  6
ByLayer
 62
  256
370
   -1
100
AcDbLine
 10
314.0814297936184
 20
155.5330584999997
 11
311.0814297936184
 21
155.5330584999997
  0
LINE
  5
166
100
AcDbEntity
  8
0
  6
ByLayer
 62
  256
370
   -1
100
AcDbLine
 10
314.0814297936184
 20
119.5330584999997
 11
311.0814297936184
 21
119.5330584999997
  0
LINE
  5
167
100
AcDbEntity
  8
0
  6
ByLayer
 62
  256
370
   -1
100
AcDbLine
 10
314.0814297936184
 20
83.5330584999997
 11
311.0814297936184
 21
83.5330584999997
  0
LINE
  5
168
100
AcDbEntity
  8
0
  6
ByLayer
 62
  256
370
   -1
100
AcDbLine
 10
314.0814297936184
 20
47.5330584999997
 11
311.0814297936184
 21
47.5330584999997
  0
LINE
  5
169
100
AcDbEntity
  8
0
  6
ByLayer
 62
  256
370
   -1
100
AcDbLine
 10
416.0814297936184
 20
29.03305849999969
 11
419.0814297936184
 21
29.03305849999969
  0
LINE
  5
16A
100
AcDbEntity
  8
0
  6
ByLayer
 62
  256
370
   -1
100
AcDbLine
 10
416.0814297936184
 20
65.0330584999997
 11
419.0814297936184
 21
65.0330584999997
  0
LINE
  5
16B
100
AcDbEntity
  8
0
  6
ByLayer
 62
  256
370
   -1
100
AcDbLine
 10
416.0814297936184
 20
101.0330584999997
 11
419.0814297936184
 21
101.0330584999997
  0
LINE
  5
16C
100
AcDbEntity
  8
0
  6
ByLayer
 62
  256
370
   -1
100
AcDbLine
 10
416.0814297936184
 20
137.0330584999997
 11
419.0814297936184
 21
137.0330584999997
  0
LINE
  5
16D
100
AcDbEntity
  8
0
  6
ByLayer
 62
  256
370
   -1
100
AcDbLine
 10
416.0814297936184
 20
173.0330584999997
 11
419.0814297936184
 21
173.0330584999997
  0
LINE
  5
16E
100
AcDbEntity
  8
0
  6
ByLayer
 62
  256
370
   -1
100
AcDbLine
 10
311.0814297936184
 20
173.0330584999997
 11
314.0814297936184
 21
173.0330584999997
  0
LINE
  5
16F
100
AcDbEntity
  8
0
  6
ByLayer
 62
  256
370
   -1
100
AcDbLine
 10
311.0814297936184
 20
137.0330584999997
 11
314.0814297936184
 21
137.0330584999997
  0
LINE
  5
170
100
AcDbEntity
  8
0
  6
ByLayer
 62
  256
370
   -1
100
AcDbLine
 10
311.0814297936184
 20
101.0330584999997
 11
314.0814297936184
 21
101.0330584999997
  0
LINE
  5
171
100
AcDbEntity
  8
0
  6
ByLayer
 62
  256
370
   -1
100
AcDbLine
 10
311.0814297936184
 20
65.0330584999997
 11
314.0814297936184
 21
65.0330584999997
  0
LINE
  5
172
100
AcDbEntity
  8
0
  6
ByLayer
 62
  256
370
   -1
100
AcDbLine
 10
311.0814297936184
 20
29.0330584999997
 11
314.0814297936184
 21
29.0330584999997
  0
LINE
  5
173
100
AcDbEntity
  8
0
  6
ByLayer
 62
  256
370
   -1
100
AcDbLine
 10
314.0814297936184
 20
29.0330584999997
 11
314.0814297936184
 21
11.0330584999997
  0
LINE
  5
174
100
AcDbEntity
  8
0
  6
ByLayer
 62
  256
370
   -1
100
AcDbLine
 10
311.0814297936184
 20
47.5330584999997
 11
311.0814297936184
 21
29.0330584999997
  0
LINE
  5
175
100
AcDbEntity
  8
0
  6
ByLayer
 62
  256
370
   -1
100
AcDbLine
 10
314.0814297936184
 20
65.0330584999997
 11
314.0814297936184
 21
47.5330584999997
  0
LINE
  5
176
100
AcDbEntity
  8
0
  6
ByLayer
 62
  256
370
   -1
100
AcDbLine
 10
311.0814297936184
 20
83.5330584999997
 11
311.0814297936184
 21
65.0330584999997
  0
LINE
  5
177
100
AcDbEntity
  8
0
  6
ByLayer
 62
  256
370
   -1
100
AcDbLine
 10
314.0814297936184
 20
101.0330584999997
 11
314.0814297936184
 21
83.5330584999997
  0
LINE
  5
178
100
AcDbEntity
  8
0
  6
ByLayer
 62
  256
370
   -1
100
AcDbLine
 10
311.0814297936184
 20
119.5330584999997
 11
311.0814297936184
 21
101.0330584999997
  0
LINE
  5
179
100
AcDbEntity
  8
0
  6
ByLayer
 62
  256
370
   -1
100
AcDbLine
 10
314.0814297936184
 20
137.0330584999997
 11
314.0814297936184
 21
119.5330584999997
  0
LINE
  5
17A
100
AcDbEntity
  8
0
  6
ByLayer
 62
  256
370
   -1
100
AcDbLine
 10
311.0814297936184
 20
155.5330584999997
 11
311.0814297936184
 21
137.0330584999997
  0
LINE
  5
17B
100
AcDbEntity
  8
0
  6
ByLayer
 62
  256
370
   -1
100
AcDbLine
 10
314.0814297936184
 20
173.0330584999997
 11
314.0814297936184
 21
155.5330584999997
  0
LINE
  5
17C
100
AcDbEntity
  8
0
  6
ByLayer
 62
  256
370
   -1
100
AcDbLine
 10
311.0814297936184
 20
191.5330584999997
 11
311.0814297936184
 21
173.0330584999997
  0
LINE
  5
17D
100
AcDbEntity
  8
0
  6
ByLayer
 62
  256
370
   -1
100
AcDbLine
 10
314.0814297936184
 20
214.2830584999997
 11
314.0814297936184
 21
191.5330584999997
  0
LINE
  5
17E
100
AcDbEntity
  8
0
  6
ByLayer
 62
  256
370
   -1
100
AcDbLine
 10
416.0814297936184
 20
6.283058499999691
 11
416.0814297936184
 21
29.03305849999969
  0
LINE
  5
17F
100
AcDbEntity
  8
0
  6
ByLayer
 62
  256
370
   -1
100
AcDbLine
 10
419.0814297936184
 20
29.03305849999969
 11
419.0814297936184
 21
47.5330584999997
  0
LINE
  5
180
100
AcDbEntity
  8
0
  6
ByLayer
 62
  256
370
   -1
100
AcDbLine
 10
416.0814297936184
 20
47.5330584999997
 11
416.0814297936184
 21
65.0330584999997
  0
LINE
  5
181
100
AcDbEntity
  8
0
  6
ByLayer
 62
  256
370
   -1
100
AcDbLine
 10
419.0814297936184
 20
65.0330584999997
 11
419.0814297936184
 21
83.5330584999997
  0
LINE
  5
182
100
AcDbEntity
  8
0
  6
ByLayer
 62
  256
370
   -1
100
AcDbLine
 10
416.0814297936184
 20
83.5330584999997
 11
416.0814297936184
 21
101.0330584999997
  0
LINE
  5
183
100
AcDbEntity
  8
0
  6
ByLayer
 62
  256
370
   -1
100
AcDbLine
 10
419.0814297936184
 20
101.0330584999997
 11
419.0814297936184
 21
119.5330584999997
  0
LINE
  5
184
100
AcDbEntity
  8
0
  6
ByLayer
 62
  256
370
   -1
100
AcDbLine
 10
416.0814297936184
 20
119.5330584999997
 11
416.0814297936184
 21
137.0330584999997
  0
LINE
  5
185
100
AcDbEntity
  8
0
  6
ByLayer
 62
  256
370
   -1
100
AcDbLine
 10
419.0814297936184
 20
137.0330584999997
 11
419.0814297936184
 21
155.5330584999997
  0
LINE
  5
186
100
AcDbEntity
  8
0
  6
ByLayer
 62
  256
370
   -1
100
AcDbLine
 10
416.0814297936184
 20
155.5330584999997
 11
416.0814297936184
 21
173.0330584999997
  0
LINE
  5
187
100
AcDbEntity
  8
0
  6
ByLayer
 62
  256
370
   -1
100
AcDbLine
 10
419.0814297936184
 20
173.0330584999997
 11
419.0814297936184
 21
191.5330584999997
  0
LINE
  5
188
100
AcDbEntity
  8
0
  6
ByLayer
 62
  256
370
   -1
100
AcDbLine
 10
416.0814297936184
 20
191.5330584999997
 11
416.0814297936184
 21
209.2830584999997
  0
LINE
  5
189
100
AcDbEntity
  8
0
  6
ByLayer
 62
  256
370
   -1
100
AcDbLine
 10
356.3314297936184
 20
3.283058499999696
 11
356.3314297936184
 21
6.283058499999695
  0
LINE
  5
18A
100
AcDbEntity
  8
0
  6
ByLayer
 62
  256
370
   -1
100
AcDbLine
 10
392.3314297936184
 20
3.283058499999694
 11
392.3314297936184
 21
6.283058499999693
  0
LINE
  5
18B
100
AcDbEntity
  8
0
  6
ByLayer
 62
  256
370
   -1
100
AcDbLine
 10
392.3314297936184
 20
214.2830584999997
 11
392.3314297936184
 21
217.2830584999997
  0
LINE
  5
18C
100
AcDbEntity
  8
0
  6
ByLayer
 62
  256
370
   -1
100
AcDbLine
 10
356.3314297936184
 20
214.2830584999997
 11
356.3314297936184
 21
217.2830584999997
  0
LINE
  5
18D
100
AcDbEntity
  8
0
  6
ByLayer
 62
  256
370
   -1
100
AcDbLine
 10
337.8314297936184
 20
6.283058499999695
 11
337.8314297936184
 21
3.283058499999697
  0
LINE
  5
18E
100
AcDbEntity
  8
0
  6
ByLayer
 62
  256
370
   -1
100
AcDbLine
 10
373.8314297936184
 20
6.283058499999694
 11
373.8314297936184
 21
3.283058499999695
  0
LINE
  5
18F
100
AcDbEntity
  8
0
  6
ByLayer
 62
  256
370
   -1
100
AcDbLine
 10
373.8314297936184
 20
217.2830584999997
 11
373.8314297936184
 21
214.2830584999997
  0
LINE
  5
190
100
AcDbEntity
  8
0
  6
ByLayer
 62
  256
370
   -1
100
AcDbLine
 10
337.8314297936184
 20
217.2830584999997
 11
337.8314297936184
 21
214.2830584999997
  0
LINE
  5
191
100
AcDbEntity
  8
0
  6
ByLayer
 62
  256
370
   -1
100
AcDbLine
 10
337.8314297936184
 20
214.2830584999997
 11
319.8314297936184
 21
214.2830584999997
  0
LINE
  5
192
100
AcDbEntity
  8
0
  6
ByLayer
 62
  256
370
   -1
100
AcDbLine
 10
392.3314297936184
 20
6.283058499999693
 11
410.0814297936184
 21
6.283058499999691
  0
LINE
  5
193
100
AcDbEntity
  8
0
  6
ByLayer
 62
  256
370
   -1
100
AcDbLine
 10
373.8314297936184
 20
3.283058499999695
 11
392.3314297936184
 21
3.283058499999694
  0
LINE
  5
194
100
AcDbEntity
  8
0
  6
ByLayer
 62
  256
370
   -1
100
AcDbLine
 10
356.3314297936184
 20
6.283058499999695
 11
373.8314297936184
 21
6.283058499999694
  0
LINE
  5
195
100
AcDbEntity
  8
0
  6
ByLayer
 62
  256
370
   -1
100
AcDbLine
 10
337.8314297936184
 20
3.283058499999697
 11
356.3314297936184
 21
3.283058499999696
  0
LINE
  5
196
100
AcDbEntity
  8
0
  6
ByLayer
 62
  256
370
   -1
100
AcDbLine
 10
314.0814297936184
 20
6.283058499999697
 11
337.8314297936184
 21
6.283058499999695
  0
LINE
  5
197
100
AcDbEntity
  8
0
  6
ByLayer
 62
  256
370
   -1
100
AcDbLine
 10
356.3314297936184
 20
217.2830584999997
 11
337.8314297936184
 21
217.2830584999997
  0
LINE
  5
198
100
AcDbEntity
  8
0
  6
ByLayer
 62
  256
370
   -1
100
AcDbLine
 10
373.8314297936184
 20
214.2830584999997
 11
356.3314297936184
 21
214.2830584999997
  0
LINE
  5
199
100
AcDbEntity
  8
0
  6
ByLayer
 62
  256
370
   -1
100
AcDbLine
 10
392.3314297936184
 20
217.2830584999997
 11
373.8314297936184
 21
217.2830584999997
  0
LINE
  5
19A
100
AcDbEntity
  8
0
  6
ByLayer
 62
  256
370
   -1
100
AcDbLine
 10
416.0814297936184
 20
214.2830584999997
 11
392.3314297936184
 21
214.2830584999997
  0
LINE
  5
19B
100
AcDbEntity
  8
0
  6
ByLayer
 62
  256
370
   -1
100
AcDbLine
 10
587.1555100436185
 20
3.000000000000002
 11
587.1555100436185
 21
6.000000000000002
  0
LINE
  5
19C
100
AcDbEntity
  8
0
  6
ByLayer
 62
  256
370
   -1
100
AcDbLine
 10
587.1555100436185
 20
214
 11
587.1555100436185
 21
217
  0
LINE
  5
19D
100
AcDbEntity
  8
0
  6
ByLayer
 62
  256
370
   -1
100
AcDbLine
 10
544.1555100436185
 20
3.000000000000004
 11
544.1555100436185
 21
6.000000000000004
  0
LINE
  5
19E
100
AcDbEntity
  8
0
  6
ByLayer
 62
  256
370
   -1
100
AcDbLine
 10
544.1555100436185
 20
214
 11
544.1555100436185
 21
217
  0
LINE
  5
19F
100
AcDbEntity
  8
0
  6
ByLayer
 62
  256
370
   -1
100
AcDbLine
 10
604.6555100436185
 20
6.000000000000001
 11
604.6555100436185
 21
3.000000000000001
  0
LINE
  5
1A0
100
AcDbEntity
  8
0
  6
ByLayer
 62
  256
370
   -1
100
AcDbLine
 10
604.6555100436185
 20
217
 11
604.6555100436185
 21
214
  0
LINE
  5
1A1
100
AcDbEntity
  8
0
  6
ByLayer
 62
  256
370
   -1
100
AcDbLine
 10
561.6555100436185
 20
6.000000000000004
 11
561.6555100436185
 21
3.000000000000004
  0
LINE
  5
1A2
100
AcDbEntity
  8
0
  6
ByLayer
 62
  256
370
   -1
100
AcDbLine
 10
561.6555100436185
 20
217
 11
561.6555100436185
 21
214
  0
LINE
  5
1A3
100
AcDbEntity
  8
0
  6
ByLayer
 62
  256
370
   -1
100
AcDbLine
 10
544.1555100436185
 20
6.000000000000004
 11
561.6555100436185
 21
6.000000000000004
  0
LINE
  5
1A4
100
AcDbEntity
  8
0
  6
ByLayer
 62
  256
370
   -1
100
AcDbLine
 10
561.6555100436185
 20
3.000000000000004
 11
572.9055100436185
 21
3.000000000000003
  0
LINE
  5
1A5
100
AcDbEntity
  8
0
  6
ByLayer
 62
  256
370
   -1
100
AcDbLine
 10
532.9055100436185
 20
3.000000000000005
 11
544.1555100436185
 21
3.000000000000004
  0
LINE
  5
1A6
100
AcDbEntity
  8
0
  6
ByLayer
 62
  256
370
   -1
100
AcDbLine
 10
575.9055100436185
 20
3.000000000000003
 11
587.1555100436185
 21
3.000000000000002
  0
LINE
  5
1A7
100
AcDbEntity
  8
0
  6
ByLayer
 62
  256
370
   -1
100
AcDbLine
 10
587.1555100436185
 20
6.000000000000002
 11
604.6555100436185
 21
6.000000000000001
  0
LINE
  5
1A8
100
AcDbEntity
  8
0
  6
ByLayer
 62
  256
370
   -1
100
AcDbLine
 10
604.6555100436185
 20
3.000000000000001
 11
615.9055100436185
 21
3
  0
LINE
  5
1A9
100
AcDbEntity
  8
0
  6
ByLayer
 62
  256
370
   -1
100
AcDbLine
 10
615.9055100436185
 20
217
 11
604.6555100436185
 21
217
  0
LINE
  5
1AA
100
AcDbEntity
  8
0
  6
ByLayer
 62
  256
370
   -1
100
AcDbLine
 10
604.6555100436185
 20
214
 11
587.1555100436185
 21
214
  0
LINE
  5
1AB
100
AcDbEntity
  8
0
  6
ByLayer
 62
  256
370
   -1
100
AcDbLine
 10
587.1555100436185
 20
217
 11
575.9055100436185
 21
217
  0
LINE
  5
1AC
100
AcDbEntity
  8
0
  6
ByLayer
 62
  256
370
   -1
100
AcDbLine
 10
572.9055100436185
 20
217
 11
561.6555100436185
 21
217
  0
LINE
  5
1AD
100
AcDbEntity
  8
0
  6
ByLayer
 62
  256
370
   -1
100
AcDbLine
 10
544.1555100436185
 20
217
 11
532.9055100436185
 21
217
  0
LINE
  5
1AE
100
AcDbEntity
  8
0
  6
ByLayer
 62
  256
370
   -1
100
AcDbLine
 10
561.6555100436185
 20
214
 11
544.1555100436185
 21
214
  0
LINE
  5
1AF
100
AcDbEntity
  8
0
  6
ByLayer
 62
  256
370
   -1
100
AcDbLine
 10
882.5342151298864
 20
3.000000000000003
 11
882.5342151298864
 21
29
  0
LINE
  5
1B0
100
AcDbEntity
  8
0
  6
ByLayer
 62
  256
370
   -1
100
AcDbLine
 10
882.5342151298864
 20
29
 11
879.5342151298864
 21
29
  0
LINE
  5
1B1
100
AcDbEntity
  8
0
  6
ByLayer
 62
  256
370
   -1
100
AcDbLine
 10
879.5342151298864
 20
29
 11
879.5342151298864
 21
47
  0
LINE
  5
1B2
100
AcDbEntity
  8
0
  6
ByLayer
 62
  256
370
   -1
100
AcDbLine
 10
879.5342151298864
 20
47
 11
882.5342151298864
 21
47
  0
LINE
  5
1B3
100
AcDbEntity
  8
0
  6
ByLayer
 62
  256
370
   -1
100
AcDbLine
 10
882.5342151298864
 20
47
 11
882.5342151298864
 21
65
  0
LINE
  5
1B4
100
AcDbEntity
  8
0
  6
ByLayer
 62
  256
370
   -1
100
AcDbLine
 10
882.5342151298864
 20
65
 11
879.5342151298864
 21
65
  0
LINE
  5
1B5
100
AcDbEntity
  8
0
  6
ByLayer
 62
  256
370
   -1
100
AcDbLine
 10
879.5342151298864
 20
65
 11
879.5342151298864
 21
83
  0
LINE
  5
1B6
100
AcDbEntity
  8
0
  6
ByLayer
 62
  256
370
   -1
100
AcDbLine
 10
879.5342151298864
 20
83
 11
882.5342151298864
 21
83
  0
LINE
  5
1B7
100
AcDbEntity
  8
0
  6
ByLayer
 62
  256
370
   -1
100
AcDbLine
 10
882.5342151298864
 20
83
 11
882.5342151298864
 21
101
  0
LINE
  5
1B8
100
AcDbEntity
  8
0
  6
ByLayer
 62
  256
370
   -1
100
AcDbLine
 10
882.5342151298864
 20
101
 11
879.5342151298864
 21
101
  0
LINE
  5
1B9
100
AcDbEntity
  8
0
  6
ByLayer
 62
  256
370
   -1
100
AcDbLine
 10
879.5342151298864
 20
101
 11
879.5342151298864
 21
119
  0
LINE
  5
1BA
100
AcDbEntity
  8
0
  6
ByLayer
 62
  256
370
   -1
100
AcDbLine
 10
879.5342151298864
 20
119
 11
882.5342151298864
 21
119
  0
LINE
  5
1BB
100
AcDbEntity
  8
0
  6
ByLayer
 62
  256
370
   -1
100
AcDbLine
 10
882.5342151298864
 20
119
 11
882.5342151298864
 21
137
  0
LINE
  5
1BC
100
AcDbEntity
  8
0
  6
ByLayer
 62
  256
370
   -1
100
AcDbLine
 10
882.5342151298864
 20
137
 11
879.5342151298864
 21
137
  0
LINE
  5
1BD
100
AcDbEntity
  8
0
  6
ByLayer
 62
  256
370
   -1
100
AcDbLine
 10
879.5342151298864
 20
137
 11
879.5342151298864
 21
155
  0
LINE
  5
1BE
100
AcDbEntity
  8
0
  6
ByLayer
 62
  256
370
   -1
100
AcDbLine
 10
879.5342151298864
 20
155
 11
882.5342151298864
 21
155
  0
LINE
  5
1BF
100
AcDbEntity
  8
0
  6
ByLayer
 62
  256
370
   -1
100
AcDbLine
 10
882.5342151298864
 20
155
 11
882.5342151298864
 21
173
  0
LINE
  5
1C0
100
AcDbEntity
  8
0
  6
ByLayer
 62
  256
370
   -1
100
AcDbLine
 10
882.5342151298864
 20
173
 11
879.5342151298864
 21
173
  0
LINE
  5
1C1
100
AcDbEntity
  8
0
  6
ByLayer
 62
  256
370
   -1
100
AcDbLine
 10
879.5342151298864
 20
173
 11
879.5342151298864
 21
191
  0
LINE
  5
1C2
100
AcDbEntity
  8
0
  6
ByLayer
 62
  256
370
   -1
100
AcDbLine
 10
879.5342151298864
 20
191
 11
882.5342151298864
 21
191
  0
LINE
  5
1C3
100
AcDbEntity
  8
0
  6
ByLayer
 62
  256
370
   -1
100
AcDbLine
 10
882.5342151298864
 20
191
 11
882.5342151298864
 21
209
  0
LINE
  5
1C4
100
AcDbEntity
  8
0
  6
ByLayer
 62
  256
370
   -1
100
AcDbLine
 10
882.5342151298864
 20
209
 11
882.5342151298864
 21
217
  0
LINE
  5
1C5
100
AcDbEntity
  8
0
  6
ByLayer
 62
  256
370
   -1
100
AcDbLine
 10
842.5342151298864
 20
223
 11
853.5342151298864
 21
223
  0
LINE
  5
1C6
100
AcDbEntity
  8
0
  6
ByLayer
 62
  256
370
   -1
100
AcDbLine
 10
853.5342151298864
 20
223
 11
853.5342151298864
 21
220
  0
LINE
  5
1C7
100
AcDbEntity
  8
0
  6
ByLayer
 62
  256
370
   -1
100
AcDbLine
 10
853.5342151298864
 20
220
 11
871.5342151298864
 21
220
  0
LINE
  5
1C8
100
AcDbEntity
  8
0
  6
ByLayer
 62
  256
370
   -1
100
AcDbLine
 10
871.5342151298864
 20
220
 11
871.5342151298864
 21
223
  0
LINE
  5
1C9
100
AcDbEntity
  8
0
  6
ByLayer
 62
  256
370
   -1
100
AcDbLine
 10
871.5342151298864
 20
223
 11
882.5342151298864
 21
223
  0
LINE
  5
1CA
100
AcDbEntity
  8
0
  6
ByLayer
 62
  256
370
   -1
100
AcDbLine
 10
882.5342151298864
 20
223
 11
882.5342151298864
 21
247
  0
LINE
  5
1CB
100
AcDbEntity
  8
0
  6
ByLayer
 62
  256
370
   -1
100
AcDbLine
 10
882.5342151298864
 20
247
 11
879.5342151298864
 21
247
  0
LINE
  5
1CC
100
AcDbEntity
  8
0
  6
ByLayer
 62
  256
370
   -1
100
AcDbLine
 10
879.5342151298864
 20
247
 11
879.5342151298864
 21
265
  0
LINE
  5
1CD
100
AcDbEntity
  8
0
  6
ByLayer
 62
  256
370
   -1
100
AcDbLine
 10
879.5342151298864
 20
265
 11
882.5342151298864
 21
265
  0
LINE
  5
1CE
100
AcDbEntity
  8
0
  6
ByLayer
 62
  256
370
   -1
100
AcDbLine
 10
882.5342151298864
 20
265
 11
882.5342151298864
 21
283
  0
LINE
  5
1CF
100
AcDbEntity
  8
0
  6
ByLayer
 62
  256
370
   -1
100
AcDbLine
 10
882.5342151298864
 20
283
 11
879.5342151298864
 21
283
  0
LINE
  5
1D0
100
AcDbEntity
  8
0
  6
ByLayer
 62
  256
370
   -1
100
AcDbLine
 10
879.5342151298864
 20
283
 11
879.5342151298864
 21
301
  0
LINE
  5
1D1
100
AcDbEntity
  8
0
  6
ByLayer
 62
  256
370
   -1
100
AcDbLine
 10
879.5342151298864
 20
301
 11
882.5342151298864
 21
301
  0
LINE
  5
1D2
100
AcDbEntity
  8
0
  6
ByLayer
 62
  256
370
   -1
100
AcDbLine
 10
882.5342151298864
 20
301
 11
882.5342151298864
 21
319
  0
LINE
  5
1D3
100
AcDbEntity
  8
0
  6
ByLayer
 62
  256
370
   -1
100
AcDbLine
 10
882.5342151298864
 20
319
 11
882.5342151298864
 21
325
  0
LINE
  5
1D4
100
AcDbEntity
  8
0
  6
ByLayer
 62
  256
370
   -1
100
AcDbLine
 10
882.5342151298864
 20
325
 11
871.5342151298864
 21
325
  0
LINE
  5
1D5
100
AcDbEntity
  8
0
  6
ByLayer
 62
  256
370
   -1
100
AcDbLine
 10
871.5342151298864
 20
325
 11
871.5342151298864
 21
328
  0
LINE
  5
1D6
100
AcDbEntity
  8
0
  6
ByLayer
 62
  256
370
   -1
100
AcDbLine
 10
871.5342151298864
 20
328
 11
853.5342151298864
 21
328
  0
LINE
  5
1D7
100
AcDbEntity
  8
0
  6
ByLayer
 62
  256
370
   -1
100
AcDbLine
 10
853.5342151298864
 20
328
 11
853.5342151298864
 21
325
  0
LINE
  5
1D8
100
AcDbEntity
  8
0
  6
ByLayer
 62
  256
370
   -1
100
AcDbLine
 10
853.5342151298864
 20
325
 11
842.5342151298864
 21
325
  0
LINE
  5
1D9
100
AcDbEntity
  8
0
  6
ByLayer
 62
  256
370
   -1
100
AcDbLine
 10
842.5342151298864
 20
325
 11
842.5342151298864
 21
223
  0
LWPOLYLINE
  5
1DA
100
AcDbEntity
  8
0
  6
ByLayer
 62
  256
370
   -1
100
AcDbPolyline
 90
    4
 70
    1
 43
0
 10
839.5342151298864
 20
3.000000000000005
 10
839.5342151298864
 20
217
 10
731.5342151298864
 20
217
 10
731.5342151298864
 20
3.000000000000012
  0
LWPOLYLINE
  5
1DB
100
AcDbEntity
  8
0
  6
ByLayer
 62
  256
370
   -1
100
AcDbPolyline
 90
    4
 70
    1
 43
0
 10
839.5342151298864
 20
220
 10
839.5342151298864
 20
322
 10
631.5342151298864
 20
322
 10
631.5342151298864
 20
220
  0
LINE
  5
1DC
100
AcDbEntity
  8
0
  6
ByLayer
 62
  256
370
   -1
100
AcDbLine
 10
719.7101348798863
 20
6.283058499999691
 11
725.7101348798863
 21
6.283058499999691
  0
LINE
  5
1DD
100
AcDbEntity
  8
0
  6
ByLayer
 62
  256
370
   -1
100
AcDbLine
 10
725.7101348798863
 20
209.2830584999997
 11
725.7101348798863
 21
214.2830584999997
  0
LINE
  5
1DE
100
AcDbEntity
  8
0
  6
ByLayer
 62
  256
370
   -1
100
AcDbLine
 10
629.7101348798863
 20
214.2830584999997
 11
623.7101348798863
 21
214.2830584999997
  0
LINE
  5
1DF
100
AcDbEntity
  8
0
  6
ByLayer
 62
  256
370
   -1
100
AcDbLine
 10
623.7101348798863
 20
11.2830584999997
 11
623.7101348798863
 21
6.283058499999697
  0
LINE
  5
1E0
100
AcDbEntity
  8
0
  6
ByLayer
 62
  256
370
   -1
100
AcDbLine
 10
842.5342151298864
 20
100.0000000000002
 11
842.5342151298864
 21
3.000000000000005
  0
LINE
  5
1E1
100
AcDbEntity
  8
0
  6
ByLayer
 62
  256
370
   -1
100
AcDbLine
 10
842.5342151298864
 20
217
 11
842.5342151298864
 21
120.0000000000003
  0
ARC
  5
1E2
100
AcDbEntity
  8
0
  6
ByLayer
 62
  256
370
   -1
100
AcDbCircle
 10
842.5342151298864
 20
110
 40
10
100
AcDbArc
 50
270
 51
90.0000000000001
  0
LINE
  5
1E3
100
AcDbEntity
  8
0
  6
ByLayer
 62
  256
370
   -1
100
AcDbLine
 10
728.7101348798863
 20
47.5330584999997
 11
725.7101348798863
 21
47.5330584999997
  0
LINE
  5
1E4
100
AcDbEntity
  8
0
  6
ByLayer
 62
  256
370
   -1
100
AcDbLine
 10
728.7101348798863
 20
83.5330584999997
 11
725.7101348798863
 21
83.5330584999997
  0
LINE
  5
1E5
100
AcDbEntity
  8
0
  6
ByLayer
 62
  256
370
   -1
100
AcDbLine
 10
728.7101348798863
 20
119.5330584999997
 11
725.7101348798863
 21
119.5330584999997
  0
LINE
  5
1E6
100
AcDbEntity
  8
0
  6
ByLayer
 62
  256
370
   -1
100
AcDbLine
 10
728.7101348798863
 20
155.5330584999997
 11
725.7101348798863
 21
155.5330584999997
  0
LINE
  5
1E7
100
AcDbEntity
  8
0
  6
ByLayer
 62
  256
370
   -1
100
AcDbLine
 10
728.7101348798863
 20
191.5330584999997
 11
725.7101348798863
 21
191.5330584999997
  0
LINE
  5
1E8
100
AcDbEntity
  8
0
  6
ByLayer
 62
  256
370
   -1
100
AcDbLine
 10
623.7101348798863
 20
191.5330584999997
 11
620.7101348798863
 21
191.5330584999997
  0
LINE
  5
1E9
100
AcDbEntity
  8
0
  6
ByLayer
 62
  256
370
   -1
100
AcDbLine
 10
623.7101348798863
 20
155.5330584999997
 11
620.7101348798863
 21
155.5330584999997
  0
LINE
  5
1EA
100
AcDbEntity
  8
0
  6
ByLayer
 62
  256
370
   -1
100
AcDbLine
 10
623.7101348798863
 20
119.5330584999997
 11
620.7101348798863
 21
119.5330584999997
  0
LINE
  5
1EB
100
AcDbEntity
  8
0
  6
ByLayer
 62
  256
370
   -1
100
AcDbLine
 10
623.7101348798863
 20
83.5330584999997
 11
620.7101348798863
 21
83.5330584999997
  0
LINE
  5
1EC
100
AcDbEntity
  8
0
  6
ByLayer
 62
  256
370
   -1
100
AcDbLine
 10
623.7101348798863
 20
47.5330584999997
 11
620.7101348798863
 21
47.5330584999997
  0
LINE
  5
1ED
100
AcDbEntity
  8
0
  6
ByLayer
 62
  256
370
   -1
100
AcDbLine
 10
725.7101348798863
 20
29.03305849999969
 11
728.7101348798863
 21
29.03305849999969
  0
LINE
  5
1EE
100
AcDbEntity
  8
0
  6
ByLayer
 62
  256
370
   -1
100
AcDbLine
 10
725.7101348798863
 20
65.0330584999997
 11
728.7101348798863
 21
65.0330584999997
  0
LINE
  5
1EF
100
AcDbEntity
  8
0
  6
ByLayer
 62
  256
370
   -1
100
AcDbLine
 10
725.7101348798863
 20
101.0330584999997
 11
728.7101348798863
 21
101.0330584999997
  0
LINE
  5
1F0
100
AcDbEntity
  8
0
  6
ByLayer
 62
  256
370
   -1
100
AcDbLine
 10
725.7101348798863
 20
137.0330584999997
 11
728.7101348798863
 21
137.0330584999997
  0
LINE
  5
1F1
100
AcDbEntity
  8
0
  6
ByLayer
 62
  256
370
   -1
100
AcDbLine
 10
725.7101348798863
 20
173.0330584999997
 11
728.7101348798863
 21
173.0330584999997
  0
LINE
  5
1F2
100
AcDbEntity
  8
0
  6
ByLayer
 62
  256
370
   -1
100
AcDbLine
 10
620.7101348798863
 20
173.0330584999997
 11
623.7101348798863
 21
173.0330584999997
  0
LINE
  5
1F3
100
AcDbEntity
  8
0
  6
ByLayer
 62
  256
370
   -1
100
AcDbLine
 10
620.7101348798863
 20
137.0330584999997
 11
623.7101348798863
 21
137.0330584999997
  0
LINE
  5
1F4
100
AcDbEntity
  8
0
  6
ByLayer
 62
  256
370
   -1
100
AcDbLine
 10
620.7101348798863
 20
101.0330584999997
 11
623.7101348798863
 21
101.0330584999997
  0
LINE
  5
1F5
100
AcDbEntity
  8
0
  6
ByLayer
 62
  256
370
   -1
100
AcDbLine
 10
620.7101348798863
 20
65.0330584999997
 11
623.7101348798863
 21
65.0330584999997
  0
LINE
  5
1F6
100
AcDbEntity
  8
0
  6
ByLayer
 62
  256
370
   -1
100
AcDbLine
 10
620.7101348798863
 20
29.0330584999997
 11
623.7101348798863
 21
29.0330584999997
  0
LINE
  5
1F7
100
AcDbEntity
  8
0
  6
ByLayer
 62
  256
370
   -1
100
AcDbLine
 10
623.7101348798863
 20
29.0330584999997
 11
623.7101348798863
 21
11.0330584999997
  0
LINE
  5
1F8
100
AcDbEntity
  8
0
  6
ByLayer
 62
  256
370
   -1
100
AcDbLine
 10
620.7101348798863
 20
47.5330584999997
 11
620.7101348798863
 21
29.0330584999997
  0
LINE
  5
1F9
100
AcDbEntity
  8
0
  6
ByLayer
 62
  256
370
   -1
100
AcDbLine
 10
623.7101348798863
 20
65.0330584999997
 11
623.7101348798863
 21
47.5330584999997
  0
LINE
  5
1FA
100
AcDbEntity
  8
0
  6
ByLayer
 62
  256
370
   -1
100
AcDbLine
 10
620.7101348798863
 20
83.5330584999997
 11
620.7101348798863
 21
65.0330584999997
  0
LINE
  5
1FB
100
AcDbEntity
  8
0
  6
ByLayer
 62
  256
370
   -1
100
AcDbLine
 10
623.7101348798863
 20
101.0330584999997
 11
623.7101348798863
 21
83.5330584999997
  0
LINE
  5
1FC
100
AcDbEntity
  8
0
  6
ByLayer
 62
  256
370
   -1
100
AcDbLine
 10
620.7101348798863
 20
119.5330584999997
 11
620.7101348798863
 21
101.0330584999997
  0
LINE
  5
1FD
100
AcDbEntity
  8
0
  6
ByLayer
 62
  256
370
   -1
100
AcDbLine
 10
623.7101348798863
 20
137.0330584999997
 11
623.7101348798863
 21
119.5330584999997
  0
LINE
  5
1FE
100
AcDbEntity
  8
0
  6
ByLayer
 62
  256
370
   -1
100
AcDbLine
 10
620.7101348798863
 20
155.5330584999997
 11
620.7101348798863
 21
137.0330584999997
  0
LINE
  5
1FF
100
AcDbEntity
  8
0
  6
ByLayer
 62
  256
370
   -1
100
AcDbLine
 10
623.7101348798863
 20
173.0330584999997
 11
623.7101348798863
 21
155.5330584999997
  0
LINE
  5
200
100
AcDbEntity
  8
0
  6
ByLayer
 62
  256
370
   -1
100
AcDbLine
 10
620.7101348798863
 20
191.5330584999997
 11
620.7101348798863
 21
173.0330584999997
  0
LINE
  5
201
100
AcDbEntity
  8
0
  6
ByLayer
 62
  256
370
   -1
100
AcDbLine
 10
623.7101348798863
 20
214.2830584999997
 11
623.7101348798863
 21
191.5330584999997
  0
LINE
  5
202
100
AcDbEntity
  8
0
  6
ByLayer
 62
  256
370
   -1
100
AcDbLine
 10
725.7101348798863
 20
6.283058499999691
 11
725.7101348798863
 21
29.03305849999969
  0
LINE
  5
203
100
AcDbEntity
  8
0
  6
ByLayer
 62
  256
370
   -1
100
AcDbLine
 10
728.7101348798863
 20
29.03305849999969
 11
728.7101348798863
 21
47.5330584999997
  0
LINE
  5
204
100
AcDbEntity
  8
0
  6
ByLayer
 62
  256
370
   -1
100
AcDbLine
 10
725.7101348798863
 20
47.5330584999997
 11
725.7101348798863
 21
65.0330584999997
  0
LINE
  5
205
100
AcDbEntity
  8
0
  6
ByLayer
 62
  256
370
   -1
100
AcDbLine
 10
728.7101348798863
 20
65.0330584999997
 11
728.7101348798863
 21
83.5330584999997
  0
LINE
  5
206
100
AcDbEntity
  8
0
  6
ByLayer
 62
  256
370
   -1
100
AcDbLine
 10
725.7101348798863
 20
83.5330584999997
 11
725.7101348798863
 21
101.0330584999997
  0
LINE
  5
207
100
AcDbEntity
  8
0
  6
ByLayer
 62
  256
370
   -1
100
AcDbLine
 10
728.7101348798863
 20
101.0330584999997
 11
728.7101348798863
 21
119.5330584999997
  0
LINE
  5
208
100
AcDbEntity
  8
0
  6
ByLayer
 62
  256
370
   -1
100
AcDbLine
 10
725.7101348798863
 20
119.5330584999997
 11
725.7101348798863
 21
137.0330584999997
  0
LINE
  5
209
100
AcDbEntity
  8
0
  6
ByLayer
 62
  256
370
   -1
100
AcDbLine
 10
728.7101348798863
 20
137.0330584999997
 11
728.7101348798863
 21
155.5330584999997
  0
LINE
  5
20A
100
AcDbEntity
  8
0
  6
ByLayer
 62
  256
370
   -1
100
AcDbLine
 10
725.7101348798863
 20
155.5330584999997
 11
725.7101348798863
 21
173.0330584999997
  0
LINE
  5
20B
100
AcDbEntity
  8
0
  6
ByLayer
 62
  256
370
   -1
100
AcDbLine
 10
728.7101348798863
 20
173.0330584999997
 11
728.7101348798863
 21
191.5330584999997
  0
LINE
  5
20C
100
AcDbEntity
  8
0
  6
ByLayer
 62
  256
370
   -1
100
AcDbLine
 10
725.7101348798863
 20
191.5330584999997
 11
725.7101348798863
 21
209.2830584999997
  0
LINE
  5
20D
100
AcDbEntity
  8
0
  6
ByLayer
 62
  256
370
   -1
100
AcDbLine
 10
665.9601348798863
 20
3.283058499999696
 11
665.9601348798863
 21
6.283058499999695
  0
LINE
  5
20E
100
AcDbEntity
  8
0
  6
ByLayer
 62
  256
370
   -1
100
AcDbLine
 10
701.9601348798863
 20
3.283058499999694
 11
701.9601348798863
 21
6.283058499999693
  0
LINE
  5
20F
100
AcDbEntity
  8
0
  6
ByLayer
 62
  256
370
   -1
100
AcDbLine
 10
701.9601348798863
 20
214.2830584999997
 11
701.9601348798863
 21
217.2830584999997
  0
LINE
  5
210
100
AcDbEntity
  8
0
  6
ByLayer
 62
  256
370
   -1
100
AcDbLine
 10
665.9601348798863
 20
214.2830584999997
 11
665.9601348798863
 21
217.2830584999997
  0
LINE
  5
211
100
AcDbEntity
  8
0
  6
ByLayer
 62
  256
370
   -1
100
AcDbLine
 10
647.4601348798863
 20
6.283058499999695
 11
647.4601348798863
 21
3.283058499999697
  0
LINE
  5
212
100
AcDbEntity
  8
0
  6
ByLayer
 62
  256
370
   -1
100
AcDbLine
 10
683.4601348798863
 20
6.283058499999694
 11
683.4601348798863
 21
3.283058499999695
  0
LINE
  5
213
100
AcDbEntity
  8
0
  6
ByLayer
 62
  256
370
   -1
100
AcDbLine
 10
683.4601348798863
 20
217.2830584999997
 11
683.4601348798863
 21
214.2830584999997
  0
LINE
  5
214
100
AcDbEntity
  8
0
  6
ByLayer
 62
  256
370
   -1
100
AcDbLine
 10
647.4601348798863
 20
217.2830584999997
 11
647.4601348798863
 21
214.2830584999997
  0
LINE
  5
215
100
AcDbEntity
  8
0
  6
ByLayer
 62
  256
370
   -1
100
AcDbLine
 10
647.4601348798863
 20
214.2830584999997
 11
629.4601348798863
 21
214.2830584999997
  0
LINE
  5
216
100
AcDbEntity
  8
0
  6
ByLayer
 62
  256
370
   -1
100
AcDbLine
 10
701.9601348798863
 20
6.283058499999693
 11
719.7101348798863
 21
6.283058499999691
  0
LINE
  5
217
100
AcDbEntity
  8
0
  6
ByLayer
 62
  256
370
   -1
100
AcDbLine
 10
683.4601348798863
 20
3.283058499999695
 11
701.9601348798863
 21
3.283058499999694
  0
LINE
  5
218
100
AcDbEntity
  8
0
  6
ByLayer
 62
  256
370
   -1
100
AcDbLine
 10
665.9601348798863
 20
6.283058499999695
 11
683.4601348798863
 21
6.283058499999694
  0
LINE
  5
219
100
AcDbEntity
  8
0
  6
ByLayer
 62
  256
370
   -1
100
AcDbLine
 10
647.4601348798863
 20
3.283058499999697
 11
665.9601348798863
 21
3.283058499999696
  0
LINE
  5
21A
100
AcDbEntity
  8
0
  6
ByLayer
 62
  256
370
   -1
100
AcDbLine
 10
623.7101348798863
 20
6.283058499999697
 11
647.4601348798863
 21
6.283058499999695
  0
LINE
  5
21B
100
AcDbEntity
  8
0
  6
ByLayer
 62
  256
370
   -1
100
AcDbLine
 10
665.9601348798863
 20
217.2830584999997
 11
647.4601348798863
 21
217.2830584999997
  0
LINE
  5
21C
100
AcDbEntity
  8
0
  6
ByLayer
 62
  256
370
   -1
100
AcDbLine
 10
683.4601348798863
 20
214.2830584999997
 11
665.9601348798863
 21
214.2830584999997
  0
LINE
  5
21D
100
AcDbEntity
  8
0
  6
ByLayer
 62
  256
370
   -1
100
AcDbLine
 10
701.9601348798863
 20
217.2830584999997
 11
683.4601348798863
 21
217.2830584999997
  0
LINE
  5
21E
100
AcDbEntity
  8
0
  6
ByLayer
 62
  256
370
   -1
100
AcDbLine
 10
725.7101348798863
 20
214.2830584999997
 11
701.9601348798863
 21
214.2830584999997
  0
LINE
  5
21F
100
AcDbEntity
  8
0
  6
ByLayer
 62
  256
370
   -1
100
AcDbLine
 10
853.7842151298864
 20
3.000000000000004
 11
853.7842151298864
 21
6.000000000000004
  0
LINE
  5
220
100
AcDbEntity
  8
0
  6
ByLayer
 62
  256
370
   -1
100
AcDbLine
 10
853.7842151298864
 20
214
 11
853.7842151298864
 21
217
  0
LINE
  5
221
100
AcDbEntity
  8
0
  6
ByLayer
 62
  256
370
   -1
100
AcDbLine
 10
871.2842151298864
 20
6.000000000000004
 11
871.2842151298864
 21
3.000000000000004
  0
LINE
  5
222
100
AcDbEntity
  8
0
  6
ByLayer
 62
  256
370
   -1
100
AcDbLine
 10
871.2842151298864
 20
217
 11
871.2842151298864
 21
214
  0
LINE
  5
223
100
AcDbEntity
  8
0
  6
ByLayer
 62
  256
370
   -1
100
AcDbLine
 10
853.7842151298864
 20
6.000000000000004
 11
871.2842151298864
 21
6.000000000000004
  0
LINE
  5
224
100
AcDbEntity
  8
0
  6
ByLayer
 62
  256
370
   -1
100
AcDbLine
 10
871.2842151298864
 20
3.000000000000004
 11
882.5342151298864
 21
3.000000000000003
  0
LINE
  5
225
100
AcDbEntity
  8
0
  6
ByLayer
 62
  256
370
   -1
100
AcDbLine
 10
842.5342151298864
 20
3.000000000000005
 11
853.7842151298864
 21
3.000000000000004
  0
LINE
  5
226
100
AcDbEntity
  8
0
  6
ByLayer
 62
  256
370
   -1
100
AcDbLine
 10
882.5342151298864
 20
217
 11
871.2842151298864
 21
217
  0
LINE
  5
227
100
AcDbEntity
  8
0
  6
ByLayer
 62
  256
370
   -1
100
AcDbLine
 10
853.7842151298864
 20
217
 11
842.5342151298864
 21
217
  0
LINE
  5
228
100
AcDbEntity
  8
0
  6
ByLayer
 62
  256
370
   -1
100
AcDbLine
 10
871.2842151298864
 20
214
 11
853.7842151298864
 21
214
  0
LINE
  5
229
100
AcDbEntity
  8
0
  6
ByLayer
 62
  256
370
   -1
100
AcDbLine
 10
306
 20
333.6760295337127
 11
306
 21
359.6760295337127
  0
LINE
  5
22A
100
AcDbEntity
  8
0
  6
ByLayer
 62
  256
370
   -1
100
AcDbLine
 10
306
 20
359.6760295337127
 11
303
 21
359.6760295337127
  0
LINE
  5
22B
100
AcDbEntity
  8
0
  6
ByLayer
 62
  256
370
   -1
100
AcDbLine
 10
303
 20
359.6760295337127
 11
303
 21
377.6760295337127
  0
LINE
  5
22C
100
AcDbEntity
  8
0
  6
ByLayer
 62
  256
370
   -1
100
AcDbLine
 10
303
 20
377.6760295337127
 11
306
 21
377.6760295337127
  0
LINE
  5
22D
100
AcDbEntity
  8
0
  6
ByLayer
 62
  256
370
   -1
100
AcDbLine
 10
306
 20
377.6760295337127
 11
306
 21
395.6760295337127
  0
LINE
  5
22E
100
AcDbEntity
  8
0
  6
ByLayer
 62
  256
370
   -1
100
AcDbLine
 10
306
 20
395.6760295337127
 11
303
 21
395.6760295337127
  0
LINE
  5
22F
100
AcDbEntity
  8
0
  6
ByLayer
 62
  256
370
   -1
100
AcDbLine
 10
303
 20
395.6760295337127
 11
303
 21
413.6760295337127
  0
LINE
  5
230
100
AcDbEntity
  8
0
  6
ByLayer
 62
  256
370
   -1
100
AcDbLine
 10
303
 20
413.6760295337127
 11
306
 21
413.6760295337127
  0
LINE
  5
231
100
AcDbEntity
  8
0
  6
ByLayer
 62
  256
370
   -1
100
AcDbLine
 10
306
 20
413.6760295337127
 11
306
 21
431.6760295337127
  0
LINE
  5
232
100
AcDbEntity
  8
0
  6
ByLayer
 62
  256
370
   -1
100
AcDbLine
 10
306
 20
431.6760295337127
 11
303
 21
431.6760295337127
  0
LINE
  5
233
100
AcDbEntity
  8
0
  6
ByLayer
 62
  256
370
   -1
100
AcDbLine
 10
303
 20
431.6760295337127
 11
303
 21
449.6760295337127
  0
LINE
  5
234
100
AcDbEntity
  8
0
  6
ByLayer
 62
  256
370
   -1
100
AcDbLine
 10
303
 20
449.6760295337127
 11
306
 21
449.6760295337127
  0
LINE
  5
235
100
AcDbEntity
  8
0
  6
ByLayer
 62
  256
370
   -1
100
AcDbLine
 10
306
 20
449.6760295337127
 11
306
 21
467.6760295337127
  0
LINE
  5
236
100
AcDbEntity
  8
0
  6
ByLayer
 62
  256
370
   -1
100
AcDbLine
 10
306
 20
467.6760295337127
 11
303
 21
467.6760295337127
  0
LINE
  5
237
100
AcDbEntity
  8
0
  6
ByLayer
 62
  256
370
   -1
100
AcDbLine
 10
303
 20
467.6760295337127
 11
303
 21
485.6760295337127
  0
LINE
  5
238
100
AcDbEntity
  8
0
  6
ByLayer
 62
  256
370
   -1
100
AcDbLine
 10
303
 20
485.6760295337127
 11
306
 21
485.6760295337127
  0
LINE
  5
239
100
AcDbEntity
  8
0
  6
ByLayer
 62
  256
370
   -1
100
AcDbLine
 10
306
 20
485.6760295337127
 11
306
 21
503.6760295337127
  0
LINE
  5
23A
100
AcDbEntity
  8
0
  6
ByLayer
 62
  256
370
   -1
100
AcDbLine
 10
306
 20
503.6760295337127
 11
303
 21
503.6760295337127
  0
LINE
  5
23B
100
AcDbEntity
  8
0
  6
ByLayer
 62
  256
370
   -1
100
AcDbLine
 10
303
 20
503.6760295337127
 11
303
 21
521.6760295337127
  0
LINE
  5
23C
100
AcDbEntity
  8
0
  6
ByLayer
 62
  256
370
   -1
100
AcDbLine
 10
303
 20
521.6760295337127
 11
306
 21
521.6760295337127
  0
LINE
  5
23D
100
AcDbEntity
  8
0
  6
ByLayer
 62
  256
370
   -1
100
AcDbLine
 10
306
 20
521.6760295337127
 11
306
 21
539.6760295337127
  0
LINE
  5
23E
100
AcDbEntity
  8
0
  6
ByLayer
 62
  256
370
   -1
100
AcDbLine
 10
306
 20
539.6760295337127
 11
306
 21
547.6760295337127
  0
LINE
  5
23F
100
AcDbEntity
  8
0
  6
ByLayer
 62
  256
370
   -1
100
AcDbLine
 10
266
 20
547.6760295337127
 11
266
 21
333.6760295337127
  0
LINE
  5
240
100
AcDbEntity
  8
0
  6
ByLayer
 62
  256
370
   -1
100
AcDbLine
 10
263
 20
333.6760295337127
 11
263
 21
359.6760295337127
  0
LINE
  5
241
100
AcDbEntity
  8
0
  6
ByLayer
 62
  256
370
   -1
100
AcDbLine
 10
263
 20
359.6760295337127
 11
260
 21
359.6760295337127
  0
LINE
  5
242
100
AcDbEntity
  8
0
  6
ByLayer
 62
  256
370
   -1
100
AcDbLine
 10
260
 20
359.6760295337127
 11
260
 21
377.6760295337127
  0
LINE
  5
243
100
AcDbEntity
  8
0
  6
ByLayer
 62
  256
370
   -1
100
AcDbLine
 10
260
 20
377.6760295337127
 11
263
 21
377.6760295337127
  0
LINE
  5
244
100
AcDbEntity
  8
0
  6
ByLayer
 62
  256
370
   -1
100
AcDbLine
 10
263
 20
377.6760295337127
 11
263
 21
395.6760295337127
  0
LINE
  5
245
100
AcDbEntity
  8
0
  6
ByLayer
 62
  256
370
   -1
100
AcDbLine
 10
263
 20
395.6760295337127
 11
260
 21
395.6760295337127
  0
LINE
  5
246
100
AcDbEntity
  8
0
  6
ByLayer
 62
  256
370
   -1
100
AcDbLine
 10
260
 20
395.6760295337127
 11
260
 21
413.6760295337127
  0
LINE
  5
247
100
AcDbEntity
  8
0
  6
ByLayer
 62
  256
370
   -1
100
AcDbLine
 10
260
 20
413.6760295337127
 11
263
 21
413.6760295337127
  0
LINE
  5
248
100
AcDbEntity
  8
0
  6
ByLayer
 62
  256
370
   -1
100
AcDbLine
 10
263
 20
413.6760295337127
 11
263
 21
431.6760295337127
  0
LINE
  5
249
100
AcDbEntity
  8
0
  6
ByLayer
 62
  256
370
   -1
100
AcDbLine
 10
263
 20
431.6760295337127
 11
260
 21
431.6760295337127
  0
LINE
  5
24A
100
AcDbEntity
  8
0
  6
ByLayer
 62
  256
370
   -1
100
AcDbLine
 10
260
 20
431.6760295337127
 11
260
 21
449.6760295337127
  0
LINE
  5
24B
100
AcDbEntity
  8
0
  6
ByLayer
 62
  256
370
   -1
100
AcDbLine
 10
260
 20
449.6760295337127
 11
263
 21
449.6760295337127
  0
LINE
  5
24C
100
AcDbEntity
  8
0
  6
ByLayer
 62
  256
370
   -1
100
AcDbLine
 10
263
 20
449.6760295337127
 11
263
 21
467.6760295337127
  0
LINE
  5
24D
100
AcDbEntity
  8
0
  6
ByLayer
 62
  256
370
   -1
100
AcDbLine
 10
263
 20
467.6760295337127
 11
260
 21
467.6760295337127
  0
LINE
  5
24E
100
AcDbEntity
  8
0
  6
ByLayer
 62
  256
370
   -1
100
AcDbLine
 10
260
 20
467.6760295337127
 11
260
 21
485.6760295337127
  0
LINE
  5
24F
100
AcDbEntity
  8
0
  6
ByLayer
 62
  256
370
   -1
100
AcDbLine
 10
260
 20
485.6760295337127
 11
263
 21
485.6760295337127
  0
LINE
  5
250
100
AcDbEntity
  8
0
  6
ByLayer
 62
  256
370
   -1
100
AcDbLine
 10
263
 20
485.6760295337127
 11
263
 21
503.6760295337127
  0
LINE
  5
251
100
AcDbEntity
  8
0
  6
ByLayer
 62
  256
370
   -1
100
AcDbLine
 10
263
 20
503.6760295337127
 11
260
 21
503.6760295337127
  0
LINE
  5
252
100
AcDbEntity
  8
0
  6
ByLayer
 62
  256
370
   -1
100
AcDbLine
 10
260
 20
503.6760295337127
 11
260
 21
521.6760295337127
  0
LINE
  5
253
100
AcDbEntity
  8
0
  6
ByLayer
 62
  256
370
   -1
100
AcDbLine
 10
260
 20
521.6760295337127
 11
263
 21
521.6760295337127
  0
LINE
  5
254
100
AcDbEntity
  8
0
  6
ByLayer
 62
  256
370
   -1
100
AcDbLine
 10
263
 20
521.6760295337127
 11
263
 21
539.6760295337127
  0
LINE
  5
255
100
AcDbEntity
  8
0
  6
ByLayer
 62
  256
370
   -1
100
AcDbLine
 10
263
 20
539.6760295337127
 11
263
 21
547.6760295337127
  0
LWPOLYLINE
  5
256
100
AcDbEntity
  8
0
  6
ByLayer
 62
  256
370
   -1
100
AcDbPolyline
 90
    4
 70
    1
 43
0
 10
220
 20
333.6760295337127
 10
220
 20
547.6760295337127
 10
112
 20
547.6760295337127
 10
112
 20
333.6760295337127
  0
LINE
  5
257
100
AcDbEntity
  8
0
  6
ByLayer
 62
  256
370
   -1
100
AcDbLine
 10
100.1759197499998
 20
336.9590880337124
 11
106.1759197499998
 21
336.9590880337124
  0
LINE
  5
258
100
AcDbEntity
  8
0
  6
ByLayer
 62
  256
370
   -1
100
AcDbLine
 10
106.1759197499998
 20
539.9590880337124
 11
106.1759197499998
 21
544.9590880337124
  0
LINE
  5
259
100
AcDbEntity
  8
0
  6
ByLayer
 62
  256
370
   -1
100
AcDbLine
 10
10.17591974999982
 20
544.9590880337124
 11
4.175919749999821
 21
544.9590880337124
  0
LINE
  5
25A
100
AcDbEntity
  8
0
  6
ByLayer
 62
  256
370
   -1
100
AcDbLine
 10
4.175919749999821
 20
341.9590880337124
 11
4.175919749999821
 21
336.9590880337124
  0
LINE
  5
25B
100
AcDbEntity
  8
0
  6
ByLayer
 62
  256
370
   -1
100
AcDbLine
 10
223
 20
430.6760295337129
 11
223
 21
333.6760295337127
  0
LINE
  5
25C
100
AcDbEntity
  8
0
  6
ByLayer
 62
  256
370
   -1
100
AcDbLine
 10
223
 20
547.6760295337127
 11
223
 21
450.676029533713
  0
ARC
  5
25D
100
AcDbEntity
  8
0
  6
ByLayer
 62
  256
370
   -1
100
AcDbCircle
 10
223
 20
440.6760295337127
 40
10
100
AcDbArc
 50
270
 51
90.0000000000001
  0
LINE
  5
25E
100
AcDbEntity
  8
0
  6
ByLayer
 62
  256
370
   -1
100
AcDbLine
 10
109.1759197499998
 20
378.2090880337124
 11
106.1759197499998
 21
378.2090880337124
  0
LINE
  5
25F
100
AcDbEntity
  8
0
  6
ByLayer
 62
  256
370
   -1
100
AcDbLine
 10
109.1759197499998
 20
414.2090880337124
 11
106.1759197499998
 21
414.2090880337124
  0
LINE
  5
260
100
AcDbEntity
  8
0
  6
ByLayer
 62
  256
370
   -1
100
AcDbLine
 10
109.1759197499998
 20
450.2090880337124
 11
106.1759197499998
 21
450.2090880337124
  0
LINE
  5
261
100
AcDbEntity
  8
0
  6
ByLayer
 62
  256
370
   -1
100
AcDbLine
 10
109.1759197499998
 20
486.2090880337124
 11
106.1759197499998
 21
486.2090880337124
  0
LINE
  5
262
100
AcDbEntity
  8
0
  6
ByLayer
 62
  256
370
   -1
100
AcDbLine
 10
109.1759197499998
 20
522.2090880337124
 11
106.1759197499998
 21
522.2090880337124
  0
LINE
  5
263
100
AcDbEntity
  8
0
  6
ByLayer
 62
  256
370
   -1
100
AcDbLine
 10
4.175919749999821
 20
522.2090880337124
 11
1.175919749999821
 21
522.2090880337124
  0
LINE
  5
264
100
AcDbEntity
  8
0
  6
ByLayer
 62
  256
370
   -1
100
AcDbLine
 10
4.175919749999821
 20
486.2090880337124
 11
1.175919749999821
 21
486.2090880337124
  0
LINE
  5
265
100
AcDbEntity
  8
0
  6
ByLayer
 62
  256
370
   -1
100
AcDbLine
 10
4.175919749999821
 20
450.2090880337124
 11
1.175919749999821
 21
450.2090880337124
  0
LINE
  5
266
100
AcDbEntity
  8
0
  6
ByLayer
 62
  256
370
   -1
100
AcDbLine
 10
4.175919749999821
 20
414.2090880337124
 11
1.175919749999821
 21
414.2090880337124
  0
LINE
  5
267
100
AcDbEntity
  8
0
  6
ByLayer
 62
  256
370
   -1
100
AcDbLine
 10
4.175919749999821
 20
378.2090880337124
 11
1.175919749999821
 21
378.2090880337124
  0
LINE
  5
268
100
AcDbEntity
  8
0
  6
ByLayer
 62
  256
370
   -1
100
AcDbLine
 10
106.1759197499998
 20
359.7090880337124
 11
109.1759197499998
 21
359.7090880337124
  0
LINE
  5
269
100
AcDbEntity
  8
0
  6
ByLayer
 62
  256
370
   -1
100
AcDbLine
 10
106.1759197499998
 20
395.7090880337124
 11
109.1759197499998
 21
395.7090880337124
  0
LINE
  5
26A
100
AcDbEntity
  8
0
  6
ByLayer
 62
  256
370
   -1
100
AcDbLine
 10
106.1759197499998
 20
431.7090880337124
 11
109.1759197499998
 21
431.7090880337124
  0
LINE
  5
26B
100
AcDbEntity
  8
0
  6
ByLayer
 62
  256
370
   -1
100
AcDbLine
 10
106.1759197499998
 20
467.7090880337124
 11
109.1759197499998
 21
467.7090880337124
  0
LINE
  5
26C
100
AcDbEntity
  8
0
  6
ByLayer
 62
  256
370
   -1
100
AcDbLine
 10
106.1759197499998
 20
503.7090880337124
 11
109.1759197499998
 21
503.7090880337124
  0
LINE
  5
26D
100
AcDbEntity
  8
0
  6
ByLayer
 62
  256
370
   -1
100
AcDbLine
 10
1.175919749999821
 20
503.7090880337124
 11
4.175919749999821
 21
503.7090880337124
  0
LINE
  5
26E
100
AcDbEntity
  8
0
  6
ByLayer
 62
  256
370
   -1
100
AcDbLine
 10
1.175919749999821
 20
467.7090880337124
 11
4.175919749999821
 21
467.7090880337124
  0
LINE
  5
26F
100
AcDbEntity
  8
0
  6
ByLayer
 62
  256
370
   -1
100
AcDbLine
 10
1.175919749999821
 20
431.7090880337124
 11
4.175919749999821
 21
431.7090880337124
  0
LINE
  5
270
100
AcDbEntity
  8
0
  6
ByLayer
 62
  256
370
   -1
100
AcDbLine
 10
1.175919749999821
 20
395.7090880337124
 11
4.175919749999821
 21
395.7090880337124
  0
LINE
  5
271
100
AcDbEntity
  8
0
  6
ByLayer
 62
  256
370
   -1
100
AcDbLine
 10
1.175919749999821
 20
359.7090880337124
 11
4.175919749999821
 21
359.7090880337124
  0
LINE
  5
272
100
AcDbEntity
  8
0
  6
ByLayer
 62
  256
370
   -1
100
AcDbLine
 10
4.175919749999821
 20
359.7090880337124
 11
4.175919749999821
 21
341.7090880337124
  0
LINE
  5
273
100
AcDbEntity
  8
0
  6
ByLayer
 62
  256
370
   -1
100
AcDbLine
 10
1.175919749999821
 20
378.2090880337124
 11
1.175919749999821
 21
359.7090880337124
  0
LINE
  5
274
100
AcDbEntity
  8
0
  6
ByLayer
 62
  256
370
   -1
100
AcDbLine
 10
4.175919749999821
 20
395.7090880337124
 11
4.175919749999821
 21
378.2090880337124
  0
LINE
  5
275
100
AcDbEntity
  8
0
  6
ByLayer
 62
  256
370
   -1
100
AcDbLine
 10
1.175919749999821
 20
414.2090880337124
 11
1.175919749999821
 21
395.7090880337124
  0
LINE
  5
276
100
AcDbEntity
  8
0
  6
ByLayer
 62
  256
370
   -1
100
AcDbLine
 10
4.175919749999821
 20
431.7090880337124
 11
4.175919749999821
 21
414.2090880337124
  0
LINE
  5
277
100
AcDbEntity
  8
0
  6
ByLayer
 62
  256
370
   -1
100
AcDbLine
 10
1.175919749999821
 20
450.2090880337124
 11
1.175919749999821
 21
431.7090880337124
  0
LINE
  5
278
100
AcDbEntity
  8
0
  6
ByLayer
 62
  256
370
   -1
100
AcDbLine
 10
4.175919749999821
 20
467.7090880337124
 11
4.175919749999821
 21
450.2090880337124
  0
LINE
  5
279
100
AcDbEntity
  8
0
  6
ByLayer
 62
  256
370
   -1
100
AcDbLine
 10
1.175919749999821
 20
486.2090880337124
 11
1.175919749999821
 21
467.7090880337124
  0
LINE
  5
27A
100
AcDbEntity
  8
0
  6
ByLayer
 62
  256
370
   -1
100
AcDbLine
 10
4.175919749999821
 20
503.7090880337124
 11
4.175919749999821
 21
486.2090880337124
  0
LINE
  5
27B
100
AcDbEntity
  8
0
  6
ByLayer
 62
  256
370
   -1
100
AcDbLine
 10
1.175919749999821
 20
522.2090880337124
 11
1.175919749999821
 21
503.7090880337124
  0
LINE
  5
27C
100
AcDbEntity
  8
0
  6
ByLayer
 62
  256
370
   -1
100
AcDbLine
 10
4.175919749999821
 20
544.9590880337124
 11
4.175919749999821
 21
522.2090880337124
  0
LINE
  5
27D
100
AcDbEntity
  8
0
  6
ByLayer
 62
  256
370
   -1
100
AcDbLine
 10
106.1759197499998
 20
336.9590880337124
 11
106.1759197499998
 21
359.7090880337124
  0
LINE
  5
27E
100
AcDbEntity
  8
0
  6
ByLayer
 62
  256
370
   -1
100
AcDbLine
 10
109.1759197499998
 20
359.7090880337124
 11
109.1759197499998
 21
378.2090880337124
  0
LINE
  5
27F
100
AcDbEntity
  8
0
  6
ByLayer
 62
  256
370
   -1
100
AcDbLine
 10
106.1759197499998
 20
378.2090880337124
 11
106.1759197499998
 21
395.7090880337124
  0
LINE
  5
280
100
AcDbEntity
  8
0
  6
ByLayer
 62
  256
370
   -1
100
AcDbLine
 10
109.1759197499998
 20
395.7090880337124
 11
109.1759197499998
 21
414.2090880337124
  0
LINE
  5
281
100
AcDbEntity
  8
0
  6
ByLayer
 62
  256
370
   -1
100
AcDbLine
 10
106.1759197499998
 20
414.2090880337124
 11
106.1759197499998
 21
431.7090880337124
  0
LINE
  5
282
100
AcDbEntity
  8
0
  6
ByLayer
 62
  256
370
   -1
100
AcDbLine
 10
109.1759197499998
 20
431.7090880337124
 11
109.1759197499998
 21
450.2090880337124
  0
LINE
  5
283
100
AcDbEntity
  8
0
  6
ByLayer
 62
  256
370
   -1
100
AcDbLine
 10
106.1759197499998
 20
450.2090880337124
 11
106.1759197499998
 21
467.7090880337124
  0
LINE
  5
284
100
AcDbEntity
  8
0
  6
ByLayer
 62
  256
370
   -1
100
AcDbLine
 10
109.1759197499998
 20
467.7090880337124
 11
109.1759197499998
 21
486.2090880337124
  0
LINE
  5
285
100
AcDbEntity
  8
0
  6
ByLayer
 62
  256
370
   -1
100
AcDbLine
 10
106.1759197499998
 20
486.2090880337124
 11
106.1759197499998
 21
503.7090880337124
  0
LINE
  5
286
100
AcDbEntity
  8
0
  6
ByLayer
 62
  256
370
   -1
100
AcDbLine
 10
109.1759197499998
 20
503.7090880337124
 11
109.1759197499998
 21
522.2090880337124
  0
LINE
  5
287
100
AcDbEntity
  8
0
  6
ByLayer
 62
  256
370
   -1
100
AcDbLine
 10
106.1759197499998
 20
522.2090880337124
 11
106.1759197499998
 21
539.9590880337124
  0
LINE
  5
288
100
AcDbEntity
  8
0
  6
ByLayer
 62
  256
370
   -1
100
AcDbLine
 10
46.42591974999982
 20
333.9590880337124
 11
46.42591974999982
 21
336.9590880337124
  0
LINE
  5
289
100
AcDbEntity
  8
0
  6
ByLayer
 62
  256
370
   -1
100
AcDbLine
 10
82.42591974999982
 20
333.9590880337124
 11
82.42591974999982
 21
336.9590880337124
  0
LINE
  5
28A
100
AcDbEntity
  8
0
  6
ByLayer
 62
  256
370
   -1
100
AcDbLine
 10
82.42591974999982
 20
544.9590880337124
 11
82.42591974999982
 21
547.9590880337124
  0
LINE
  5
28B
100
AcDbEntity
  8
0
  6
ByLayer
 62
  256
370
   -1
100
AcDbLine
 10
46.42591974999982
 20
544.9590880337124
 11
46.42591974999982
 21
547.9590880337124
  0
LINE
  5
28C
100
AcDbEntity
  8
0
  6
ByLayer
 62
  256
370
   -1
100
AcDbLine
 10
27.92591974999982
 20
336.9590880337124
 11
27.92591974999982
 21
333.9590880337124
  0
LINE
  5
28D
100
AcDbEntity
  8
0
  6
ByLayer
 62
  256
370
   -1
100
AcDbLine
 10
63.92591974999982
 20
336.9590880337124
 11
63.92591974999982
 21
333.9590880337124
  0
LINE
  5
28E
100
AcDbEntity
  8
0
  6
ByLayer
 62
  256
370
   -1
100
AcDbLine
 10
63.92591974999982
 20
547.9590880337124
 11
63.92591974999982
 21
544.9590880337124
  0
LINE
  5
28F
100
AcDbEntity
  8
0
  6
ByLayer
 62
  256
370
   -1
100
AcDbLine
 10
27.92591974999982
 20
547.9590880337124
 11
27.92591974999982
 21
544.9590880337124
  0
LINE
  5
290
100
AcDbEntity
  8
0
  6
ByLayer
 62
  256
370
   -1
100
AcDbLine
 10
27.92591974999982
 20
544.9590880337124
 11
9.925919749999821
 21
544.9590880337124
  0
LINE
  5
291
100
AcDbEntity
  8
0
  6
ByLayer
 62
  256
370
   -1
100
AcDbLine
 10
82.42591974999982
 20
336.9590880337124
 11
100.1759197499998
 21
336.9590880337124
  0
LINE
  5
292
100
AcDbEntity
  8
0
  6
ByLayer
 62
  256
370
   -1
100
AcDbLine
 10
63.92591974999982
 20
333.9590880337124
 11
82.42591974999982
 21
333.9590880337124
  0
LINE
  5
293
100
AcDbEntity
  8
0
  6
ByLayer
 62
  256
370
   -1
100
AcDbLine
 10
46.42591974999982
 20
336.9590880337124
 11
63.92591974999982
 21
336.9590880337124
  0
LINE
  5
294
100
AcDbEntity
  8
0
  6
ByLayer
 62
  256
370
   -1
100
AcDbLine
 10
27.92591974999982
 20
333.9590880337124
 11
46.42591974999982
 21
333.9590880337124
  0
LINE
  5
295
100
AcDbEntity
  8
0
  6
ByLayer
 62
  256
370
   -1
100
AcDbLine
 10
4.175919749999821
 20
336.9590880337124
 11
27.92591974999982
 21
336.9590880337124
  0
LINE
  5
296
100
AcDbEntity
  8
0
  6
ByLayer
 62
  256
370
   -1
100
AcDbLine
 10
46.42591974999982
 20
547.9590880337124
 11
27.92591974999982
 21
547.9590880337124
  0
LINE
  5
297
100
AcDbEntity
  8
0
  6
ByLayer
 62
  256
370
   -1
100
AcDbLine
 10
63.92591974999982
 20
544.9590880337124
 11
46.42591974999982
 21
544.9590880337124
  0
LINE
  5
298
100
AcDbEntity
  8
0
  6
ByLayer
 62
  256
370
   -1
100
AcDbLine
 10
82.42591974999982
 20
547.9590880337124
 11
63.92591974999982
 21
547.9590880337124
  0
LINE
  5
299
100
AcDbEntity
  8
0
  6
ByLayer
 62
  256
370
   -1
100
AcDbLine
 10
106.1759197499998
 20
544.9590880337124
 11
82.42591974999982
 21
544.9590880337124
  0
LINE
  5
29A
100
AcDbEntity
  8
0
  6
ByLayer
 62
  256
370
   -1
100
AcDbLine
 10
277.25
 20
333.6760295337127
 11
277.25
 21
336.6760295337127
  0
LINE
  5
29B
100
AcDbEntity
  8
0
  6
ByLayer
 62
  256
370
   -1
100
AcDbLine
 10
277.25
 20
544.6760295337127
 11
277.25
 21
547.6760295337127
  0
LINE
  5
29C
100
AcDbEntity
  8
0
  6
ByLayer
 62
  256
370
   -1
100
AcDbLine
 10
234.25
 20
333.6760295337127
 11
234.25
 21
336.6760295337127
  0
LINE
  5
29D
100
AcDbEntity
  8
0
  6
ByLayer
 62
  256
370
   -1
100
AcDbLine
 10
234.25
 20
544.6760295337127
 11
234.25
 21
547.6760295337127
  0
LINE
  5
29E
100
AcDbEntity
  8
0
  6
ByLayer
 62
  256
370
   -1
100
AcDbLine
 10
294.75
 20
336.6760295337127
 11
294.75
 21
333.6760295337127
  0
LINE
  5
29F
100
AcDbEntity
  8
0
  6
ByLayer
 62
  256
370
   -1
100
AcDbLine
 10
294.75
 20
547.6760295337127
 11
294.75
 21
544.6760295337127
  0
LINE
  5
2A0
100
AcDbEntity
  8
0
  6
ByLayer
 62
  256
370
   -1
100
AcDbLine
 10
251.75
 20
336.6760295337127
 11
251.75
 21
333.6760295337127
  0
LINE
  5
2A1
100
AcDbEntity
  8
0
  6
ByLayer
 62
  256
370
   -1
100
AcDbLine
 10
251.75
 20
547.6760295337127
 11
251.75
 21
544.6760295337127
  0
LINE
  5
2A2
100
AcDbEntity
  8
0
  6
ByLayer
 62
  256
370
   -1
100
AcDbLine
 10
234.25
 20
336.6760295337127
 11
251.75
 21
336.6760295337127
  0
LINE
  5
2A3
100
AcDbEntity
  8
0
  6
ByLayer
 62
  256
370
   -1
100
AcDbLine
 10
251.75
 20
333.6760295337127
 11
263
 21
333.6760295337127
  0
LINE
  5
2A4
100
AcDbEntity
  8
0
  6
ByLayer
 62
  256
370
   -1
100
AcDbLine
 10
223
 20
333.6760295337127
 11
234.25
 21
333.6760295337127
  0
LINE
  5
2A5
100
AcDbEntity
  8
0
  6
ByLayer
 62
  256
370
   -1
100
AcDbLine
 10
266
 20
333.6760295337127
 11
277.25
 21
333.6760295337127
  0
LINE
  5
2A6
100
AcDbEntity
  8
0
  6
ByLayer
 62
  256
370
   -1
100
AcDbLine
 10
277.25
 20
336.6760295337127
 11
294.75
 21
336.6760295337127
  0
LINE
  5
2A7
100
AcDbEntity
  8
0
  6
ByLayer
 62
  256
370
   -1
100
AcDbLine
 10
294.75
 20
333.6760295337127
 11
306
 21
333.6760295337127
  0
LINE
  5
2A8
100
AcDbEntity
  8
0
  6
ByLayer
 62
  256
370
   -1
100
AcDbLine
 10
306
 20
547.6760295337127
 11
294.75
 21
547.6760295337127
  0
LINE
  5
2A9
100
AcDbEntity
  8
0
  6
ByLayer
 62
  256
370
   -1
100
AcDbLine
 10
294.75
 20
544.6760295337127
 11
277.25
 21
544.6760295337127
  0
LINE
  5
2AA
100
AcDbEntity
  8
0
  6
ByLayer
 62
  256
370
   -1
100
AcDbLine
 10
277.25
 20
547.6760295337127
 11
266
 21
547.6760295337127
  0
LINE
  5
2AB
100
AcDbEntity
  8
0
  6
ByLayer
 62
  256
370
   -1
100
AcDbLine
 10
263
 20
547.6760295337127
 11
251.75
 21
547.6760295337127
  0
LINE
  5
2AC
100
AcDbEntity
  8
0
  6
ByLayer
 62
  256
370
   -1
100
AcDbLine
 10
234.25
 20
547.6760295337127
 11
223
 21
547.6760295337127
  0
LINE
  5
2AD
100
AcDbEntity
  8
0
  6
ByLayer
 62
  256
370
   -1
100
AcDbLine
 10
251.75
 20
544.6760295337127
 11
234.25
 21
544.6760295337127
  0
LINE
  5
2AE
100
AcDbEntity
  8
0
  6
ByLayer
 62
  256
370
   -1
100
AcDbLine
 10
615.9055100436185
 20
333.6760295337127
 11
615.9055100436185
 21
359.6760295337127
  0
LINE
  5
2AF
100
AcDbEntity
  8
0
  6
ByLayer
 62
  256
370
   -1
100
AcDbLine
 10
615.9055100436185
 20
359.6760295337127
 11
612.9055100436185
 21
359.6760295337127
  0
LINE
  5
2B0
100
AcDbEntity
  8
0
  6
ByLayer
 62
  256
370
   -1
100
AcDbLine
 10
612.9055100436185
 20
359.6760295337127
 11
612.9055100436185
 21
377.6760295337127
  0
LINE
  5
2B1
100
AcDbEntity
  8
0
  6
ByLayer
 62
  256
370
   -1
100
AcDbLine
 10
612.9055100436185
 20
377.6760295337127
 11
615.9055100436185
 21
377.6760295337127
  0
LINE
  5
2B2
100
AcDbEntity
  8
0
  6
ByLayer
 62
  256
370
   -1
100
AcDbLine
 10
615.9055100436185
 20
377.6760295337127
 11
615.9055100436185
 21
395.6760295337127
  0
LINE
  5
2B3
100
AcDbEntity
  8
0
  6
ByLayer
 62
  256
370
   -1
100
AcDbLine
 10
615.9055100436185
 20
395.6760295337127
 11
612.9055100436185
 21
395.6760295337127
  0
LINE
  5
2B4
100
AcDbEntity
  8
0
  6
ByLayer
 62
  256
370
   -1
100
AcDbLine
 10
612.9055100436185
 20
395.6760295337127
 11
612.9055100436185
 21
413.6760295337127
  0
LINE
  5
2B5
100
AcDbEntity
  8
0
  6
ByLayer
 62
  256
370
   -1
100
AcDbLine
 10
612.9055100436185
 20
413.6760295337127
 11
615.9055100436185
 21
413.6760295337127
  0
LINE
  5
2B6
100
AcDbEntity
  8
0
  6
ByLayer
 62
  256
370
   -1
100
AcDbLine
 10
615.9055100436185
 20
413.6760295337127
 11
615.9055100436185
 21
431.6760295337127
  0
LINE
  5
2B7
100
AcDbEntity
  8
0
  6
ByLayer
 62
  256
370
   -1
100
AcDbLine
 10
615.9055100436185
 20
431.6760295337127
 11
612.9055100436185
 21
431.6760295337127
  0
LINE
  5
2B8
100
AcDbEntity
  8
0
  6
ByLayer
 62
  256
370
   -1
100
AcDbLine
 10
612.9055100436185
 20
431.6760295337127
 11
612.9055100436185
 21
449.6760295337127
  0
LINE
  5
2B9
100
AcDbEntity
  8
0
  6
ByLayer
 62
  256
370
   -1
100
AcDbLine
 10
612.9055100436185
 20
449.6760295337127
 11
615.9055100436185
 21
449.6760295337127
  0
LINE
  5
2BA
100
AcDbEntity
  8
0
  6
ByLayer
 62
  256
370
   -1
100
AcDbLine
 10
615.9055100436185
 20
449.6760295337127
 11
615.9055100436185
 21
467.6760295337127
  0
LINE
  5
2BB
100
AcDbEntity
  8
0
  6
ByLayer
 62
  256
370
   -1
100
AcDbLine
 10
615.9055100436185
 20
467.6760295337127
 11
612.9055100436185
 21
467.6760295337127
  0
LINE
  5
2BC
100
AcDbEntity
  8
0
  6
ByLayer
 62
  256
370
   -1
100
AcDbLine
 10
612.9055100436185
 20
467.6760295337127
 11
612.9055100436185
 21
485.6760295337127
  0
LINE
  5
2BD
100
AcDbEntity
  8
0
  6
ByLayer
 62
  256
370
   -1
100
AcDbLine
 10
612.9055100436185
 20
485.6760295337127
 11
615.9055100436185
 21
485.6760295337127
  0
LINE
  5
2BE
100
AcDbEntity
  8
0
  6
ByLayer
 62
  256
370
   -1
100
AcDbLine
 10
615.9055100436185
 20
485.6760295337127
 11
615.9055100436185
 21
503.6760295337127
  0
LINE
  5
2BF
100
AcDbEntity
  8
0
  6
ByLayer
 62
  256
370
   -1
100
AcDbLine
 10
615.9055100436185
 20
503.6760295337127
 11
612.9055100436185
 21
503.6760295337127
  0
LINE
  5
2C0
100
AcDbEntity
  8
0
  6
ByLayer
 62
  256
370
   -1
100
AcDbLine
 10
612.9055100436185
 20
503.6760295337127
 11
612.9055100436185
 21
521.6760295337127
  0
LINE
  5
2C1
100
AcDbEntity
  8
0
  6
ByLayer
 62
  256
370
   -1
100
AcDbLine
 10
612.9055100436185
 20
521.6760295337127
 11
615.9055100436185
 21
521.6760295337127
  0
LINE
  5
2C2
100
AcDbEntity
  8
0
  6
ByLayer
 62
  256
370
   -1
100
AcDbLine
 10
615.9055100436185
 20
521.6760295337127
 11
615.9055100436185
 21
539.6760295337127
  0
LINE
  5
2C3
100
AcDbEntity
  8
0
  6
ByLayer
 62
  256
370
   -1
100
AcDbLine
 10
615.9055100436185
 20
539.6760295337127
 11
615.9055100436185
 21
547.6760295337127
  0
LINE
  5
2C4
100
AcDbEntity
  8
0
  6
ByLayer
 62
  256
370
   -1
100
AcDbLine
 10
575.9055100436185
 20
547.6760295337127
 11
575.9055100436185
 21
333.6760295337127
  0
LINE
  5
2C5
100
AcDbEntity
  8
0
  6
ByLayer
 62
  256
370
   -1
100
AcDbLine
 10
572.9055100436185
 20
333.6760295337127
 11
572.9055100436185
 21
359.6760295337127
  0
LINE
  5
2C6
100
AcDbEntity
  8
0
  6
ByLayer
 62
  256
370
   -1
100
AcDbLine
 10
572.9055100436185
 20
359.6760295337127
 11
569.9055100436185
 21
359.6760295337127
  0
LINE
  5
2C7
100
AcDbEntity
  8
0
  6
ByLayer
 62
  256
370
   -1
100
AcDbLine
 10
569.9055100436185
 20
359.6760295337127
 11
569.9055100436185
 21
377.6760295337127
  0
LINE
  5
2C8
100
AcDbEntity
  8
0
  6
ByLayer
 62
  256
370
   -1
100
AcDbLine
 10
569.9055100436185
 20
377.6760295337127
 11
572.9055100436185
 21
377.6760295337127
  0
LINE
  5
2C9
100
AcDbEntity
  8
0
  6
ByLayer
 62
  256
370
   -1
100
AcDbLine
 10
572.9055100436185
 20
377.6760295337127
 11
572.9055100436185
 21
395.6760295337127
  0
LINE
  5
2CA
100
AcDbEntity
  8
0
  6
ByLayer
 62
  256
370
   -1
100
AcDbLine
 10
572.9055100436185
 20
395.6760295337127
 11
569.9055100436185
 21
395.6760295337127
  0
LINE
  5
2CB
100
AcDbEntity
  8
0
  6
ByLayer
 62
  256
370
   -1
100
AcDbLine
 10
569.9055100436185
 20
395.6760295337127
 11
569.9055100436185
 21
413.6760295337127
  0
LINE
  5
2CC
100
AcDbEntity
  8
0
  6
ByLayer
 62
  256
370
   -1
100
AcDbLine
 10
569.9055100436185
 20
413.6760295337127
 11
572.9055100436185
 21
413.6760295337127
  0
LINE
  5
2CD
100
AcDbEntity
  8
0
  6
ByLayer
 62
  256
370
   -1
100
AcDbLine
 10
572.9055100436185
 20
413.6760295337127
 11
572.9055100436185
 21
431.6760295337127
  0
LINE
  5
2CE
100
AcDbEntity
  8
0
  6
ByLayer
 62
  256
370
   -1
100
AcDbLine
 10
572.9055100436185
 20
431.6760295337127
 11
569.9055100436185
 21
431.6760295337127
  0
LINE
  5
2CF
100
AcDbEntity
  8
0
  6
ByLayer
 62
  256
370
   -1
100
AcDbLine
 10
569.9055100436185
 20
431.6760295337127
 11
569.9055100436185
 21
449.6760295337127
  0
LINE
  5
2D0
100
AcDbEntity
  8
0
  6
ByLayer
 62
  256
370
   -1
100
AcDbLine
 10
569.9055100436185
 20
449.6760295337127
 11
572.9055100436185
 21
449.6760295337127
  0
LINE
  5
2D1
100
AcDbEntity
  8
0
  6
ByLayer
 62
  256
370
   -1
100
AcDbLine
 10
572.9055100436185
 20
449.6760295337127
 11
572.9055100436185
 21
467.6760295337127
  0
LINE
  5
2D2
100
AcDbEntity
  8
0
  6
ByLayer
 62
  256
370
   -1
100
AcDbLine
 10
572.9055100436185
 20
467.6760295337127
 11
569.9055100436185
 21
467.6760295337127
  0
LINE
  5
2D3
100
AcDbEntity
  8
0
  6
ByLayer
 62
  256
370
   -1
100
AcDbLine
 10
569.9055100436185
 20
467.6760295337127
 11
569.9055100436185
 21
485.6760295337127
  0
LINE
  5
2D4
100
AcDbEntity
  8
0
  6
ByLayer
 62
  256
370
   -1
100
AcDbLine
 10
569.9055100436185
 20
485.6760295337127
 11
572.9055100436185
 21
485.6760295337127
  0
LINE
  5
2D5
100
AcDbEntity
  8
0
  6
ByLayer
 62
  256
370
   -1
100
AcDbLine
 10
572.9055100436185
 20
485.6760295337127
 11
572.9055100436185
 21
503.6760295337127
  0
LINE
  5
2D6
100
AcDbEntity
  8
0
  6
ByLayer
 62
  256
370
   -1
100
AcDbLine
 10
572.9055100436185
 20
503.6760295337127
 11
569.9055100436185
 21
503.6760295337127
  0
LINE
  5
2D7
100
AcDbEntity
  8
0
  6
ByLayer
 62
  256
370
   -1
100
AcDbLine
 10
569.9055100436185
 20
503.6760295337127
 11
569.9055100436185
 21
521.6760295337127
  0
LINE
  5
2D8
100
AcDbEntity
  8
0
  6
ByLayer
 62
  256
370
   -1
100
AcDbLine
 10
569.9055100436185
 20
521.6760295337127
 11
572.9055100436185
 21
521.6760295337127
  0
LINE
  5
2D9
100
AcDbEntity
  8
0
  6
ByLayer
 62
  256
370
   -1
100
AcDbLine
 10
572.9055100436185
 20
521.6760295337127
 11
572.9055100436185
 21
539.6760295337127
  0
LINE
  5
2DA
100
AcDbEntity
  8
0
  6
ByLayer
 62
  256
370
   -1
100
AcDbLine
 10
572.9055100436185
 20
539.6760295337127
 11
572.9055100436185
 21
547.6760295337127
  0
LWPOLYLINE
  5
2DB
100
AcDbEntity
  8
0
  6
ByLayer
 62
  256
370
   -1
100
AcDbPolyline
 90
    4
 70
    1
 43
0
 10
529.9055100436185
 20
333.6760295337127
 10
529.9055100436185
 20
547.6760295337127
 10
421.9055100436186
 20
547.6760295337127
 10
421.9055100436186
 20
333.6760295337127
  0
LINE
  5
2DC
100
AcDbEntity
  8
0
  6
ByLayer
 62
  256
370
   -1
100
AcDbLine
 10
410.0814297936184
 20
336.9590880337124
 11
416.0814297936184
 21
336.9590880337124
  0
LINE
  5
2DD
100
AcDbEntity
  8
0
  6
ByLayer
 62
  256
370
   -1
100
AcDbLine
 10
416.0814297936184
 20
539.9590880337124
 11
416.0814297936184
 21
544.9590880337124
  0
LINE
  5
2DE
100
AcDbEntity
  8
0
  6
ByLayer
 62
  256
370
   -1
100
AcDbLine
 10
320.0814297936184
 20
544.9590880337124
 11
314.0814297936184
 21
544.9590880337124
  0
LINE
  5
2DF
100
AcDbEntity
  8
0
  6
ByLayer
 62
  256
370
   -1
100
AcDbLine
 10
314.0814297936184
 20
341.9590880337124
 11
314.0814297936184
 21
336.9590880337124
  0
LINE
  5
2E0
100
AcDbEntity
  8
0
  6
ByLayer
 62
  256
370
   -1
100
AcDbLine
 10
532.9055100436185
 20
430.6760295337129
 11
532.9055100436185
 21
333.6760295337127
  0
LINE
  5
2E1
100
AcDbEntity
  8
0
  6
ByLayer
 62
  256
370
   -1
100
AcDbLine
 10
532.9055100436185
 20
547.6760295337127
 11
532.9055100436185
 21
450.676029533713
  0
ARC
  5
2E2
100
AcDbEntity
  8
0
  6
ByLayer
 62
  256
370
   -1
100
AcDbCircle
 10
532.9055100436185
 20
440.6760295337127
 40
10
100
AcDbArc
 50
270
 51
90.0000000000001
  0
LINE
  5
2E3
100
AcDbEntity
  8
0
  6
ByLayer
 62
  256
370
   -1
100
AcDbLine
 10
419.0814297936184
 20
378.2090880337124
 11
416.0814297936184
 21
378.2090880337124
  0
LINE
  5
2E4
100
AcDbEntity
  8
0
  6
ByLayer
 62
  256
370
   -1
100
AcDbLine
 10
419.0814297936184
 20
414.2090880337124
 11
416.0814297936184
 21
414.2090880337124
  0
LINE
  5
2E5
100
AcDbEntity
  8
0
  6
ByLayer
 62
  256
370
   -1
100
AcDbLine
 10
419.0814297936184
 20
450.2090880337124
 11
416.0814297936184
 21
450.2090880337124
  0
LINE
  5
2E6
100
AcDbEntity
  8
0
  6
ByLayer
 62
  256
370
   -1
100
AcDbLine
 10
419.0814297936184
 20
486.2090880337124
 11
416.0814297936184
 21
486.2090880337124
  0
LINE
  5
2E7
100
AcDbEntity
  8
0
  6
ByLayer
 62
  256
370
   -1
100
AcDbLine
 10
419.0814297936184
 20
522.2090880337124
 11
416.0814297936184
 21
522.2090880337124
  0
LINE
  5
2E8
100
AcDbEntity
  8
0
  6
ByLayer
 62
  256
370
   -1
100
AcDbLine
 10
314.0814297936184
 20
522.2090880337124
 11
311.0814297936184
 21
522.2090880337124
  0
LINE
  5
2E9
100
AcDbEntity
  8
0
  6
ByLayer
 62
  256
370
   -1
100
AcDbLine
 10
314.0814297936184
 20
486.2090880337124
 11
311.0814297936184
 21
486.2090880337124
  0
LINE
  5
2EA
100
AcDbEntity
  8
0
  6
ByLayer
 62
  256
370
   -1
100
AcDbLine
 10
314.0814297936184
 20
450.2090880337124
 11
311.0814297936184
 21
450.2090880337124
  0
LINE
  5
2EB
100
AcDbEntity
  8
0
  6
ByLayer
 62
  256
370
   -1
100
AcDbLine
 10
314.0814297936184
 20
414.2090880337124
 11
311.0814297936184
 21
414.2090880337124
  0
LINE
  5
2EC
100
AcDbEntity
  8
0
  6
ByLayer
 62
  256
370
   -1
100
AcDbLine
 10
314.0814297936184
 20
378.2090880337124
 11
311.0814297936184
 21
378.2090880337124
  0
LINE
  5
2ED
100
AcDbEntity
  8
0
  6
ByLayer
 62
  256
370
   -1
100
AcDbLine
 10
416.0814297936184
 20
359.7090880337124
 11
419.0814297936184
 21
359.7090880337124
  0
LINE
  5
2EE
100
AcDbEntity
  8
0
  6
ByLayer
 62
  256
370
   -1
100
AcDbLine
 10
416.0814297936184
 20
395.7090880337124
 11
419.0814297936184
 21
395.7090880337124
  0
LINE
  5
2EF
100
AcDbEntity
  8
0
  6
ByLayer
 62
  256
370
   -1
100
AcDbLine
 10
416.0814297936184
 20
431.7090880337124
 11
419.0814297936184
 21
431.7090880337124
  0
LINE
  5
2F0
100
AcDbEntity
  8
0
  6
ByLayer
 62
  256
370
   -1
100
AcDbLine
 10
416.0814297936184
 20
467.7090880337124
 11
419.0814297936184
 21
467.7090880337124
  0
LINE
  5
2F1
100
AcDbEntity
  8
0
  6
ByLayer
 62
  256
370
   -1
100
AcDbLine
 10
416.0814297936184
 20
503.7090880337124
 11
419.0814297936184
 21
503.7090880337124
  0
LINE
  5
2F2
100
AcDbEntity
  8
0
  6
ByLayer
 62
  256
370
   -1
100
AcDbLine
 10
311.0814297936184
 20
503.7090880337124
 11
314.0814297936184
 21
503.7090880337124
  0
LINE
  5
2F3
100
AcDbEntity
  8
0
  6
ByLayer
 62
  256
370
   -1
100
AcDbLine
 10
311.0814297936184
 20
467.7090880337124
 11
314.0814297936184
 21
467.7090880337124
  0
LINE
  5
2F4
100
AcDbEntity
  8
0
  6
ByLayer
 62
  256
370
   -1
100
AcDbLine
 10
311.0814297936184
 20
431.7090880337124
 11
314.0814297936184
 21
431.7090880337124
  0
LINE
  5
2F5
100
AcDbEntity
  8
0
  6
ByLayer
 62
  256
370
   -1
100
AcDbLine
 10
311.0814297936184
 20
395.7090880337124
 11
314.0814297936184
 21
395.7090880337124
  0
LINE
  5
2F6
100
AcDbEntity
  8
0
  6
ByLayer
 62
  256
370
   -1
100
AcDbLine
 10
311.0814297936184
 20
359.7090880337124
 11
314.0814297936184
 21
359.7090880337124
  0
LINE
  5
2F7
100
AcDbEntity
  8
0
  6
ByLayer
 62
  256
370
   -1
100
AcDbLine
 10
314.0814297936184
 20
359.7090880337124
 11
314.0814297936184
 21
341.7090880337124
  0
LINE
  5
2F8
100
AcDbEntity
  8
0
  6
ByLayer
 62
  256
370
   -1
100
AcDbLine
 10
311.0814297936184
 20
378.2090880337124
 11
311.0814297936184
 21
359.7090880337124
  0
LINE
  5
2F9
100
AcDbEntity
  8
0
  6
ByLayer
 62
  256
370
   -1
100
AcDbLine
 10
314.0814297936184
 20
395.7090880337124
 11
314.0814297936184
 21
378.2090880337124
  0
LINE
  5
2FA
100
AcDbEntity
  8
0
  6
ByLayer
 62
  256
370
   -1
100
AcDbLine
 10
311.0814297936184
 20
414.2090880337124
 11
311.0814297936184
 21
395.7090880337124
  0
LINE
  5
2FB
100
AcDbEntity
  8
0
  6
ByLayer
 62
  256
370
   -1
100
AcDbLine
 10
314.0814297936184
 20
431.7090880337124
 11
314.0814297936184
 21
414.2090880337124
  0
LINE
  5
2FC
100
AcDbEntity
  8
0
  6
ByLayer
 62
  256
370
   -1
100
AcDbLine
 10
311.0814297936184
 20
450.2090880337124
 11
311.0814297936184
 21
431.7090880337124
  0
LINE
  5
2FD
100
AcDbEntity
  8
0
  6
ByLayer
 62
  256
370
   -1
100
AcDbLine
 10
314.0814297936184
 20
467.7090880337124
 11
314.0814297936184
 21
450.2090880337124
  0
LINE
  5
2FE
100
AcDbEntity
  8
0
  6
ByLayer
 62
  256
370
   -1
100
AcDbLine
 10
311.0814297936184
 20
486.2090880337124
 11
311.0814297936184
 21
467.7090880337124
  0
LINE
  5
2FF
100
AcDbEntity
  8
0
  6
ByLayer
 62
  256
370
   -1
100
AcDbLine
 10
314.0814297936184
 20
503.7090880337124
 11
314.0814297936184
 21
486.2090880337124
  0
LINE
  5
300
100
AcDbEntity
  8
0
  6
ByLayer
 62
  256
370
   -1
100
AcDbLine
 10
311.0814297936184
 20
522.2090880337124
 11
311.0814297936184
 21
503.7090880337124
  0
LINE
  5
301
100
AcDbEntity
  8
0
  6
ByLayer
 62
  256
370
   -1
100
AcDbLine
 10
314.0814297936184
 20
544.9590880337124
 11
314.0814297936184
 21
522.2090880337124
  0
LINE
  5
302
100
AcDbEntity
  8
0
  6
ByLayer
 62
  256
370
   -1
100
AcDbLine
 10
416.0814297936184
 20
336.9590880337124
 11
416.0814297936184
 21
359.7090880337124
  0
LINE
  5
303
100
AcDbEntity
  8
0
  6
ByLayer
 62
  256
370
   -1
100
AcDbLine
 10
419.0814297936184
 20
359.7090880337124
 11
419.0814297936184
 21
378.2090880337124
  0
LINE
  5
304
100
AcDbEntity
  8
0
  6
ByLayer
 62
  256
370
   -1
100
AcDbLine
 10
416.0814297936184
 20
378.2090880337124
 11
416.0814297936184
 21
395.7090880337124
  0
LINE
  5
305
100
AcDbEntity
  8
0
  6
ByLayer
 62
  256
370
   -1
100
AcDbLine
 10
419.0814297936184
 20
395.7090880337124
 11
419.0814297936184
 21
414.2090880337124
  0
LINE
  5
306
100
AcDbEntity
  8
0
  6
ByLayer
 62
  256
370
   -1
100
AcDbLine
 10
416.0814297936184
 20
414.2090880337124
 11
416.0814297936184
 21
431.7090880337124
  0
LINE
  5
307
100
AcDbEntity
  8
0
  6
ByLayer
 62
  256
370
   -1
100
AcDbLine
 10
419.0814297936184
 20
431.7090880337124
 11
419.0814297936184
 21
450.2090880337124
  0
LINE
  5
308
100
AcDbEntity
  8
0
  6
ByLayer
 62
  256
370
   -1
100
AcDbLine
 10
416.0814297936184
 20
450.2090880337124
 11
416.0814297936184
 21
467.7090880337124
  0
LINE
  5
309
100
AcDbEntity
  8
0
  6
ByLayer
 62
  256
370
   -1
100
AcDbLine
 10
419.0814297936184
 20
467.7090880337124
 11
419.0814297936184
 21
486.2090880337124
  0
LINE
  5
30A
100
AcDbEntity
  8
0
  6
ByLayer
 62
  256
370
   -1
100
AcDbLine
 10
416.0814297936184
 20
486.2090880337124
 11
416.0814297936184
 21
503.7090880337124
  0
LINE
  5
30B
100
AcDbEntity
  8
0
  6
ByLayer
 62
  256
370
   -1
100
AcDbLine
 10
419.0814297936184
 20
503.7090880337124
 11
419.0814297936184
 21
522.2090880337124
  0
LINE
  5
30C
100
AcDbEntity
  8
0
  6
ByLayer
 62
  256
370
   -1
100
AcDbLine
 10
416.0814297936184
 20
522.2090880337124
 11
416.0814297936184
 21
539.9590880337124
  0
LINE
  5
30D
100
AcDbEntity
  8
0
  6
ByLayer
 62
  256
370
   -1
100
AcDbLine
 10
356.3314297936184
 20
333.9590880337124
 11
356.3314297936184
 21
336.9590880337124
  0
LINE
  5
30E
100
AcDbEntity
  8
0
  6
ByLayer
 62
  256
370
   -1
100
AcDbLine
 10
392.3314297936184
 20
333.9590880337124
 11
392.3314297936184
 21
336.9590880337124
  0
LINE
  5
30F
100
AcDbEntity
  8
0
  6
ByLayer
 62
  256
370
   -1
100
AcDbLine
 10
392.3314297936184
 20
544.9590880337124
 11
392.3314297936184
 21
547.9590880337124
  0
LINE
  5
310
100
AcDbEntity
  8
0
  6
ByLayer
 62
  256
370
   -1
100
AcDbLine
 10
356.3314297936184
 20
544.9590880337124
 11
356.3314297936184
 21
547.9590880337124
  0
LINE
  5
311
100
AcDbEntity
  8
0
  6
ByLayer
 62
  256
370
   -1
100
AcDbLine
 10
337.8314297936184
 20
336.9590880337124
 11
337.8314297936184
 21
333.9590880337124
  0
LINE
  5
312
100
AcDbEntity
  8
0
  6
ByLayer
 62
  256
370
   -1
100
AcDbLine
 10
373.8314297936184
 20
336.9590880337124
 11
373.8314297936184
 21
333.9590880337124
  0
LINE
  5
313
100
AcDbEntity
  8
0
  6
ByLayer
 62
  256
370
   -1
100
AcDbLine
 10
373.8314297936184
 20
547.9590880337124
 11
373.8314297936184
 21
544.9590880337124
  0
LINE
  5
314
100
AcDbEntity
  8
0
  6
ByLayer
 62
  256
370
   -1
100
AcDbLine
 10
337.8314297936184
 20
547.9590880337124
 11
337.8314297936184
 21
544.9590880337124
  0
LINE
  5
315
100
AcDbEntity
  8
0
  6
ByLayer
 62
  256
370
   -1
100
AcDbLine
 10
337.8314297936184
 20
544.9590880337124
 11
319.8314297936184
 21
544.9590880337124
  0
LINE
  5
316
100
AcDbEntity
  8
0
  6
ByLayer
 62
  256
370
   -1
100
AcDbLine
 10
392.3314297936184
 20
336.9590880337124
 11
410.0814297936184
 21
336.9590880337124
  0
LINE
  5
317
100
AcDbEntity
  8
0
  6
ByLayer
 62
  256
370
   -1
100
AcDbLine
 10
373.8314297936184
 20
333.9590880337124
 11
392.3314297936184
 21
333.9590880337124
  0
LINE
  5
318
100
AcDbEntity
  8
0
  6
ByLayer
 62
  256
370
   -1
100
AcDbLine
 10
356.3314297936184
 20
336.9590880337124
 11
373.8314297936184
 21
336.9590880337124
  0
LINE
  5
319
100
AcDbEntity
  8
0
  6
ByLayer
 62
  256
370
   -1
100
AcDbLine
 10
337.8314297936184
 20
333.9590880337124
 11
356.3314297936184
 21
333.9590880337124
  0
LINE
  5
31A
100
AcDbEntity
  8
0
  6
ByLayer
 62
  256
370
   -1
100
AcDbLine
 10
314.0814297936184
 20
336.9590880337124
 11
337.8314297936184
 21
336.9590880337124
  0
LINE
  5
31B
100
AcDbEntity
  8
0
  6
ByLayer
 62
  256
370
   -1
100
AcDbLine
 10
356.3314297936184
 20
547.9590880337124
 11
337.8314297936184
 21
547.9590880337124
  0
LINE
  5
31C
100
AcDbEntity
  8
0
  6
ByLayer
 62
  256
370
   -1
100
AcDbLine
 10
373.8314297936184
 20
544.9590880337124
 11
356.3314297936184
 21
544.9590880337124
  0
LINE
  5
31D
100
AcDbEntity
  8
0
  6
ByLayer
 62
  256
370
   -1
100
AcDbLine
 10
392.3314297936184
 20
547.9590880337124
 11
373.8314297936184
 21
547.9590880337124
  0
LINE
  5
31E
100
AcDbEntity
  8
0
  6
ByLayer
 62
  256
370
   -1
100
AcDbLine
 10
416.0814297936184
 20
544.9590880337124
 11
392.3314297936184
 21
544.9590880337124
  0
LINE
  5
31F
100
AcDbEntity
  8
0
  6
ByLayer
 62
  256
370
   -1
100
AcDbLine
 10
587.1555100436185
 20
333.6760295337127
 11
587.1555100436185
 21
336.6760295337127
  0
LINE
  5
320
100
AcDbEntity
  8
0
  6
ByLayer
 62
  256
370
   -1
100
AcDbLine
 10
587.1555100436185
 20
544.6760295337127
 11
587.1555100436185
 21
547.6760295337127
  0
LINE
  5
321
100
AcDbEntity
  8
0
  6
ByLayer
 62
  256
370
   -1
100
AcDbLine
 10
544.1555100436185
 20
333.6760295337127
 11
544.1555100436185
 21
336.6760295337127
  0
LINE
  5
322
100
AcDbEntity
  8
0
  6
ByLayer
 62
  256
370
   -1
100
AcDbLine
 10
544.1555100436185
 20
544.6760295337127
 11
544.1555100436185
 21
547.6760295337127
  0
LINE
  5
323
100
AcDbEntity
  8
0
  6
ByLayer
 62
  256
370
   -1
100
AcDbLine
 10
604.6555100436185
 20
336.6760295337127
 11
604.6555100436185
 21
333.6760295337127
  0
LINE
  5
324
100
AcDbEntity
  8
0
  6
ByLayer
 62
  256
370
   -1
100
AcDbLine
 10
604.6555100436185
 20
547.6760295337127
 11
604.6555100436185
 21
544.6760295337127
  0
LINE
  5
325
100
AcDbEntity
  8
0
  6
ByLayer
 62
  256
370
   -1
100
AcDbLine
 10
561.6555100436185
 20
336.6760295337127
 11
561.6555100436185
 21
333.6760295337127
  0
LINE
  5
326
100
AcDbEntity
  8
0
  6
ByLayer
 62
  256
370
   -1
100
AcDbLine
 10
561.6555100436185
 20
547.6760295337127
 11
561.6555100436185
 21
544.6760295337127
  0
LINE
  5
327
100
AcDbEntity
  8
0
  6
ByLayer
 62
  256
370
   -1
100
AcDbLine
 10
544.1555100436185
 20
336.6760295337127
 11
561.6555100436185
 21
336.6760295337127
  0
LINE
  5
328
100
AcDbEntity
  8
0
  6
ByLayer
 62
  256
370
   -1
100
AcDbLine
 10
561.6555100436185
 20
333.6760295337127
 11
572.9055100436185
 21
333.6760295337127
  0
LINE
  5
329
100
AcDbEntity
  8
0
  6
ByLayer
 62
  256
370
   -1
100
AcDbLine
 10
532.9055100436185
 20
333.6760295337127
 11
544.1555100436185
 21
333.6760295337127
  0
LINE
  5
32A
100
AcDbEntity
  8
0
  6
ByLayer
 62
  256
370
   -1
100
AcDbLine
 10
575.9055100436185
 20
333.6760295337127
 11
587.1555100436185
 21
333.6760295337127
  0
LINE
  5
32B
100
AcDbEntity
  8
0
  6
ByLayer
 62
  256
370
   -1
100
AcDbLine
 10
587.1555100436185
 20
336.6760295337127
 11
604.6555100436185
 21
336.6760295337127
  0
LINE
  5
32C
100
AcDbEntity
  8
0
  6
ByLayer
 62
  256
370
   -1
100
AcDbLine
 10
604.6555100436185
 20
333.6760295337127
 11
615.9055100436185
 21
333.6760295337127
  0
LINE
  5
32D
100
AcDbEntity
  8
0
  6
ByLayer
 62
  256
370
   -1
100
AcDbLine
 10
615.9055100436185
 20
547.6760295337127
 11
604.6555100436185
 21
547.6760295337127
  0
LINE
  5
32E
100
AcDbEntity
  8
0
  6
ByLayer
 62
  256
370
   -1
100
AcDbLine
 10
604.6555100436185
 20
544.6760295337127
 11
587.1555100436185
 21
544.6760295337127
  0
LINE
  5
32F
100
AcDbEntity
  8
0
  6
ByLayer
 62
  256
370
   -1
100
AcDbLine
 10
587.1555100436185
 20
547.6760295337127
 11
575.9055100436185
 21
547.6760295337127
  0
LINE
  5
330
100
AcDbEntity
  8
0
  6
ByLayer
 62
  256
370
   -1
100
AcDbLine
 10
572.9055100436185
 20
547.6760295337127
 11
561.6555100436185
 21
547.6760295337127
  0
LINE
  5
331
100
AcDbEntity
  8
0
  6
ByLayer
 62
  256
370
   -1
100
AcDbLine
 10
544.1555100436185
 20
547.6760295337127
 11
532.9055100436185
 21
547.6760295337127
  0
LINE
  5
332
100
AcDbEntity
  8
0
  6
ByLayer
 62
  256
370
   -1
100
AcDbLine
 10
561.6555100436185
 20
544.6760295337127
 11
544.1555100436185
 21
544.6760295337127
  0
LWPOLYLINE
  5
333
100
AcDbEntity
  8
0
  6
ByLayer
 62
  256
370
   -1
100
AcDbPolyline
 90
    4
 70
    1
 43
0
 10
838.0393297582239
 20
332.4465087835043
 10
838.0393297582239
 20
434.4465087835043
 10
630.0393297582239
 20
434.4465087835043
 10
630.0393297582239
 20
332.4465087835043
  0
LWPOLYLINE
  5
334
100
AcDbEntity
  8
0
  6
ByLayer
 62
  256
370
   -1
100
AcDbPolyline
 90
    4
 70
    1
 43
0
 10
837.2063926561239
 20
437.3965836481084
 10
837.2063926561239
 20
539.3965836481084
 10
629.2063926561239
 20
539.3965836481084
 10
629.2063926561239
 20
437.3965836481084
  0
LINE
  5
335
100
AcDbEntity
  8
0
  6
ByLayer
 62
  256
370
   -1
100
AcDbLine
 10
117.3010705513814
 20
557.071934165446
 11
117.3010705513814
 21
568.071934165446
  0
LINE
  5
336
100
AcDbEntity
  8
0
  6
ByLayer
 62
  256
370
   -1
100
AcDbLine
 10
117.3010705513814
 20
568.071934165446
 11
120.3010705513814
 21
568.071934165446
  0
LINE
  5
337
100
AcDbEntity
  8
0
  6
ByLayer
 62
  256
370
   -1
100
AcDbLine
 10
120.3010705513814
 20
568.071934165446
 11
120.3010705513814
 21
586.071934165446
  0
LINE
  5
338
100
AcDbEntity
  8
0
  6
ByLayer
 62
  256
370
   -1
100
AcDbLine
 10
120.3010705513814
 20
586.071934165446
 11
117.3010705513814
 21
586.071934165446
  0
LINE
  5
339
100
AcDbEntity
  8
0
  6
ByLayer
 62
  256
370
   -1
100
AcDbLine
 10
117.3010705513814
 20
586.071934165446
 11
117.3010705513814
 21
597.071934165446
  0
LINE
  5
33A
100
AcDbEntity
  8
0
  6
ByLayer
 62
  256
370
   -1
100
AcDbLine
 10
117.3010705513814
 20
597.071934165446
 11
93.30107055138144
 21
597.071934165446
  0
LINE
  5
33B
100
AcDbEntity
  8
0
  6
ByLayer
 62
  256
370
   -1
100
AcDbLine
 10
93.30107055138144
 20
597.071934165446
 11
93.30107055138144
 21
594.071934165446
  0
LINE
  5
33C
100
AcDbEntity
  8
0
  6
ByLayer
 62
  256
370
   -1
100
AcDbLine
 10
93.30107055138144
 20
594.071934165446
 11
75.30107055138144
 21
594.071934165446
  0
LINE
  5
33D
100
AcDbEntity
  8
0
  6
ByLayer
 62
  256
370
   -1
100
AcDbLine
 10
75.30107055138144
 20
594.071934165446
 11
75.30107055138144
 21
597.071934165446
  0
LINE
  5
33E
100
AcDbEntity
  8
0
  6
ByLayer
 62
  256
370
   -1
100
AcDbLine
 10
75.30107055138144
 20
597.071934165446
 11
57.30107055138146
 21
597.071934165446
  0
LINE
  5
33F
100
AcDbEntity
  8
0
  6
ByLayer
 62
  256
370
   -1
100
AcDbLine
 10
57.30107055138146
 20
597.071934165446
 11
57.30107055138146
 21
594.071934165446
  0
LINE
  5
340
100
AcDbEntity
  8
0
  6
ByLayer
 62
  256
370
   -1
100
AcDbLine
 10
57.30107055138146
 20
594.071934165446
 11
39.30107055138146
 21
594.071934165446
  0
LINE
  5
341
100
AcDbEntity
  8
0
  6
ByLayer
 62
  256
370
   -1
100
AcDbLine
 10
39.30107055138146
 20
594.071934165446
 11
39.30107055138146
 21
597.071934165446
  0
LINE
  5
342
100
AcDbEntity
  8
0
  6
ByLayer
 62
  256
370
   -1
100
AcDbLine
 10
39.30107055138146
 20
597.071934165446
 11
21.30107055138146
 21
597.071934165446
  0
LINE
  5
343
100
AcDbEntity
  8
0
  6
ByLayer
 62
  256
370
   -1
100
AcDbLine
 10
21.30107055138146
 20
597.071934165446
 11
15.30107055138146
 21
597.071934165446
  0
LINE
  5
344
100
AcDbEntity
  8
0
  6
ByLayer
 62
  256
370
   -1
100
AcDbLine
 10
15.30107055138146
 20
597.071934165446
 11
15.30107055138146
 21
586.071934165446
  0
LINE
  5
345
100
AcDbEntity
  8
0
  6
ByLayer
 62
  256
370
   -1
100
AcDbLine
 10
15.30107055138146
 20
586.071934165446
 11
12.30107055138146
 21
586.071934165446
  0
LINE
  5
346
100
AcDbEntity
  8
0
  6
ByLayer
 62
  256
370
   -1
100
AcDbLine
 10
12.30107055138146
 20
586.071934165446
 11
12.30107055138146
 21
568.071934165446
  0
LINE
  5
347
100
AcDbEntity
  8
0
  6
ByLayer
 62
  256
370
   -1
100
AcDbLine
 10
12.30107055138146
 20
568.071934165446
 11
15.30107055138146
 21
568.071934165446
  0
LINE
  5
348
100
AcDbEntity
  8
0
  6
ByLayer
 62
  256
370
   -1
100
AcDbLine
 10
15.30107055138146
 20
568.071934165446
 11
15.30107055138146
 21
557.071934165446
  0
LINE
  5
349
100
AcDbEntity
  8
0
  6
ByLayer
 62
  256
370
   -1
100
AcDbLine
 10
15.30107055138146
 20
557.071934165446
 11
117.3010705513814
 21
557.071934165446
  0
LINE
  5
34A
100
AcDbEntity
  8
0
  6
ByLayer
 62
  256
370
   -1
100
AcDbLine
 10
230.9342598040939
 20
560.2006396908101
 11
230.9342598040939
 21
571.2006396908101
  0
LINE
  5
34B
100
AcDbEntity
  8
0
  6
ByLayer
 62
  256
370
   -1
100
AcDbLine
 10
230.9342598040939
 20
571.2006396908101
 11
233.9342598040939
 21
571.2006396908101
  0
LINE
  5
34C
100
AcDbEntity
  8
0
  6
ByLayer
 62
  256
370
   -1
100
AcDbLine
 10
233.9342598040939
 20
571.2006396908101
 11
233.9342598040939
 21
589.2006396908101
  0
LINE
  5
34D
100
AcDbEntity
  8
0
  6
ByLayer
 62
  256
370
   -1
100
AcDbLine
 10
233.9342598040939
 20
589.2006396908101
 11
230.9342598040939
 21
589.2006396908101
  0
LINE
  5
34E
100
AcDbEntity
  8
0
  6
ByLayer
 62
  256
370
   -1
100
AcDbLine
 10
230.9342598040939
 20
589.2006396908101
 11
230.9342598040939
 21
600.2006396908101
  0
LINE
  5
34F
100
AcDbEntity
  8
0
  6
ByLayer
 62
  256
370
   -1
100
AcDbLine
 10
230.9342598040939
 20
600.2006396908101
 11
206.9342598040939
 21
600.2006396908101
  0
LINE
  5
350
100
AcDbEntity
  8
0
  6
ByLayer
 62
  256
370
   -1
100
AcDbLine
 10
206.9342598040939
 20
600.2006396908101
 11
206.9342598040939
 21
597.2006396908101
  0
LINE
  5
351
100
AcDbEntity
  8
0
  6
ByLayer
 62
  256
370
   -1
100
AcDbLine
 10
206.9342598040939
 20
597.2006396908101
 11
188.9342598040939
 21
597.2006396908101
  0
LINE
  5
352
100
AcDbEntity
  8
0
  6
ByLayer
 62
  256
370
   -1
100
AcDbLine
 10
188.9342598040939
 20
597.2006396908101
 11
188.9342598040939
 21
600.2006396908101
  0
LINE
  5
353
100
AcDbEntity
  8
0
  6
ByLayer
 62
  256
370
   -1
100
AcDbLine
 10
188.9342598040939
 20
600.2006396908101
 11
170.9342598040939
 21
600.2006396908101
  0
LINE
  5
354
100
AcDbEntity
  8
0
  6
ByLayer
 62
  256
370
   -1
100
AcDbLine
 10
170.9342598040939
 20
600.2006396908101
 11
170.9342598040939
 21
597.2006396908101
  0
LINE
  5
355
100
AcDbEntity
  8
0
  6
ByLayer
 62
  256
370
   -1
100
AcDbLine
 10
170.9342598040939
 20
597.2006396908101
 11
152.9342598040939
 21
597.2006396908101
  0
LINE
  5
356
100
AcDbEntity
  8
0
  6
ByLayer
 62
  256
370
   -1
100
AcDbLine
 10
152.9342598040939
 20
597.2006396908101
 11
152.9342598040939
 21
600.2006396908101
  0
LINE
  5
357
100
AcDbEntity
  8
0
  6
ByLayer
 62
  256
370
   -1
100
AcDbLine
 10
152.9342598040939
 20
600.2006396908101
 11
134.9342598040939
 21
600.2006396908101
  0
LINE
  5
358
100
AcDbEntity
  8
0
  6
ByLayer
 62
  256
370
   -1
100
AcDbLine
 10
134.9342598040939
 20
600.2006396908101
 11
128.9342598040939
 21
600.2006396908101
  0
LINE
  5
359
100
AcDbEntity
  8
0
  6
ByLayer
 62
  256
370
   -1
100
AcDbLine
 10
128.9342598040939
 20
600.2006396908101
 11
128.9342598040939
 21
589.2006396908101
  0
LINE
  5
35A
100
AcDbEntity
  8
0
  6
ByLayer
 62
  256
370
   -1
100
AcDbLine
 10
128.9342598040939
 20
589.2006396908101
 11
125.9342598040939
 21
589.2006396908101
  0
LINE
  5
35B
100
AcDbEntity
  8
0
  6
ByLayer
 62
  256
370
   -1
100
AcDbLine
 10
125.9342598040939
 20
589.2006396908101
 11
125.9342598040939
 21
571.2006396908101
  0
LINE
  5
35C
100
AcDbEntity
  8
0
  6
ByLayer
 62
  256
370
   -1
100
AcDbLine
 10
125.9342598040939
 20
571.2006396908101
 11
128.9342598040939
 21
571.2006396908101
  0
LINE
  5
35D
100
AcDbEntity
  8
0
  6
ByLayer
 62
  256
370
   -1
100
AcDbLine
 10
128.9342598040939
 20
571.2006396908101
 11
128.9342598040939
 21
560.2006396908101
  0
LINE
  5
35E
100
AcDbEntity
  8
0
  6
ByLayer
 62
  256
370
   -1
100
AcDbLine
 10
128.9342598040939
 20
560.2006396908101
 11
230.9342598040939
 21
560.2006396908101
  0
LINE
  5
35F
100
AcDbEntity
  8
0
  6
ByLayer
 62
  256
370
   -1
100
AcDbLine
 10
346.062622599605
 20
561.0822493479743
 11
346.062622599605
 21
572.0822493479743
  0
LINE
  5
360
100
AcDbEntity
  8
0
  6
ByLayer
 62
  256
370
   -1
100
AcDbLine
 10
346.062622599605
 20
572.0822493479743
 11
349.062622599605
 21
572.0822493479743
  0
LINE
  5
361
100
AcDbEntity
  8
0
  6
ByLayer
 62
  256
370
   -1
100
AcDbLine
 10
349.062622599605
 20
572.0822493479743
 11
349.062622599605
 21
590.0822493479743
  0
LINE
  5
362
100
AcDbEntity
  8
0
  6
ByLayer
 62
  256
370
   -1
100
AcDbLine
 10
349.062622599605
 20
590.0822493479743
 11
346.062622599605
 21
590.0822493479743
  0
LINE
  5
363
100
AcDbEntity
  8
0
  6
ByLayer
 62
  256
370
   -1
100
AcDbLine
 10
346.062622599605
 20
590.0822493479743
 11
346.062622599605
 21
601.0822493479743
  0
LINE
  5
364
100
AcDbEntity
  8
0
  6
ByLayer
 62
  256
370
   -1
100
AcDbLine
 10
346.062622599605
 20
601.0822493479743
 11
322.062622599605
 21
601.0822493479743
  0
LINE
  5
365
100
AcDbEntity
  8
0
  6
ByLayer
 62
  256
370
   -1
100
AcDbLine
 10
322.062622599605
 20
601.0822493479743
 11
322.062622599605
 21
598.0822493479743
  0
LINE
  5
366
100
AcDbEntity
  8
0
  6
ByLayer
 62
  256
370
   -1
100
AcDbLine
 10
322.062622599605
 20
598.0822493479743
 11
304.062622599605
 21
598.0822493479743
  0
LINE
  5
367
100
AcDbEntity
  8
0
  6
ByLayer
 62
  256
370
   -1
100
AcDbLine
 10
304.062622599605
 20
598.0822493479743
 11
304.062622599605
 21
601.0822493479743
  0
LINE
  5
368
100
AcDbEntity
  8
0
  6
ByLayer
 62
  256
370
   -1
100
AcDbLine
 10
304.062622599605
 20
601.0822493479743
 11
286.062622599605
 21
601.0822493479743
  0
LINE
  5
369
100
AcDbEntity
  8
0
  6
ByLayer
 62
  256
370
   -1
100
AcDbLine
 10
286.062622599605
 20
601.0822493479743
 11
286.062622599605
 21
598.0822493479743
  0
LINE
  5
36A
100
AcDbEntity
  8
0
  6
ByLayer
 62
  256
370
   -1
100
AcDbLine
 10
286.062622599605
 20
598.0822493479743
 11
268.062622599605
 21
598.0822493479743
  0
LINE
  5
36B
100
AcDbEntity
  8
0
  6
ByLayer
 62
  256
370
   -1
100
AcDbLine
 10
268.062622599605
 20
598.0822493479743
 11
268.062622599605
 21
601.0822493479743
  0
LINE
  5
36C
100
AcDbEntity
  8
0
  6
ByLayer
 62
  256
370
   -1
100
AcDbLine
 10
268.062622599605
 20
601.0822493479743
 11
250.062622599605
 21
601.0822493479743
  0
LINE
  5
36D
100
AcDbEntity
  8
0
  6
ByLayer
 62
  256
370
   -1
100
AcDbLine
 10
250.062622599605
 20
601.0822493479743
 11
244.062622599605
 21
601.0822493479743
  0
LINE
  5
36E
100
AcDbEntity
  8
0
  6
ByLayer
 62
  256
370
   -1
100
AcDbLine
 10
244.062622599605
 20
601.0822493479743
 11
244.062622599605
 21
590.0822493479743
  0
LINE
  5
36F
100
AcDbEntity
  8
0
  6
ByLayer
 62
  256
370
   -1
100
AcDbLine
 10
244.062622599605
 20
590.0822493479743
 11
241.062622599605
 21
590.0822493479743
  0
LINE
  5
370
100
AcDbEntity
  8
0
  6
ByLayer
 62
  256
370
   -1
100
AcDbLine
 10
241.062622599605
 20
590.0822493479743
 11
241.062622599605
 21
572.0822493479743
  0
LINE
  5
371
100
AcDbEntity
  8
0
  6
ByLayer
 62
  256
370
   -1
100
AcDbLine
 10
241.062622599605
 20
572.0822493479743
 11
244.062622599605
 21
572.0822493479743
  0
LINE
  5
372
100
AcDbEntity
  8
0
  6
ByLayer
 62
  256
370
   -1
100
AcDbLine
 10
244.062622599605
 20
572.0822493479743
 11
244.062622599605
 21
561.0822493479743
  0
LINE
  5
373
100
AcDbEntity
  8
0
  6
ByLayer
 62
  256
370
   -1
100
AcDbLine
 10
244.062622599605
 20
561.0822493479743
 11
346.062622599605
 21
561.0822493479743
  0
LINE
  5
374
100
AcDbEntity
  8
0
  6
ByLayer
 62
  256
370
   -1
100
AcDbLine
 10
459.6958118523174
 20
558.7286518830759
 11
459.6958118523174
 21
569.7286518830759
  0
LINE
  5
375
100
AcDbEntity
  8
0
  6
ByLayer
 62
  256
370
   -1
100
AcDbLine
 10
459.6958118523174
 20
569.7286518830759
 11
462.6958118523174
 21
569.7286518830759
  0
LINE
  5
376
100
AcDbEntity
  8
0
  6
ByLayer
 62
  256
370
   -1
100
AcDbLine
 10
462.6958118523174
 20
569.7286518830759
 11
462.6958118523174
 21
587.7286518830759
  0
LINE
  5
377
100
AcDbEntity
  8
0
  6
ByLayer
 62
  256
370
   -1
100
AcDbLine
 10
462.6958118523174
 20
587.7286518830759
 11
459.6958118523174
 21
587.7286518830759
  0
LINE
  5
378
100
AcDbEntity
  8
0
  6
ByLayer
 62
  256
370
   -1
100
AcDbLine
 10
459.6958118523174
 20
587.7286518830759
 11
459.6958118523174
 21
598.7286518830759
  0
LINE
  5
379
100
AcDbEntity
  8
0
  6
ByLayer
 62
  256
370
   -1
100
AcDbLine
 10
459.6958118523174
 20
598.7286518830759
 11
435.6958118523174
 21
598.7286518830759
  0
LINE
  5
37A
100
AcDbEntity
  8
0
  6
ByLayer
 62
  256
370
   -1
100
AcDbLine
 10
435.6958118523174
 20
598.7286518830759
 11
435.6958118523174
 21
595.7286518830759
  0
LINE
  5
37B
100
AcDbEntity
  8
0
  6
ByLayer
 62
  256
370
   -1
100
AcDbLine
 10
435.6958118523174
 20
595.7286518830759
 11
417.6958118523174
 21
595.7286518830759
  0
LINE
  5
37C
100
AcDbEntity
  8
0
  6
ByLayer
 62
  256
370
   -1
100
AcDbLine
 10
417.6958118523174
 20
595.7286518830759
 11
417.6958118523174
 21
598.7286518830759
  0
LINE
  5
37D
100
AcDbEntity
  8
0
  6
ByLayer
 62
  256
370
   -1
100
AcDbLine
 10
417.6958118523174
 20
598.7286518830759
 11
399.6958118523174
 21
598.7286518830759
  0
LINE
  5
37E
100
AcDbEntity
  8
0
  6
ByLayer
 62
  256
370
   -1
100
AcDbLine
 10
399.6958118523174
 20
598.7286518830759
 11
399.6958118523174
 21
595.7286518830759
  0
LINE
  5
37F
100
AcDbEntity
  8
0
  6
ByLayer
 62
  256
370
   -1
100
AcDbLine
 10
399.6958118523174
 20
595.7286518830759
 11
381.6958118523174
 21
595.7286518830759
  0
LINE
  5
380
100
AcDbEntity
  8
0
  6
ByLayer
 62
  256
370
   -1
100
AcDbLine
 10
381.6958118523174
 20
595.7286518830759
 11
381.6958118523174
 21
598.7286518830759
  0
LINE
  5
381
100
AcDbEntity
  8
0
  6
ByLayer
 62
  256
370
   -1
100
AcDbLine
 10
381.6958118523174
 20
598.7286518830759
 11
363.6958118523174
 21
598.7286518830759
  0
LINE
  5
382
100
AcDbEntity
  8
0
  6
ByLayer
 62
  256
370
   -1
100
AcDbLine
 10
363.6958118523174
 20
598.7286518830759
 11
357.6958118523174
 21
598.7286518830759
  0
LINE
  5
383
100
AcDbEntity
  8
0
  6
ByLayer
 62
  256
370
   -1
100
AcDbLine
 10
357.6958118523174
 20
598.7286518830759
 11
357.6958118523174
 21
587.7286518830759
  0
LINE
  5
384
100
AcDbEntity
  8
0
  6
ByLayer
 62
  256
370
   -1
100
AcDbLine
 10
357.6958118523174
 20
587.7286518830759
 11
354.6958118523174
 21
587.7286518830759
  0
LINE
  5
385
100
AcDbEntity
  8
0
  6
ByLayer
 62
  256
370
   -1
100
AcDbLine
 10
354.6958118523174
 20
587.7286518830759
 11
354.6958118523174
 21
569.7286518830759
  0
LINE
  5
386
100
AcDbEntity
  8
0
  6
ByLayer
 62
  256
370
   -1
100
AcDbLine
 10
354.6958118523174
 20
569.7286518830759
 11
357.6958118523174
 21
569.7286518830759
  0
LINE
  5
387
100
AcDbEntity
  8
0
  6
ByLayer
 62
  256
370
   -1
100
AcDbLine
 10
357.6958118523174
 20
569.7286518830759
 11
357.6958118523174
 21
558.7286518830759
  0
LINE
  5
388
100
AcDbEntity
  8
0
  6
ByLayer
 62
  256
370
   -1
100
AcDbLine
 10
357.6958118523174
 20
558.7286518830759
 11
459.6958118523174
 21
558.7286518830759
  0
LINE
  5
389
100
AcDbEntity
  8
0
  6
ByLayer
 62
  256
370
   -1
100
AcDbLine
 10
576.4831934503934
 20
559.1794514609078
 11
576.4831934503934
 21
570.1794514609078
  0
LINE
  5
38A
100
AcDbEntity
  8
0
  6
ByLayer
 62
  256
370
   -1
100
AcDbLine
 10
576.4831934503934
 20
570.1794514609078
 11
579.4831934503934
 21
570.1794514609078
  0
LINE
  5
38B
100
AcDbEntity
  8
0
  6
ByLayer
 62
  256
370
   -1
100
AcDbLine
 10
579.4831934503934
 20
570.1794514609078
 11
579.4831934503934
 21
588.1794514609078
  0
LINE
  5
38C
100
AcDbEntity
  8
0
  6
ByLayer
 62
  256
370
   -1
100
AcDbLine
 10
579.4831934503934
 20
588.1794514609078
 11
576.4831934503934
 21
588.1794514609078
  0
LINE
  5
38D
100
AcDbEntity
  8
0
  6
ByLayer
 62
  256
370
   -1
100
AcDbLine
 10
576.4831934503934
 20
588.1794514609078
 11
576.4831934503934
 21
599.1794514609078
  0
LINE
  5
38E
100
AcDbEntity
  8
0
  6
ByLayer
 62
  256
370
   -1
100
AcDbLine
 10
576.4831934503934
 20
599.1794514609078
 11
552.4831934503934
 21
599.1794514609078
  0
LINE
  5
38F
100
AcDbEntity
  8
0
  6
ByLayer
 62
  256
370
   -1
100
AcDbLine
 10
552.4831934503934
 20
599.1794514609078
 11
552.4831934503934
 21
596.1794514609078
  0
LINE
  5
390
100
AcDbEntity
  8
0
  6
ByLayer
 62
  256
370
   -1
100
AcDbLine
 10
552.4831934503934
 20
596.1794514609078
 11
534.4831934503934
 21
596.1794514609078
  0
LINE
  5
391
100
AcDbEntity
  8
0
  6
ByLayer
 62
  256
370
   -1
100
AcDbLine
 10
534.4831934503934
 20
596.1794514609078
 11
534.4831934503934
 21
599.1794514609078
  0
LINE
  5
392
100
AcDbEntity
  8
0
  6
ByLayer
 62
  256
370
   -1
100
AcDbLine
 10
534.4831934503934
 20
599.1794514609078
 11
516.4831934503934
 21
599.1794514609078
  0
LINE
  5
393
100
AcDbEntity
  8
0
  6
ByLayer
 62
  256
370
   -1
100
AcDbLine
 10
516.4831934503934
 20
599.1794514609078
 11
516.4831934503934
 21
596.1794514609078
  0
LINE
  5
394
100
AcDbEntity
  8
0
  6
ByLayer
 62
  256
370
   -1
100
AcDbLine
 10
516.4831934503934
 20
596.1794514609078
 11
498.4831934503935
 21
596.1794514609078
  0
LINE
  5
395
100
AcDbEntity
  8
0
  6
ByLayer
 62
  256
370
   -1
100
AcDbLine
 10
498.4831934503935
 20
596.1794514609078
 11
498.4831934503935
 21
599.1794514609078
  0
LINE
  5
396
100
AcDbEntity
  8
0
  6
ByLayer
 62
  256
370
   -1
100
AcDbLine
 10
498.4831934503935
 20
599.1794514609078
 11
480.4831934503935
 21
599.1794514609078
  0
LINE
  5
397
100
AcDbEntity
  8
0
  6
ByLayer
 62
  256
370
   -1
100
AcDbLine
 10
480.4831934503935
 20
599.1794514609078
 11
474.4831934503935
 21
599.1794514609078
  0
LINE
  5
398
100
AcDbEntity
  8
0
  6
ByLayer
 62
  256
370
   -1
100
AcDbLine
 10
474.4831934503935
 20
599.1794514609078
 11
474.4831934503935
 21
588.1794514609078
  0
LINE
  5
399
100
AcDbEntity
  8
0
  6
ByLayer
 62
  256
370
   -1
100
AcDbLine
 10
474.4831934503935
 20
588.1794514609078
 11
471.4831934503935
 21
588.1794514609078
  0
LINE
  5
39A
100
AcDbEntity
  8
0
  6
ByLayer
 62
  256
370
   -1
100
AcDbLine
 10
471.4831934503935
 20
588.1794514609078
 11
471.4831934503935
 21
570.1794514609078
  0
LINE
  5
39B
100
AcDbEntity
  8
0
  6
ByLayer
 62
  256
370
   -1
100
AcDbLine
 10
471.4831934503935
 20
570.1794514609078
 11
474.4831934503935
 21
570.1794514609078
  0
LINE
  5
39C
100
AcDbEntity
  8
0
  6
ByLayer
 62
  256
370
   -1
100
AcDbLine
 10
474.4831934503935
 20
570.1794514609078
 11
474.4831934503935
 21
559.1794514609078
  0
LINE
  5
39D
100
AcDbEntity
  8
0
  6
ByLayer
 62
  256
370
   -1
100
AcDbLine
 10
474.4831934503935
 20
559.1794514609078
 11
576.4831934503934
 21
559.1794514609078
  0
LINE
  5
39E
100
AcDbEntity
  8
0
  6
ByLayer
 62
  256
370
   -1
100
AcDbLine
 10
884.2887910226874
 20
331.6187762158253
 11
884.2887910226874
 21
357.6187762158253
  0
LINE
  5
39F
100
AcDbEntity
  8
0
  6
ByLayer
 62
  256
370
   -1
100
AcDbLine
 10
884.2887910226874
 20
357.6187762158253
 11
881.2887910226874
 21
357.6187762158253
  0
LINE
  5
3A0
100
AcDbEntity
  8
0
  6
ByLayer
 62
  256
370
   -1
100
AcDbLine
 10
881.2887910226874
 20
357.6187762158253
 11
881.2887910226874
 21
375.6187762158253
  0
LINE
  5
3A1
100
AcDbEntity
  8
0
  6
ByLayer
 62
  256
370
   -1
100
AcDbLine
 10
881.2887910226874
 20
375.6187762158253
 11
884.2887910226874
 21
375.6187762158253
  0
LINE
  5
3A2
100
AcDbEntity
  8
0
  6
ByLayer
 62
  256
370
   -1
100
AcDbLine
 10
884.2887910226874
 20
375.6187762158253
 11
884.2887910226874
 21
393.6187762158253
  0
LINE
  5
3A3
100
AcDbEntity
  8
0
  6
ByLayer
 62
  256
370
   -1
100
AcDbLine
 10
884.2887910226874
 20
393.6187762158253
 11
881.2887910226874
 21
393.6187762158253
  0
LINE
  5
3A4
100
AcDbEntity
  8
0
  6
ByLayer
 62
  256
370
   -1
100
AcDbLine
 10
881.2887910226874
 20
393.6187762158253
 11
881.2887910226874
 21
411.6187762158253
  0
LINE
  5
3A5
100
AcDbEntity
  8
0
  6
ByLayer
 62
  256
370
   -1
100
AcDbLine
 10
881.2887910226874
 20
411.6187762158253
 11
884.2887910226874
 21
411.6187762158253
  0
LINE
  5
3A6
100
AcDbEntity
  8
0
  6
ByLayer
 62
  256
370
   -1
100
AcDbLine
 10
884.2887910226874
 20
411.6187762158253
 11
884.2887910226874
 21
429.6187762158253
  0
LINE
  5
3A7
100
AcDbEntity
  8
0
  6
ByLayer
 62
  256
370
   -1
100
AcDbLine
 10
884.2887910226874
 20
429.6187762158253
 11
881.2887910226874
 21
429.6187762158253
  0
LINE
  5
3A8
100
AcDbEntity
  8
0
  6
ByLayer
 62
  256
370
   -1
100
AcDbLine
 10
881.2887910226874
 20
429.6187762158253
 11
881.2887910226874
 21
447.6187762158253
  0
LINE
  5
3A9
100
AcDbEntity
  8
0
  6
ByLayer
 62
  256
370
   -1
100
AcDbLine
 10
881.2887910226874
 20
447.6187762158253
 11
884.2887910226874
 21
447.6187762158253
  0
LINE
  5
3AA
100
AcDbEntity
  8
0
  6
ByLayer
 62
  256
370
   -1
100
AcDbLine
 10
884.2887910226874
 20
447.6187762158253
 11
884.2887910226874
 21
465.6187762158253
  0
LINE
  5
3AB
100
AcDbEntity
  8
0
  6
ByLayer
 62
  256
370
   -1
100
AcDbLine
 10
884.2887910226874
 20
465.6187762158253
 11
881.2887910226874
 21
465.6187762158253
  0
LINE
  5
3AC
100
AcDbEntity
  8
0
  6
ByLayer
 62
  256
370
   -1
100
AcDbLine
 10
881.2887910226874
 20
465.6187762158253
 11
881.2887910226874
 21
483.6187762158253
  0
LINE
  5
3AD
100
AcDbEntity
  8
0
  6
ByLayer
 62
  256
370
   -1
100
AcDbLine
 10
881.2887910226874
 20
483.6187762158253
 11
884.2887910226874
 21
483.6187762158253
  0
LINE
  5
3AE
100
AcDbEntity
  8
0
  6
ByLayer
 62
  256
370
   -1
100
AcDbLine
 10
884.2887910226874
 20
483.6187762158253
 11
884.2887910226874
 21
501.6187762158253
  0
LINE
  5
3AF
100
AcDbEntity
  8
0
  6
ByLayer
 62
  256
370
   -1
100
AcDbLine
 10
884.2887910226874
 20
501.6187762158253
 11
881.2887910226874
 21
501.6187762158253
  0
LINE
  5
3B0
100
AcDbEntity
  8
0
  6
ByLayer
 62
  256
370
   -1
100
AcDbLine
 10
881.2887910226874
 20
501.6187762158253
 11
881.2887910226874
 21
519.6187762158252
  0
LINE
  5
3B1
100
AcDbEntity
  8
0
  6
ByLayer
 62
  256
370
   -1
100
AcDbLine
 10
881.2887910226874
 20
519.6187762158252
 11
884.2887910226874
 21
519.6187762158252
  0
LINE
  5
3B2
100
AcDbEntity
  8
0
  6
ByLayer
 62
  256
370
   -1
100
AcDbLine
 10
884.2887910226874
 20
519.6187762158252
 11
884.2887910226874
 21
537.6187762158252
  0
LINE
  5
3B3
100
AcDbEntity
  8
0
  6
ByLayer
 62
  256
370
   -1
100
AcDbLine
 10
884.2887910226874
 20
537.6187762158252
 11
884.2887910226874
 21
545.6187762158252
  0
LINE
  5
3B4
100
AcDbEntity
  8
0
  6
ByLayer
 62
  256
370
   -1
100
AcDbLine
 10
844.2887910226874
 20
545.6187762158252
 11
844.2887910226874
 21
331.6187762158253
  0
LINE
  5
3B5
100
AcDbEntity
  8
0
  6
ByLayer
 62
  256
370
   -1
100
AcDbLine
 10
855.5387910226874
 20
331.6187762158253
 11
855.5387910226874
 21
334.6187762158253
  0
LINE
  5
3B6
100
AcDbEntity
  8
0
  6
ByLayer
 62
  256
370
   -1
100
AcDbLine
 10
855.5387910226874
 20
542.6187762158252
 11
855.5387910226874
 21
545.6187762158252
  0
LINE
  5
3B7
100
AcDbEntity
  8
0
  6
ByLayer
 62
  256
370
   -1
100
AcDbLine
 10
873.0387910226874
 20
334.6187762158253
 11
873.0387910226874
 21
331.6187762158253
  0
LINE
  5
3B8
100
AcDbEntity
  8
0
  6
ByLayer
 62
  256
370
   -1
100
AcDbLine
 10
873.0387910226874
 20
545.6187762158252
 11
873.0387910226874
 21
542.6187762158252
  0
LINE
  5
3B9
100
AcDbEntity
  8
0
  6
ByLayer
 62
  256
370
   -1
100
AcDbLine
 10
844.2887910226874
 20
331.6187762158253
 11
855.5387910226874
 21
331.6187762158253
  0
LINE
  5
3BA
100
AcDbEntity
  8
0
  6
ByLayer
 62
  256
370
   -1
100
AcDbLine
 10
855.5387910226874
 20
334.6187762158253
 11
873.0387910226874
 21
334.6187762158253
  0
LINE
  5
3BB
100
AcDbEntity
  8
0
  6
ByLayer
 62
  256
370
   -1
100
AcDbLine
 10
873.0387910226874
 20
331.6187762158253
 11
884.2887910226874
 21
331.6187762158253
  0
LINE
  5
3BC
100
AcDbEntity
  8
0
  6
ByLayer
 62
  256
370
   -1
100
AcDbLine
 10
884.2887910226874
 20
545.6187762158252
 11
873.0387910226874
 21
545.6187762158252
  0
LINE
  5
3BD
100
AcDbEntity
  8
0
  6
ByLayer
 62
  256
370
   -1
100
AcDbLine
 10
873.0387910226874
 20
542.6187762158252
 11
855.5387910226874
 21
542.6187762158252
  0
LINE
  5
3BE
100
AcDbEntity
  8
0
  6
ByLayer
 62
  256
370
   -1
100
AcDbLine
 10
855.5387910226874
 20
545.6187762158252
 11
844.2887910226874
 21
545.6187762158252
  0
ENDSEC
  0
SECTION
  2
OBJECTS
  0
DICTIONARY
  5
C
330
0
100
AcDbDictionary
281
    1
  3
ACAD_GROUP
350
D
  0
DICTIONARY
  5
D
330
C
100
AcDbDictionary
281
    1
  0
PLOTSETTINGS
  5
3BF
100
AcDbPlotSettings
  6
1x1
 40
0
 41
0
 42
0
 43
0
  0
ENDSEC
  0
EOF
